Evolventa-Bold.ufo
<glyph name="quotedbl" format="1">
  <advance width="337"/>
  <unicode hex="0022"/>
  <outline>
    <contour>
      <point x="273" y="513" type="line"/>
      <point x="197" y="513" type="line"/>
      <point x="197" y="739" type="line"/>
      <point x="273" y="739" type="line"/>
    </contour>
    <contour>
      <point x="140" y="513" type="line"/>
      <point x="64" y="513" type="line"/>
      <point x="64" y="739" type="line"/>
      <point x="140" y="739" type="line"/>
    </contour>
  </outline>
</glyph>
<glyph name="numbersign" format="1">
  <advance width="560"/>
  <unicode hex="0023"/>
  <outline>
    <contour>
      <point x="199" y="739" type="line"/>
      <point x="289" y="739" type="line"/>
      <point x="260" y="521" type="line"/>
      <point x="347" y="521" type="line"/>
      <point x="376" y="739" type="line"/>
      <point x="466" y="739" type="line"/>
      <point x="437" y="521" type="line"/>
      <point x="526" y="521" type="line"/>
      <point x="526" y="422" type="line"/>
      <point x="423" y="422" type="line"/>
      <point x="411" y="333" type="line"/>
      <point x="500" y="333" type="line"/>
      <point x="500" y="233" type="line"/>
      <point x="398" y="233" type="line"/>
      <point x="366" y="0" type="line"/>
      <point x="276" y="0" type="line"/>
      <point x="308" y="233" type="line"/>
      <point x="221" y="233" type="line"/>
      <point x="190" y="0" type="line"/>
      <point x="99" y="0" type="line"/>
      <point x="131" y="233" type="line"/>
      <point x="34" y="233" type="line"/>
      <point x="34" y="333" type="line"/>
      <point x="144" y="333" type="line"/>
      <point x="156" y="422" type="line"/>
      <point x="60" y="422" type="line"/>
      <point x="60" y="521" type="line"/>
      <point x="170" y="521" type="line"/>
    </contour>
    <contour>
      <point x="247" y="422" type="line"/>
      <point x="234" y="333" type="line"/>
      <point x="321" y="333" type="line"/>
      <point x="333" y="422" type="line"/>
    </contour>
  </outline>
</glyph>
<glyph name="dollar" format="1">
  <advance width="560"/>
  <unicode hex="0024"/>
  <outline>
    <contour>
      <point x="62" y="249" type="line"/>
      <point x="196" y="249" type="line"/>
      <point x="199" y="196"/>
      <point x="232" y="163"/>
      <point x="280" y="163" type="curve" smooth="yes"/>
      <point x="328" y="163"/>
      <point x="364" y="198"/>
      <point x="364" y="246" type="curve" smooth="yes"/>
      <point x="364" y="278"/>
      <point x="353" y="298"/>
      <point x="325" y="316" type="curve" smooth="yes"/>
      <point x="307" y="328"/>
      <point x="307" y="328"/>
      <point x="220" y="361" type="curve" smooth="yes"/>
      <point x="135" y="393"/>
      <point x="91" y="454"/>
      <point x="91" y="541" type="curve" smooth="yes"/>
      <point x="91" y="636"/>
      <point x="141" y="705"/>
      <point x="223" y="723" type="curve"/>
      <point x="223" y="856" type="line"/>
      <point x="350" y="856" type="line"/>
      <point x="350" y="723" type="line"/>
      <point x="418" y="710"/>
      <point x="471" y="636"/>
      <point x="474" y="551" type="curve"/>
      <point x="348" y="551" type="line"/>
      <point x="340" y="591"/>
      <point x="317" y="613"/>
      <point x="283" y="613" type="curve" smooth="yes"/>
      <point x="248" y="613"/>
      <point x="224" y="587"/>
      <point x="224" y="549" type="curve" smooth="yes"/>
      <point x="224" y="524"/>
      <point x="234" y="502"/>
      <point x="253" y="489" type="curve" smooth="yes"/>
      <point x="269" y="476"/>
      <point x="286" y="468"/>
      <point x="338" y="449" type="curve" smooth="yes"/>
      <point x="398" y="428"/>
      <point x="422" y="415"/>
      <point x="444" y="395" type="curve" smooth="yes"/>
      <point x="478" y="364"/>
      <point x="497" y="313"/>
      <point x="497" y="251" type="curve" smooth="yes"/>
      <point x="497" y="148"/>
      <point x="443" y="72"/>
      <point x="350" y="46" type="curve"/>
      <point x="350" y="-86" type="line"/>
      <point x="223" y="-86" type="line"/>
      <point x="223" y="46" type="line"/>
      <point x="124" y="74"/>
      <point x="62" y="147"/>
      <point x="62" y="236" type="curve" smooth="yes"/>
    </contour>
  </outline>
</glyph>
<glyph name="percent" format="1">
  <advance width="860"/>
  <unicode hex="0025"/>
  <outline>
    <contour>
      <point x="530" y="739" type="line"/>
      <point x="633" y="739" type="line"/>
      <point x="327" y="0" type="line"/>
      <point x="225" y="0" type="line"/>
    </contour>
    <contour>
      <point x="657" y="348" type="curve" smooth="yes"/>
      <point x="755" y="348"/>
      <point x="837" y="266"/>
      <point x="837" y="168" type="curve" smooth="yes"/>
      <point x="837" y="68"/>
      <point x="756" y="-13"/>
      <point x="656" y="-13" type="curve" smooth="yes"/>
      <point x="556" y="-13"/>
      <point x="475" y="68"/>
      <point x="475" y="167" type="curve" smooth="yes"/>
      <point x="475" y="269"/>
      <point x="555" y="348"/>
    </contour>
    <contour>
      <point x="655" y="242" type="curve" smooth="yes"/>
      <point x="615" y="242"/>
      <point x="583" y="209"/>
      <point x="583" y="168" type="curve" smooth="yes"/>
      <point x="583" y="127"/>
      <point x="616" y="94"/>
      <point x="656" y="94" type="curve" smooth="yes"/>
      <point x="697" y="94"/>
      <point x="730" y="127"/>
      <point x="730" y="168" type="curve" smooth="yes"/>
      <point x="730" y="209"/>
      <point x="697" y="242"/>
    </contour>
    <contour>
      <point x="205" y="752" type="curve" smooth="yes"/>
      <point x="303" y="752"/>
      <point x="385" y="670"/>
      <point x="385" y="572" type="curve" smooth="yes"/>
      <point x="385" y="472"/>
      <point x="304" y="391"/>
      <point x="204" y="391" type="curve" smooth="yes"/>
      <point x="104" y="391"/>
      <point x="23" y="472"/>
      <point x="23" y="571" type="curve" smooth="yes"/>
      <point x="23" y="673"/>
      <point x="103" y="752"/>
    </contour>
    <contour>
      <point x="203" y="646" type="curve" smooth="yes"/>
      <point x="163" y="646"/>
      <point x="131" y="613"/>
      <point x="131" y="572" type="curve" smooth="yes"/>
      <point x="131" y="531"/>
      <point x="164" y="498"/>
      <point x="204" y="498" type="curve" smooth="yes"/>
      <point x="245" y="498"/>
      <point x="278" y="531"/>
      <point x="278" y="572" type="curve" smooth="yes"/>
      <point x="278" y="613"/>
      <point x="245" y="646"/>
    </contour>
  </outline>
</glyph>
<glyph name="ampersand" format="1">
  <advance width="680"/>
  <unicode hex="0026"/>
  <outline>
    <contour>
      <point x="510" y="433" type="line"/>
      <point x="659" y="433" type="line"/>
      <point x="531" y="214" type="line"/>
      <point x="663" y="73" type="line"/>
      <point x="568" y="-13" type="line"/>
      <point x="463" y="98" type="line"/>
      <point x="400" y="14"/>
      <point x="354" y="-13"/>
      <point x="275" y="-13" type="curve" smooth="yes"/>
      <point x="139" y="-13"/>
      <point x="34" y="90"/>
      <point x="34" y="223" type="curve" smooth="yes"/>
      <point x="34" y="313"/>
      <point x="75" y="376"/>
      <point x="172" y="433" type="curve"/>
      <point x="124" y="486"/>
      <point x="110" y="516"/>
      <point x="110" y="569" type="curve" smooth="yes"/>
      <point x="110" y="672"/>
      <point x="191" y="752"/>
      <point x="296" y="752" type="curve" smooth="yes"/>
      <point x="406" y="752"/>
      <point x="487" y="674"/>
      <point x="487" y="570" type="curve" smooth="yes"/>
      <point x="487" y="520"/>
      <point x="471" y="476"/>
      <point x="440" y="442" type="curve" smooth="yes"/>
      <point x="424" y="424"/>
      <point x="409" y="413"/>
      <point x="371" y="389" type="curve"/>
      <point x="438" y="314" type="line"/>
    </contour>
    <contour>
      <point x="288" y="481" type="curve"/>
      <point x="343" y="509"/>
      <point x="360" y="530"/>
      <point x="360" y="566" type="curve" smooth="yes"/>
      <point x="360" y="602"/>
      <point x="335" y="627"/>
      <point x="299" y="627" type="curve" smooth="yes"/>
      <point x="263" y="627"/>
      <point x="237" y="601"/>
      <point x="237" y="566" type="curve" smooth="yes"/>
      <point x="237" y="540"/>
      <point x="249" y="519"/>
    </contour>
    <contour>
      <point x="371" y="198" type="curve"/>
      <point x="256" y="322" type="line"/>
      <point x="193" y="293"/>
      <point x="167" y="262"/>
      <point x="167" y="215" type="curve" smooth="yes"/>
      <point x="167" y="159"/>
      <point x="209" y="119"/>
      <point x="267" y="119" type="curve" smooth="yes"/>
      <point x="312" y="119"/>
      <point x="336" y="138"/>
    </contour>
  </outline>
</glyph>
<glyph name="quotesingle" format="1">
  <advance width="204"/>
  <unicode hex="0027"/>
  <outline>
    <contour>
      <point x="140" y="513" type="line"/>
      <point x="64" y="513" type="line"/>
      <point x="64" y="739" type="line"/>
      <point x="140" y="739" type="line"/>
    </contour>
  </outline>
</glyph>
<glyph name="parenleft" format="1">
  <advance width="357"/>
  <unicode hex="0028"/>
  <outline>
    <contour>
      <point x="311" y="8" type="curve"/>
      <point x="311" y="-137" type="line"/>
      <point x="249" y="-116"/>
      <point x="208" y="-88"/>
      <point x="159" y="-32" type="curve" smooth="yes"/>
      <point x="80" y="58"/>
      <point x="36" y="178"/>
      <point x="36" y="300" type="curve" smooth="yes"/>
      <point x="36" y="444"/>
      <point x="96" y="582"/>
      <point x="195" y="669" type="curve" smooth="yes"/>
      <point x="232" y="701"/>
      <point x="260" y="717"/>
      <point x="311" y="739" type="curve"/>
      <point x="311" y="595" type="line"/>
      <point x="220" y="525"/>
      <point x="171" y="421"/>
      <point x="171" y="300" type="curve" smooth="yes"/>
      <point x="171" y="183"/>
      <point x="229" y="61"/>
    </contour>
  </outline>
</glyph>
<glyph name="parenright" format="1">
  <advance width="357"/>
  <unicode hex="0029"/>
  <outline>
    <contour>
      <point x="46" y="594" type="curve"/>
      <point x="46" y="739" type="line"/>
      <point x="108" y="718"/>
      <point x="149" y="690"/>
      <point x="198" y="634" type="curve" smooth="yes"/>
      <point x="277" y="544"/>
      <point x="321" y="424"/>
      <point x="321" y="302" type="curve" smooth="yes"/>
      <point x="321" y="158"/>
      <point x="261" y="20"/>
      <point x="162" y="-67" type="curve" smooth="yes"/>
      <point x="125" y="-99"/>
      <point x="97" y="-115"/>
      <point x="46" y="-137" type="curve"/>
      <point x="46" y="7" type="line"/>
      <point x="137" y="77"/>
      <point x="186" y="181"/>
      <point x="186" y="302" type="curve" smooth="yes"/>
      <point x="186" y="419"/>
      <point x="128" y="541"/>
    </contour>
  </outline>
</glyph>
<glyph name="asterisk" format="1">
  <advance width="409"/>
  <unicode hex="002A"/>
  <outline>
    <contour>
      <point x="100" y="706" type="line"/>
      <point x="163" y="738" type="line"/>
      <point x="207" y="652" type="line"/>
      <point x="253" y="739" type="line"/>
      <point x="312" y="703" type="line"/>
      <point x="258" y="620" type="line"/>
      <point x="355" y="626" type="line"/>
      <point x="355" y="554" type="line"/>
      <point x="258" y="559" type="line"/>
      <point x="311" y="479" type="line"/>
      <point x="254" y="441" type="line"/>
      <point x="207" y="529" type="line"/>
      <point x="164" y="441" type="line"/>
      <point x="100" y="472" type="line"/>
      <point x="152" y="561" type="line"/>
      <point x="54" y="554" type="line"/>
      <point x="54" y="625" type="line"/>
      <point x="153" y="620" type="line"/>
    </contour>
  </outline>
</glyph>
<glyph name="plus" format="1">
  <advance width="600"/>
  <unicode hex="002B"/>
  <outline>
    <contour>
      <point x="240" y="430" type="line"/>
      <point x="240" y="625" type="line"/>
      <point x="360" y="625" type="line"/>
      <point x="360" y="430" type="line"/>
      <point x="552" y="430" type="line"/>
      <point x="552" y="312" type="line"/>
      <point x="360" y="312" type="line"/>
      <point x="360" y="117" type="line"/>
      <point x="240" y="117" type="line"/>
      <point x="240" y="312" type="line"/>
      <point x="48" y="312" type="line"/>
      <point x="48" y="430" type="line"/>
    </contour>
  </outline>
</glyph>
<glyph name="comma" format="1">
  <advance width="281"/>
  <unicode hex="002C"/>
  <outline>
    <contour>
      <point x="74" y="0" type="line"/>
      <point x="74" y="128" type="line"/>
      <point x="207" y="128" type="line"/>
      <point x="207" y="-7" type="line" smooth="yes"/>
      <point x="207" y="-65"/>
      <point x="186" y="-102"/>
      <point x="141" y="-126" type="curve" smooth="yes"/>
      <point x="119" y="-137"/>
      <point x="103" y="-140"/>
      <point x="74" y="-140" type="curve"/>
      <point x="74" y="-73" type="line"/>
      <point x="116" y="-65"/>
      <point x="133" y="-49"/>
      <point x="133" y="-18" type="curve" smooth="yes"/>
      <point x="133" y="-13"/>
      <point x="133" y="-7"/>
      <point x="132" y="0" type="curve"/>
    </contour>
  </outline>
</glyph>
<glyph name="period" format="1">
  <advance width="281"/>
  <unicode hex="002E"/>
  <outline>
    <contour>
      <point x="74" y="0" type="line"/>
      <point x="74" y="128" type="line"/>
      <point x="207" y="128" type="line"/>
      <point x="207" y="0" type="line"/>
    </contour>
  </outline>
</glyph>
<glyph name="slash" format="1">
  <advance width="460"/>
  <unicode hex="002F"/>
  <outline>
    <contour>
      <point x="12" y="-128" type="line"/>
      <point x="335" y="739" type="line"/>
      <point x="429" y="739" type="line"/>
      <point x="106" y="-128" type="line"/>
    </contour>
  </outline>
</glyph>
<glyph name="zero" format="1">
  <advance width="560"/>
  <unicode hex="0030"/>
  <outline>
    <contour>
      <point x="280" y="805" type="move" name="Anchor-0"/>
    </contour>
    <contour>
      <point x="527" y="505" type="curve" smooth="yes"/>
      <point x="527" y="247" type="line" smooth="yes"/>
      <point x="527" y="83"/>
      <point x="438" y="-13"/>
      <point x="286" y="-13" type="curve" smooth="yes"/>
      <point x="196" y="-13"/>
      <point x="125" y="20"/>
      <point x="79" y="81" type="curve" smooth="yes"/>
      <point x="46" y="126"/>
      <point x="32" y="176"/>
      <point x="32" y="247" type="curve" smooth="yes"/>
      <point x="32" y="498" type="line" smooth="yes"/>
      <point x="32" y="654"/>
      <point x="128" y="752"/>
      <point x="280" y="752" type="curve" smooth="yes"/>
      <point x="430" y="752"/>
      <point x="527" y="655"/>
    </contour>
    <contour>
      <point x="165" y="498" type="curve" smooth="yes"/>
      <point x="165" y="251" type="line" smooth="yes"/>
      <point x="165" y="159"/>
      <point x="206" y="109"/>
      <point x="282" y="109" type="curve" smooth="yes"/>
      <point x="357" y="109"/>
      <point x="394" y="155"/>
      <point x="394" y="248" type="curve" smooth="yes"/>
      <point x="394" y="498" type="line" smooth="yes"/>
      <point x="394" y="583"/>
      <point x="353" y="630"/>
      <point x="281" y="630" type="curve" smooth="yes"/>
      <point x="209" y="630"/>
      <point x="165" y="580"/>
    </contour>
  </outline>
</glyph>
<glyph name="one" format="1">
  <advance width="560"/>
  <unicode hex="0031"/>
  <outline>
    <contour>
      <point x="280" y="805" type="move" name="Anchor-0"/>
    </contour>
    <contour>
      <point x="238" y="0" type="line"/>
      <point x="238" y="614" type="line"/>
      <point x="145" y="614" type="line"/>
      <point x="145" y="739" type="line"/>
      <point x="371" y="739" type="line"/>
      <point x="371" y="0" type="line"/>
    </contour>
  </outline>
</glyph>
<glyph name="three" format="1">
  <advance width="560"/>
  <unicode hex="0033"/>
  <outline>
    <contour>
      <point x="280" y="805" type="move" name="Anchor-0"/>
    </contour>
    <contour>
      <point x="225" y="356" type="line"/>
      <point x="225" y="484" type="line"/>
      <point x="263" y="485"/>
      <point x="281" y="488"/>
      <point x="298" y="495" type="curve" smooth="yes"/>
      <point x="325" y="507"/>
      <point x="339" y="529"/>
      <point x="339" y="560" type="curve" smooth="yes"/>
      <point x="339" y="601"/>
      <point x="312" y="630"/>
      <point x="274" y="630" type="curve" smooth="yes"/>
      <point x="237" y="630"/>
      <point x="218" y="609"/>
      <point x="212" y="563" type="curve"/>
      <point x="77" y="563" type="line"/>
      <point x="82" y="625"/>
      <point x="95" y="658"/>
      <point x="128" y="692" type="curve" smooth="yes"/>
      <point x="165" y="731"/>
      <point x="217" y="752"/>
      <point x="273" y="752" type="curve" smooth="yes"/>
      <point x="387" y="752"/>
      <point x="472" y="667"/>
      <point x="472" y="553" type="curve" smooth="yes"/>
      <point x="472" y="496"/>
      <point x="453" y="457"/>
      <point x="410" y="426" type="curve"/>
      <point x="487" y="391"/>
      <point x="525" y="328"/>
      <point x="525" y="235" type="curve" smooth="yes"/>
      <point x="525" y="92"/>
      <point x="420" y="-13"/>
      <point x="277" y="-13" type="curve" smooth="yes"/>
      <point x="135" y="-13"/>
      <point x="30" y="85"/>
      <point x="22" y="224" type="curve"/>
      <point x="156" y="224" type="line"/>
      <point x="165" y="154"/>
      <point x="211" y="109"/>
      <point x="276" y="109" type="curve" smooth="yes"/>
      <point x="343" y="109"/>
      <point x="392" y="161"/>
      <point x="392" y="232" type="curve" smooth="yes"/>
      <point x="392" y="307"/>
      <point x="336" y="356"/>
      <point x="247" y="356" type="curve" smooth="yes"/>
    </contour>
  </outline>
</glyph>
<glyph name="four" format="1">
  <advance width="560"/>
  <unicode hex="0034"/>
  <outline>
    <contour>
      <point x="280" y="805" type="move" name="Anchor-0"/>
    </contour>
    <contour>
      <point x="10" y="219" type="line"/>
      <point x="350" y="739" type="line"/>
      <point x="462" y="739" type="line"/>
      <point x="462" y="230" type="line"/>
      <point x="540" y="230" type="line"/>
      <point x="540" y="111" type="line"/>
      <point x="462" y="111" type="line"/>
      <point x="462" y="0" type="line"/>
      <point x="329" y="0" type="line"/>
      <point x="329" y="111" type="line"/>
      <point x="10" y="111" type="line"/>
    </contour>
    <contour>
      <point x="329" y="230" type="line"/>
      <point x="329" y="515" type="line"/>
      <point x="145" y="230" type="line"/>
    </contour>
  </outline>
</glyph>
<glyph name="five" format="1">
  <advance width="560"/>
  <unicode hex="0035"/>
  <outline>
    <contour>
      <point x="280" y="805" type="move" name="Anchor-0"/>
    </contour>
    <contour>
      <point x="55" y="353" type="line"/>
      <point x="124" y="739" type="line"/>
      <point x="458" y="739" type="line"/>
      <point x="458" y="614" type="line"/>
      <point x="224" y="614" type="line"/>
      <point x="200" y="478" type="line"/>
      <point x="238" y="494"/>
      <point x="261" y="499"/>
      <point x="295" y="499" type="curve" smooth="yes"/>
      <point x="430" y="499"/>
      <point x="529" y="392"/>
      <point x="529" y="247" type="curve" smooth="yes"/>
      <point x="529" y="98"/>
      <point x="422" y="-13"/>
      <point x="278" y="-13" type="curve" smooth="yes"/>
      <point x="140" y="-13"/>
      <point x="28" y="88"/>
      <point x="21" y="221" type="curve"/>
      <point x="154" y="221" type="line"/>
      <point x="168" y="149"/>
      <point x="210" y="109"/>
      <point x="274" y="109" type="curve" smooth="yes"/>
      <point x="346" y="109"/>
      <point x="396" y="165"/>
      <point x="396" y="245" type="curve" smooth="yes"/>
      <point x="396" y="320"/>
      <point x="345" y="377"/>
      <point x="276" y="377" type="curve" smooth="yes"/>
      <point x="234" y="377"/>
      <point x="206" y="362"/>
      <point x="173" y="321" type="curve"/>
    </contour>
  </outline>
</glyph>
<glyph name="six" format="1">
  <advance width="560"/>
  <unicode hex="0036"/>
  <outline>
    <contour>
      <point x="280" y="805" type="move" name="Anchor-0"/>
    </contour>
    <contour>
      <point x="290" y="739" type="line"/>
      <point x="449" y="739" type="line"/>
      <point x="272" y="476" type="line"/>
      <point x="295" y="484"/>
      <point x="308" y="486"/>
      <point x="332" y="486" type="curve" smooth="yes"/>
      <point x="450" y="486"/>
      <point x="536" y="388"/>
      <point x="536" y="252" type="curve" smooth="yes"/>
      <point x="536" y="97"/>
      <point x="431" y="-13"/>
      <point x="283" y="-13" type="curve" smooth="yes"/>
      <point x="134" y="-13"/>
      <point x="24" y="95"/>
      <point x="24" y="242" type="curve" smooth="yes"/>
      <point x="24" y="314"/>
      <point x="43" y="369"/>
      <point x="97" y="449" type="curve" smooth="yes"/>
    </contour>
    <contour>
      <point x="277" y="370" type="curve" smooth="yes"/>
      <point x="207" y="370"/>
      <point x="157" y="315"/>
      <point x="157" y="239" type="curve" smooth="yes"/>
      <point x="157" y="163"/>
      <point x="209" y="109"/>
      <point x="284" y="109" type="curve" smooth="yes"/>
      <point x="354" y="109"/>
      <point x="403" y="162"/>
      <point x="403" y="239" type="curve" smooth="yes"/>
      <point x="403" y="316"/>
      <point x="352" y="370"/>
    </contour>
  </outline>
</glyph>
<glyph name="seven" format="1">
  <advance width="560"/>
  <unicode hex="0037"/>
  <outline>
    <contour>
      <point x="280" y="805" type="move" name="Anchor-0"/>
    </contour>
    <contour>
      <point x="80" y="0" type="line"/>
      <point x="360" y="614" type="line"/>
      <point x="65" y="614" type="line"/>
      <point x="65" y="739" type="line"/>
      <point x="500" y="739" type="line"/>
      <point x="500" y="614" type="line"/>
      <point x="230" y="0" type="line"/>
    </contour>
  </outline>
</glyph>
<glyph name="eight" format="1">
  <advance width="560"/>
  <unicode hex="0038"/>
  <outline>
    <contour>
      <point x="280" y="805" type="move" name="Anchor-0"/>
    </contour>
    <contour>
      <point x="140" y="411" type="curve"/>
      <point x="94" y="460"/>
      <point x="79" y="494"/>
      <point x="79" y="549" type="curve" smooth="yes"/>
      <point x="79" y="662"/>
      <point x="169" y="752"/>
      <point x="282" y="752" type="curve" smooth="yes"/>
      <point x="398" y="752"/>
      <point x="484" y="666"/>
      <point x="484" y="551" type="curve" smooth="yes"/>
      <point x="484" y="489"/>
      <point x="465" y="445"/>
      <point x="422" y="411" type="curve"/>
      <point x="452" y="393"/>
      <point x="466" y="383"/>
      <point x="481" y="366" type="curve" smooth="yes"/>
      <point x="510" y="333"/>
      <point x="526" y="285"/>
      <point x="526" y="232" type="curve" smooth="yes"/>
      <point x="526" y="92"/>
      <point x="421" y="-13"/>
      <point x="281" y="-13" type="curve" smooth="yes"/>
      <point x="141" y="-13"/>
      <point x="34" y="93"/>
      <point x="34" y="231" type="curve" smooth="yes"/>
      <point x="34" y="279"/>
      <point x="49" y="327"/>
      <point x="76" y="360" type="curve" smooth="yes"/>
      <point x="91" y="380"/>
      <point x="106" y="392"/>
    </contour>
    <contour>
      <point x="281" y="630" type="curve" smooth="yes"/>
      <point x="239" y="630"/>
      <point x="206" y="594"/>
      <point x="206" y="549" type="curve" smooth="yes"/>
      <point x="206" y="504"/>
      <point x="240" y="469"/>
      <point x="282" y="469" type="curve" smooth="yes"/>
      <point x="324" y="469"/>
      <point x="357" y="505"/>
      <point x="357" y="551" type="curve" smooth="yes"/>
      <point x="357" y="596"/>
      <point x="324" y="630"/>
    </contour>
    <contour>
      <point x="279" y="341" type="curve" smooth="yes"/>
      <point x="217" y="341"/>
      <point x="167" y="289"/>
      <point x="167" y="225" type="curve" smooth="yes"/>
      <point x="167" y="160"/>
      <point x="217" y="109"/>
      <point x="282" y="109" type="curve" smooth="yes"/>
      <point x="345" y="109"/>
      <point x="393" y="159"/>
      <point x="393" y="226" type="curve" smooth="yes"/>
      <point x="393" y="291"/>
      <point x="343" y="341"/>
    </contour>
  </outline>
</glyph>
<glyph name="nine" format="1">
  <advance width="560"/>
  <unicode hex="0039"/>
  <outline>
    <contour>
      <point x="280" y="805" type="move" name="Anchor-0"/>
    </contour>
    <contour>
      <point x="269" y="0" type="line"/>
      <point x="110" y="0" type="line"/>
      <point x="288" y="263" type="line"/>
      <point x="264" y="254"/>
      <point x="251" y="251"/>
      <point x="228" y="251" type="curve" smooth="yes"/>
      <point x="112" y="251"/>
      <point x="25" y="353"/>
      <point x="25" y="487" type="curve" smooth="yes"/>
      <point x="25" y="642"/>
      <point x="129" y="752"/>
      <point x="276" y="752" type="curve" smooth="yes"/>
      <point x="425" y="752"/>
      <point x="535" y="643"/>
      <point x="535" y="496" type="curve" smooth="yes"/>
      <point x="535" y="425"/>
      <point x="515" y="370"/>
      <point x="462" y="290" type="curve" smooth="yes"/>
    </contour>
    <contour>
      <point x="274" y="630" type="curve" smooth="yes"/>
      <point x="206" y="630"/>
      <point x="158" y="576"/>
      <point x="158" y="500" type="curve" smooth="yes"/>
      <point x="158" y="423"/>
      <point x="209" y="369"/>
      <point x="281" y="369" type="curve" smooth="yes"/>
      <point x="351" y="369"/>
      <point x="402" y="423"/>
      <point x="402" y="500" type="curve" smooth="yes"/>
      <point x="402" y="577"/>
      <point x="350" y="630"/>
    </contour>
  </outline>
</glyph>
<glyph name="colon" format="1">
  <advance width="281"/>
  <unicode hex="003A"/>
  <outline>
    <contour>
      <point x="74" y="0" type="line"/>
      <point x="74" y="128" type="line"/>
      <point x="207" y="128" type="line"/>
      <point x="207" y="0" type="line"/>
    </contour>
    <contour>
      <point x="74" y="369" type="line"/>
      <point x="74" y="502" type="line"/>
      <point x="207" y="502" type="line"/>
      <point x="207" y="369" type="line"/>
    </contour>
  </outline>
</glyph>
<glyph name="semicolon" format="1">
  <advance width="281"/>
  <unicode hex="003B"/>
  <outline>
    <contour>
      <point x="74" y="0" type="line"/>
      <point x="74" y="128" type="line"/>
      <point x="207" y="128" type="line"/>
      <point x="207" y="-7" type="line" smooth="yes"/>
      <point x="207" y="-56"/>
      <point x="195" y="-84"/>
      <point x="164" y="-110" type="curve" smooth="yes"/>
      <point x="140" y="-131"/>
      <point x="111" y="-140"/>
      <point x="74" y="-140" type="curve"/>
      <point x="74" y="-73" type="line"/>
      <point x="117" y="-65"/>
      <point x="133" y="-49"/>
      <point x="133" y="-15" type="curve" smooth="yes"/>
      <point x="133" y="0" type="line"/>
    </contour>
    <contour>
      <point x="74" y="369" type="line"/>
      <point x="74" y="502" type="line"/>
      <point x="207" y="502" type="line"/>
      <point x="207" y="369" type="line"/>
    </contour>
  </outline>
</glyph>
<glyph name="less" format="1">
  <advance width="600"/>
  <unicode hex="003C"/>
  <outline>
    <contour>
      <point x="553" y="582" type="line"/>
      <point x="553" y="465" type="line"/>
      <point x="212" y="308" type="line"/>
      <point x="553" y="149" type="line"/>
      <point x="553" y="33" type="line"/>
      <point x="44" y="258" type="line"/>
      <point x="44" y="356" type="line"/>
    </contour>
  </outline>
</glyph>
<glyph name="equal" format="1">
  <advance width="600"/>
  <unicode hex="003D"/>
  <outline>
    <contour>
      <point x="552" y="523" type="line"/>
      <point x="552" y="405" type="line"/>
      <point x="48" y="405" type="line"/>
      <point x="48" y="523" type="line"/>
    </contour>
    <contour>
      <point x="552" y="328" type="line"/>
      <point x="552" y="210" type="line"/>
      <point x="48" y="210" type="line"/>
      <point x="48" y="328" type="line"/>
    </contour>
  </outline>
</glyph>
<glyph name="greater" format="1">
  <advance width="600"/>
  <unicode hex="003E"/>
  <outline>
    <contour>
      <point x="47" y="33" type="line"/>
      <point x="47" y="149" type="line"/>
      <point x="389" y="306" type="line"/>
      <point x="47" y="465" type="line"/>
      <point x="47" y="582" type="line"/>
      <point x="556" y="356" type="line"/>
      <point x="556" y="258" type="line"/>
    </contour>
  </outline>
</glyph>
<glyph name="question" format="1">
  <advance width="519"/>
  <unicode hex="003F"/>
  <outline>
    <contour>
      <point x="317" y="187" type="curve"/>
      <point x="184" y="187" type="line"/>
      <point x="184" y="311"/>
      <point x="206" y="360"/>
      <point x="306" y="442" type="curve" smooth="yes"/>
      <point x="335" y="466"/>
      <point x="351" y="496"/>
      <point x="351" y="527" type="curve" smooth="yes"/>
      <point x="351" y="581"/>
      <point x="311" y="620"/>
      <point x="256" y="620" type="curve" smooth="yes"/>
      <point x="202" y="620"/>
      <point x="173" y="588"/>
      <point x="164" y="520" type="curve"/>
      <point x="31" y="520" type="line"/>
      <point x="36" y="588"/>
      <point x="51" y="631"/>
      <point x="82" y="669" type="curve" smooth="yes"/>
      <point x="125" y="722"/>
      <point x="189" y="752"/>
      <point x="259" y="752" type="curve" smooth="yes"/>
      <point x="388" y="752"/>
      <point x="484" y="654"/>
      <point x="484" y="523" type="curve" smooth="yes"/>
      <point x="484" y="456"/>
      <point x="460" y="413"/>
      <point x="382" y="344" type="curve" smooth="yes"/>
      <point x="327" y="297"/>
      <point x="317" y="274"/>
    </contour>
    <contour>
      <point x="184" y="0" type="line"/>
      <point x="184" y="128" type="line"/>
      <point x="317" y="128" type="line"/>
      <point x="317" y="0" type="line"/>
    </contour>
  </outline>
</glyph>
<glyph name="at" format="1">
  <advance width="814"/>
  <unicode hex="0040"/>
  <outline>
    <contour>
      <point x="613" y="573" type="line"/>
      <point x="580" y="278" type="line" smooth="yes"/>
      <point x="579" y="274"/>
      <point x="579" y="269"/>
      <point x="579" y="265" type="curve" smooth="yes"/>
      <point x="579" y="245"/>
      <point x="587" y="237"/>
      <point x="606" y="237" type="curve" smooth="yes"/>
      <point x="659" y="237"/>
      <point x="705" y="318"/>
      <point x="705" y="413" type="curve" smooth="yes"/>
      <point x="705" y="580"/>
      <point x="591" y="694"/>
      <point x="423" y="694" type="curve" smooth="yes"/>
      <point x="241" y="694"/>
      <point x="107" y="558"/>
      <point x="107" y="375" type="curve" smooth="yes"/>
      <point x="107" y="281"/>
      <point x="147" y="192"/>
      <point x="214" y="134" type="curve" smooth="yes"/>
      <point x="268" y="87"/>
      <point x="350" y="60"/>
      <point x="434" y="60" type="curve" smooth="yes"/>
      <point x="493" y="60"/>
      <point x="538" y="74"/>
      <point x="583" y="107" type="curve"/>
      <point x="629" y="47" type="line"/>
      <point x="574" y="4"/>
      <point x="517" y="-13"/>
      <point x="432" y="-13" type="curve" smooth="yes"/>
      <point x="302" y="-13"/>
      <point x="197" y="34"/>
      <point x="123" y="126" type="curve" smooth="yes"/>
      <point x="67" y="195"/>
      <point x="36" y="284"/>
      <point x="36" y="377" type="curve" smooth="yes"/>
      <point x="36" y="598"/>
      <point x="202" y="766"/>
      <point x="420" y="766" type="curve" smooth="yes"/>
      <point x="563" y="766"/>
      <point x="685" y="695"/>
      <point x="741" y="581" type="curve" smooth="yes"/>
      <point x="765" y="532"/>
      <point x="778" y="466"/>
      <point x="778" y="397" type="curve" smooth="yes"/>
      <point x="778" y="253"/>
      <point x="693" y="154"/>
      <point x="567" y="154" type="curve" smooth="yes"/>
      <point x="514" y="154"/>
      <point x="481" y="172"/>
      <point x="468" y="208" type="curve"/>
      <point x="443" y="171"/>
      <point x="409" y="154"/>
      <point x="355" y="154" type="curve" smooth="yes"/>
      <point x="254" y="154"/>
      <point x="190" y="228"/>
      <point x="190" y="344" type="curve" smooth="yes"/>
      <point x="190" y="477"/>
      <point x="276" y="577"/>
      <point x="392" y="577" type="curve" smooth="yes"/>
      <point x="446" y="577"/>
      <point x="477" y="562"/>
      <point x="510" y="519" type="curve"/>
      <point x="517" y="573" type="line"/>
    </contour>
    <contour>
      <point x="411" y="465" type="curve" smooth="yes"/>
      <point x="356" y="465"/>
      <point x="310" y="415"/>
      <point x="310" y="355" type="curve" smooth="yes"/>
      <point x="310" y="296"/>
      <point x="340" y="260"/>
      <point x="389" y="260" type="curve" smooth="yes"/>
      <point x="447" y="260"/>
      <point x="488" y="307"/>
      <point x="488" y="374" type="curve" smooth="yes"/>
      <point x="488" y="432"/>
      <point x="460" y="465"/>
    </contour>
  </outline>
</glyph>
<glyph name="A" format="1">
  <advance width="740"/>
  <unicode hex="0041"/>
  <outline>
    <contour>
      <point x="370" y="805" type="move" name="Anchor-0"/>
    </contour>
    <contour>
      <point x="7" y="0" type="line"/>
      <point x="315" y="739" type="line"/>
      <point x="423" y="739" type="line"/>
      <point x="733" y="0" type="line"/>
      <point x="582" y="0" type="line"/>
      <point x="503" y="191" type="line"/>
      <point x="240" y="191" type="line"/>
      <point x="158" y="0" type="line"/>
    </contour>
    <contour>
      <point x="290" y="322" type="line"/>
      <point x="448" y="322" type="line"/>
      <point x="369" y="546" type="line"/>
    </contour>
  </outline>
</glyph>
<glyph name="B" format="1">
  <advance width="587"/>
  <unicode hex="0042"/>
  <outline>
    <contour>
      <point x="281" y="805" type="move" name="Anchor-0"/>
    </contour>
    <contour>
      <point x="71" y="0" type="line"/>
      <point x="71" y="739" type="line"/>
      <point x="223" y="739" type="line" smooth="yes"/>
      <point x="336" y="739"/>
      <point x="382" y="730"/>
      <point x="427" y="700" type="curve" smooth="yes"/>
      <point x="478" y="666"/>
      <point x="507" y="609"/>
      <point x="507" y="542" type="curve" smooth="yes"/>
      <point x="507" y="472"/>
      <point x="484" y="434"/>
      <point x="425" y="403" type="curve"/>
      <point x="474" y="383"/>
      <point x="496" y="368"/>
      <point x="517" y="339" type="curve" smooth="yes"/>
      <point x="539" y="309"/>
      <point x="551" y="266"/>
      <point x="551" y="220" type="curve" smooth="yes"/>
      <point x="551" y="142"/>
      <point x="514" y="75"/>
      <point x="450" y="38" type="curve" smooth="yes"/>
      <point x="405" y="12"/>
      <point x="347" y="0"/>
      <point x="268" y="0" type="curve" smooth="yes"/>
    </contour>
    <contour>
      <point x="208" y="131" type="line"/>
      <point x="276" y="131" type="line" smooth="yes"/>
      <point x="372" y="131"/>
      <point x="413" y="159"/>
      <point x="413" y="224" type="curve" smooth="yes"/>
      <point x="413" y="289"/>
      <point x="368" y="320"/>
      <point x="273" y="320" type="curve" smooth="yes"/>
      <point x="208" y="320" type="line"/>
    </contour>
    <contour>
      <point x="208" y="454" type="line"/>
      <point x="252" y="454" type="line" smooth="yes"/>
      <point x="335" y="454"/>
      <point x="370" y="477"/>
      <point x="370" y="530" type="curve" smooth="yes"/>
      <point x="370" y="581"/>
      <point x="335" y="605"/>
      <point x="264" y="605" type="curve" smooth="yes"/>
      <point x="208" y="605" type="line"/>
    </contour>
  </outline>
</glyph>
<glyph name="D" format="1">
  <advance width="699"/>
  <unicode hex="0044"/>
  <outline>
    <contour>
      <point x="341" y="805" type="move" name="Anchor-0"/>
    </contour>
    <contour>
      <point x="71" y="0" type="line"/>
      <point x="71" y="739" type="line"/>
      <point x="240" y="739" type="line" smooth="yes"/>
      <point x="361" y="739"/>
      <point x="450" y="720"/>
      <point x="510" y="681" type="curve" smooth="yes"/>
      <point x="608" y="618"/>
      <point x="663" y="505"/>
      <point x="663" y="368" type="curve" smooth="yes"/>
      <point x="663" y="215"/>
      <point x="593" y="93"/>
      <point x="476" y="38" type="curve" smooth="yes"/>
      <point x="417" y="11"/>
      <point x="352" y="0"/>
      <point x="243" y="0" type="curve" smooth="yes"/>
    </contour>
    <contour>
      <point x="208" y="131" type="line"/>
      <point x="238" y="131" type="line" smooth="yes"/>
      <point x="320" y="131"/>
      <point x="377" y="142"/>
      <point x="418" y="164" type="curve" smooth="yes"/>
      <point x="484" y="200"/>
      <point x="525" y="279"/>
      <point x="525" y="368" type="curve" smooth="yes"/>
      <point x="525" y="465"/>
      <point x="480" y="545"/>
      <point x="407" y="581" type="curve" smooth="yes"/>
      <point x="365" y="601"/>
      <point x="320" y="608"/>
      <point x="235" y="608" type="curve" smooth="yes"/>
      <point x="208" y="608" type="line"/>
    </contour>
  </outline>
</glyph>
<glyph name="G" format="1">
  <advance width="857"/>
  <unicode hex="0047"/>
  <outline>
    <contour>
      <point x="428" y="805" type="move" name="Anchor-0"/>
    </contour>
    <contour>
      <point x="341" y="249" type="line"/>
      <point x="341" y="377" type="line"/>
      <point x="824" y="377" type="line"/>
      <point x="824" y="359" type="line" smooth="yes"/>
      <point x="824" y="264"/>
      <point x="786" y="172"/>
      <point x="718" y="101" type="curve" smooth="yes"/>
      <point x="645" y="26"/>
      <point x="550" y="-13"/>
      <point x="438" y="-13" type="curve" smooth="yes"/>
      <point x="211" y="-13"/>
      <point x="36" y="154"/>
      <point x="36" y="371" type="curve" smooth="yes"/>
      <point x="36" y="584"/>
      <point x="208" y="752"/>
      <point x="425" y="752" type="curve" smooth="yes"/>
      <point x="586" y="752"/>
      <point x="738" y="656"/>
      <point x="786" y="522" type="curve"/>
      <point x="625" y="522" type="line"/>
      <point x="579" y="586"/>
      <point x="508" y="620"/>
      <point x="422" y="620" type="curve" smooth="yes"/>
      <point x="351" y="620"/>
      <point x="286" y="594"/>
      <point x="243" y="548" type="curve" smooth="yes"/>
      <point x="201" y="503"/>
      <point x="174" y="433"/>
      <point x="174" y="369" type="curve" smooth="yes"/>
      <point x="174" y="227"/>
      <point x="285" y="119"/>
      <point x="430" y="119" type="curve" smooth="yes"/>
      <point x="528" y="119"/>
      <point x="607" y="167"/>
      <point x="647" y="249" type="curve"/>
    </contour>
  </outline>
</glyph>
<glyph name="I" format="1">
  <advance width="279"/>
  <unicode hex="0049"/>
  <outline>
    <contour>
      <point x="139" y="805" type="move" name="Anchor-0"/>
    </contour>
    <contour>
      <point x="71" y="0" type="line"/>
      <point x="71" y="739" type="line"/>
      <point x="208" y="739" type="line"/>
      <point x="208" y="0" type="line"/>
    </contour>
  </outline>
</glyph>
<glyph name="J" format="1">
  <advance width="494"/>
  <unicode hex="004A"/>
  <outline>
    <contour>
      <point x="354" y="805" type="move" name="Anchor-0"/>
    </contour>
    <contour>
      <point x="286" y="739" type="line"/>
      <point x="423" y="739" type="line"/>
      <point x="423" y="212" type="line" smooth="yes"/>
      <point x="423" y="73"/>
      <point x="347" y="-13"/>
      <point x="223" y="-13" type="curve" smooth="yes"/>
      <point x="159" y="-13"/>
      <point x="100" y="13"/>
      <point x="62" y="57" type="curve" smooth="yes"/>
      <point x="34" y="89"/>
      <point x="23" y="118"/>
      <point x="18" y="175" type="curve"/>
      <point x="155" y="175" type="line"/>
      <point x="164" y="138"/>
      <point x="186" y="119"/>
      <point x="220" y="119" type="curve" smooth="yes"/>
      <point x="264" y="119"/>
      <point x="286" y="151"/>
      <point x="286" y="216" type="curve" smooth="yes"/>
    </contour>
  </outline>
</glyph>
<glyph name="L" format="1">
  <advance width="454"/>
  <unicode hex="004C"/>
  <outline>
    <contour>
      <point x="139" y="805" type="move" name="Anchor-0"/>
    </contour>
    <contour>
      <point x="71" y="0" type="line"/>
      <point x="71" y="739" type="line"/>
      <point x="208" y="739" type="line"/>
      <point x="208" y="131" type="line"/>
      <point x="434" y="131" type="line"/>
      <point x="434" y="0" type="line"/>
    </contour>
  </outline>
</glyph>
<glyph name="P" format="1">
  <advance width="573"/>
  <unicode hex="0050"/>
  <outline>
    <contour>
      <point x="287" y="805" type="move" name="Anchor-0"/>
    </contour>
    <contour>
      <point x="71" y="0" type="line"/>
      <point x="71" y="739" type="line"/>
      <point x="254" y="739" type="line" smooth="yes"/>
      <point x="355" y="739"/>
      <point x="405" y="729"/>
      <point x="449" y="701" type="curve" smooth="yes"/>
      <point x="509" y="662"/>
      <point x="543" y="594"/>
      <point x="543" y="511" type="curve" smooth="yes"/>
      <point x="543" y="423"/>
      <point x="504" y="347"/>
      <point x="440" y="311" type="curve" smooth="yes"/>
      <point x="400" y="289"/>
      <point x="353" y="281"/>
      <point x="252" y="281" type="curve" smooth="yes"/>
      <point x="208" y="281" type="line"/>
      <point x="208" y="0" type="line"/>
    </contour>
    <contour>
      <point x="208" y="412" type="line"/>
      <point x="248" y="412" type="line" smooth="yes"/>
      <point x="288" y="412"/>
      <point x="320" y="415"/>
      <point x="342" y="422" type="curve" smooth="yes"/>
      <point x="381" y="433"/>
      <point x="405" y="466"/>
      <point x="405" y="508" type="curve" smooth="yes"/>
      <point x="405" y="555"/>
      <point x="381" y="590"/>
      <point x="341" y="601" type="curve" smooth="yes"/>
      <point x="320" y="606"/>
      <point x="299" y="608"/>
      <point x="254" y="608" type="curve" smooth="yes"/>
      <point x="208" y="608" type="line"/>
    </contour>
  </outline>
</glyph>
<glyph name="Q" format="1">
  <advance width="864"/>
  <unicode hex="0051"/>
  <outline>
    <contour>
      <point x="428" y="805" type="move" name="Anchor-0"/>
    </contour>
    <contour>
      <point x="834" y="110" type="curve"/>
      <point x="834" y="-14" type="line"/>
      <point x="826" y="-15"/>
      <point x="819" y="-15"/>
      <point x="815" y="-15" type="curve" smooth="yes"/>
      <point x="752" y="-15"/>
      <point x="704" y="2"/>
      <point x="641" y="45" type="curve"/>
      <point x="588" y="9"/>
      <point x="511" y="-13"/>
      <point x="437" y="-13" type="curve" smooth="yes"/>
      <point x="213" y="-13"/>
      <point x="36" y="156"/>
      <point x="36" y="370" type="curve" smooth="yes"/>
      <point x="36" y="585"/>
      <point x="208" y="752"/>
      <point x="429" y="752" type="curve" smooth="yes"/>
      <point x="654" y="752"/>
      <point x="821" y="587"/>
      <point x="821" y="366" type="curve" smooth="yes"/>
      <point x="821" y="268"/>
      <point x="792" y="192"/>
      <point x="732" y="129" type="curve"/>
      <point x="763" y="113"/>
      <point x="782" y="107"/>
      <point x="806" y="107" type="curve" smooth="yes"/>
      <point x="815" y="107"/>
      <point x="821" y="108"/>
    </contour>
    <contour>
      <point x="525" y="138" type="curve"/>
      <point x="439" y="207"/>
      <point x="369" y="235"/>
      <point x="288" y="235" type="curve" smooth="yes"/>
      <point x="263" y="235"/>
      <point x="248" y="233"/>
      <point x="217" y="227" type="curve"/>
      <point x="274" y="153"/>
      <point x="343" y="119"/>
      <point x="436" y="119" type="curve" smooth="yes"/>
      <point x="474" y="119"/>
      <point x="494" y="123"/>
    </contour>
    <contour>
      <point x="623" y="204" type="curve"/>
      <point x="663" y="245"/>
      <point x="683" y="297"/>
      <point x="683" y="364" type="curve" smooth="yes"/>
      <point x="683" y="511"/>
      <point x="574" y="620"/>
      <point x="428" y="620" type="curve" smooth="yes"/>
      <point x="282" y="620"/>
      <point x="173" y="512"/>
      <point x="173" y="368" type="curve" smooth="yes"/>
      <point x="173" y="359"/>
      <point x="173" y="351"/>
      <point x="175" y="334" type="curve"/>
      <point x="210" y="343"/>
      <point x="244" y="347"/>
      <point x="289" y="347" type="curve" smooth="yes"/>
      <point x="407" y="347"/>
      <point x="533" y="293"/>
    </contour>
  </outline>
</glyph>
<glyph name="R" format="1">
  <advance width="604"/>
  <unicode hex="0052"/>
  <outline>
    <contour>
      <point x="290" y="805" type="move" name="Anchor-0"/>
    </contour>
    <contour>
      <point x="71" y="0" type="line"/>
      <point x="71" y="739" type="line"/>
      <point x="284" y="739" type="line" smooth="yes"/>
      <point x="388" y="739"/>
      <point x="442" y="724"/>
      <point x="491" y="680" type="curve" smooth="yes"/>
      <point x="539" y="637"/>
      <point x="564" y="576"/>
      <point x="564" y="502" type="curve" smooth="yes"/>
      <point x="564" y="427"/>
      <point x="537" y="367"/>
      <point x="484" y="324" type="curve" smooth="yes"/>
      <point x="453" y="299"/>
      <point x="426" y="287"/>
      <point x="371" y="273" type="curve"/>
      <point x="571" y="0" type="line"/>
      <point x="402" y="0" type="line"/>
      <point x="208" y="283" type="line"/>
      <point x="208" y="0" type="line"/>
    </contour>
    <contour>
      <point x="208" y="386" type="line"/>
      <point x="275" y="386" type="line" smooth="yes"/>
      <point x="381" y="386"/>
      <point x="426" y="420"/>
      <point x="426" y="498" type="curve" smooth="yes"/>
      <point x="426" y="535"/>
      <point x="413" y="565"/>
      <point x="388" y="584" type="curve" smooth="yes"/>
      <point x="366" y="601"/>
      <point x="331" y="608"/>
      <point x="269" y="608" type="curve" smooth="yes"/>
      <point x="208" y="608" type="line"/>
    </contour>
  </outline>
</glyph>
<glyph name="U" format="1">
  <advance width="641"/>
  <unicode hex="0055"/>
  <outline>
    <contour>
      <point x="320" y="805" type="move" name="Anchor-0"/>
    </contour>
    <contour>
      <point x="71" y="739" type="line"/>
      <point x="208" y="739" type="line"/>
      <point x="208" y="271" type="line" smooth="yes"/>
      <point x="208" y="216"/>
      <point x="212" y="193"/>
      <point x="226" y="169" type="curve" smooth="yes"/>
      <point x="245" y="138"/>
      <point x="280" y="119"/>
      <point x="320" y="119" type="curve" smooth="yes"/>
      <point x="361" y="119"/>
      <point x="396" y="138"/>
      <point x="415" y="169" type="curve" smooth="yes"/>
      <point x="429" y="193"/>
      <point x="433" y="216"/>
      <point x="433" y="271" type="curve" smooth="yes"/>
      <point x="433" y="739" type="line"/>
      <point x="570" y="739" type="line"/>
      <point x="570" y="271" type="line" smooth="yes"/>
      <point x="570" y="182"/>
      <point x="554" y="126"/>
      <point x="517" y="78" type="curve" smooth="yes"/>
      <point x="472" y="21"/>
      <point x="398" y="-13"/>
      <point x="320" y="-13" type="curve" smooth="yes"/>
      <point x="231" y="-13"/>
      <point x="150" y="31"/>
      <point x="108" y="102" type="curve" smooth="yes"/>
      <point x="82" y="146"/>
      <point x="71" y="195"/>
      <point x="71" y="271" type="curve" smooth="yes"/>
    </contour>
  </outline>
</glyph>
<glyph name="V" format="1">
  <advance width="694"/>
  <unicode hex="0056"/>
  <outline>
    <contour>
      <point x="347" y="805" type="move" name="Anchor-0"/>
    </contour>
    <contour>
      <point x="292" y="0" type="line"/>
      <point x="4" y="739" type="line"/>
      <point x="148" y="739" type="line"/>
      <point x="347" y="177" type="line"/>
      <point x="546" y="739" type="line"/>
      <point x="690" y="739" type="line"/>
      <point x="404" y="0" type="line"/>
    </contour>
  </outline>
</glyph>
<glyph name="W" format="1">
  <advance width="915"/>
  <unicode hex="0057"/>
  <outline>
    <contour>
      <point x="457" y="805" type="move" name="Anchor-0"/>
    </contour>
    <contour>
      <point x="229" y="0" type="line"/>
      <point x="12" y="739" type="line"/>
      <point x="152" y="739" type="line"/>
      <point x="282" y="223" type="line"/>
      <point x="408" y="739" type="line"/>
      <point x="508" y="739" type="line"/>
      <point x="632" y="223" type="line"/>
      <point x="763" y="739" type="line"/>
      <point x="903" y="739" type="line"/>
      <point x="687" y="0" type="line"/>
      <point x="578" y="0" type="line"/>
      <point x="459" y="489" type="line"/>
      <point x="337" y="0" type="line"/>
    </contour>
  </outline>
</glyph>
<glyph name="Z" format="1">
  <advance width="522"/>
  <unicode hex="005A"/>
  <outline>
    <contour>
      <point x="259" y="805" type="move" name="Anchor-0"/>
    </contour>
    <contour>
      <point x="30" y="116" type="line"/>
      <point x="310" y="608" type="line"/>
      <point x="45" y="608" type="line"/>
      <point x="45" y="739" type="line"/>
      <point x="473" y="739" type="line"/>
      <point x="473" y="616" type="line"/>
      <point x="195" y="131" type="line"/>
      <point x="492" y="131" type="line"/>
      <point x="492" y="0" type="line"/>
      <point x="30" y="0" type="line"/>
    </contour>
  </outline>
</glyph>
<glyph name="bracketleft" format="1">
  <advance width="313"/>
  <unicode hex="005B"/>
  <outline>
    <contour>
      <point x="276" y="739" type="curve"/>
      <point x="276" y="592" type="line"/>
      <point x="240" y="577"/>
      <point x="224" y="563"/>
      <point x="213" y="539" type="curve" smooth="yes"/>
      <point x="200" y="510"/>
      <point x="193" y="469"/>
      <point x="193" y="419" type="curve" smooth="yes"/>
      <point x="193" y="164" type="line" smooth="yes"/>
      <point x="193" y="124"/>
      <point x="200" y="89"/>
      <point x="213" y="62" type="curve" smooth="yes"/>
      <point x="225" y="37"/>
      <point x="241" y="24"/>
      <point x="276" y="10" type="curve"/>
      <point x="276" y="-137" type="line"/>
      <point x="195" y="-119"/>
      <point x="143" y="-83"/>
      <point x="103" y="-17" type="curve" smooth="yes"/>
      <point x="73" y="34"/>
      <point x="58" y="99"/>
      <point x="58" y="187" type="curve" smooth="yes"/>
      <point x="58" y="446" type="line" smooth="yes"/>
      <point x="58" y="541"/>
      <point x="84" y="612"/>
      <point x="139" y="666" type="curve" smooth="yes"/>
      <point x="174" y="702"/>
      <point x="206" y="719"/>
    </contour>
  </outline>
</glyph>
<glyph name="backslash" format="1">
  <advance width="481"/>
  <unicode hex="005C"/>
  <outline>
    <contour>
      <point x="450" y="0" type="line"/>
      <point x="356" y="0" type="line"/>
      <point x="31" y="739" type="line"/>
      <point x="125" y="739" type="line"/>
    </contour>
  </outline>
</glyph>
<glyph name="bracketright" format="1">
  <advance width="313"/>
  <unicode hex="005D"/>
  <outline>
    <contour>
      <point x="37" y="-137" type="curve"/>
      <point x="37" y="10" type="line"/>
      <point x="73" y="25"/>
      <point x="89" y="39"/>
      <point x="100" y="63" type="curve" smooth="yes"/>
      <point x="113" y="92"/>
      <point x="120" y="133"/>
      <point x="120" y="183" type="curve" smooth="yes"/>
      <point x="120" y="438" type="line" smooth="yes"/>
      <point x="120" y="478"/>
      <point x="113" y="513"/>
      <point x="100" y="540" type="curve" smooth="yes"/>
      <point x="88" y="565"/>
      <point x="72" y="578"/>
      <point x="37" y="592" type="curve"/>
      <point x="37" y="739" type="line"/>
      <point x="118" y="721"/>
      <point x="170" y="685"/>
      <point x="210" y="619" type="curve" smooth="yes"/>
      <point x="240" y="568"/>
      <point x="255" y="503"/>
      <point x="255" y="415" type="curve" smooth="yes"/>
      <point x="255" y="156" type="line" smooth="yes"/>
      <point x="255" y="61"/>
      <point x="229" y="-10"/>
      <point x="175" y="-64" type="curve" smooth="yes"/>
      <point x="140" y="-99"/>
      <point x="107" y="-117"/>
    </contour>
  </outline>
</glyph>
<glyph name="asciicircum" format="1">
  <advance width="600"/>
  <unicode hex="005E"/>
  <outline>
    <contour>
      <point x="164" y="313" type="line"/>
      <point x="60" y="363" type="line"/>
      <point x="239" y="739" type="line"/>
      <point x="361" y="739" type="line"/>
      <point x="540" y="363" type="line"/>
      <point x="436" y="313" type="line"/>
      <point x="300" y="589" type="line"/>
    </contour>
  </outline>
</glyph>
<glyph name="grave" format="1">
  <advance width="407"/>
  <unicode hex="0060"/>
  <outline>
    <contour>
      <point x="64" y="737" type="line"/>
      <point x="121" y="825" type="line"/>
      <point x="343" y="692" type="line"/>
      <point x="290" y="613" type="line"/>
    </contour>
  </outline>
</glyph>
<glyph name="b" format="1">
  <advance width="666"/>
  <unicode hex="0062"/>
  <outline>
    <contour>
      <point x="328" y="805" type="move" name="Anchor-0"/>
    </contour>
    <contour>
      <point x="54" y="0" type="line"/>
      <point x="54" y="739" type="line"/>
      <point x="187" y="739" type="line"/>
      <point x="187" y="503" type="line"/>
      <point x="239" y="554"/>
      <point x="286" y="574"/>
      <point x="359" y="574" type="curve" smooth="yes"/>
      <point x="519" y="574"/>
      <point x="638" y="449"/>
      <point x="638" y="281" type="curve" smooth="yes"/>
      <point x="638" y="207"/>
      <point x="615" y="138"/>
      <point x="573" y="84" type="curve" smooth="yes"/>
      <point x="522" y="19"/>
      <point x="454" y="-13"/>
      <point x="368" y="-13" type="curve" smooth="yes"/>
      <point x="286" y="-13"/>
      <point x="233" y="10"/>
      <point x="176" y="71" type="curve"/>
      <point x="176" y="0" type="line"/>
    </contour>
    <contour>
      <point x="338" y="452" type="curve" smooth="yes"/>
      <point x="245" y="452"/>
      <point x="179" y="380"/>
      <point x="179" y="279" type="curve" smooth="yes"/>
      <point x="179" y="180"/>
      <point x="247" y="109"/>
      <point x="343" y="109" type="curve" smooth="yes"/>
      <point x="438" y="109"/>
      <point x="504" y="178"/>
      <point x="504" y="279" type="curve" smooth="yes"/>
      <point x="504" y="381"/>
      <point x="436" y="452"/>
    </contour>
  </outline>
</glyph>
<glyph name="d" format="1">
  <advance width="665"/>
  <unicode hex="0064"/>
  <outline>
    <contour>
      <point x="324" y="805" type="move" name="Anchor-0"/>
    </contour>
    <contour>
      <point x="611" y="739" type="line"/>
      <point x="611" y="0" type="line"/>
      <point x="489" y="0" type="line"/>
      <point x="489" y="72" type="line"/>
      <point x="435" y="12"/>
      <point x="381" y="-13"/>
      <point x="306" y="-13" type="curve" smooth="yes"/>
      <point x="149" y="-13"/>
      <point x="28" y="113"/>
      <point x="28" y="278" type="curve" smooth="yes"/>
      <point x="28" y="444"/>
      <point x="150" y="574"/>
      <point x="305" y="574" type="curve" smooth="yes"/>
      <point x="375" y="574"/>
      <point x="439" y="548"/>
      <point x="478" y="505" type="curve"/>
      <point x="478" y="739" type="line"/>
    </contour>
    <contour>
      <point x="322" y="452" type="curve" smooth="yes"/>
      <point x="232" y="452"/>
      <point x="162" y="378"/>
      <point x="162" y="282" type="curve" smooth="yes"/>
      <point x="162" y="185"/>
      <point x="235" y="109"/>
      <point x="327" y="109" type="curve" smooth="yes"/>
      <point x="417" y="109"/>
      <point x="488" y="184"/>
      <point x="488" y="279" type="curve" smooth="yes"/>
      <point x="488" y="379"/>
      <point x="418" y="452"/>
    </contour>
  </outline>
</glyph>
<glyph name="h" format="1">
  <advance width="597"/>
  <unicode hex="0068"/>
  <outline>
    <contour>
      <point x="294" y="805" type="move" name="Anchor-0"/>
    </contour>
    <contour>
      <point x="54" y="0" type="line"/>
      <point x="54" y="739" type="line"/>
      <point x="187" y="739" type="line"/>
      <point x="187" y="516" type="line"/>
      <point x="227" y="552"/>
      <point x="270" y="568"/>
      <point x="328" y="568" type="curve" smooth="yes"/>
      <point x="409" y="568"/>
      <point x="475" y="535"/>
      <point x="511" y="476" type="curve" smooth="yes"/>
      <point x="536" y="435"/>
      <point x="545" y="391"/>
      <point x="545" y="313" type="curve" smooth="yes"/>
      <point x="545" y="0" type="line"/>
      <point x="412" y="0" type="line"/>
      <point x="412" y="283" type="line" smooth="yes"/>
      <point x="412" y="400"/>
      <point x="382" y="445"/>
      <point x="304" y="445" type="curve" smooth="yes"/>
      <point x="258" y="445"/>
      <point x="224" y="426"/>
      <point x="205" y="389" type="curve" smooth="yes"/>
      <point x="192" y="365"/>
      <point x="187" y="334"/>
      <point x="187" y="281" type="curve" smooth="yes"/>
      <point x="187" y="0" type="line"/>
    </contour>
  </outline>
</glyph>
<glyph name="p" format="1">
  <advance width="662"/>
  <unicode hex="0070"/>
  <outline>
    <contour>
      <point x="328" y="630" type="move" name="Anchor-0"/>
    </contour>
    <contour>
      <point x="54" y="-185" type="line"/>
      <point x="54" y="554" type="line"/>
      <point x="176" y="554" type="line"/>
      <point x="176" y="489" type="line"/>
      <point x="219" y="540"/>
      <point x="283" y="567"/>
      <point x="358" y="567" type="curve" smooth="yes"/>
      <point x="518" y="567"/>
      <point x="634" y="446"/>
      <point x="634" y="279" type="curve" smooth="yes"/>
      <point x="634" y="111"/>
      <point x="517" y="-13"/>
      <point x="357" y="-13" type="curve" smooth="yes"/>
      <point x="289" y="-13"/>
      <point x="238" y="7"/>
      <point x="187" y="52" type="curve"/>
      <point x="187" y="-185" type="line"/>
    </contour>
    <contour>
      <point x="338" y="445" type="curve" smooth="yes"/>
      <point x="248" y="445"/>
      <point x="179" y="372"/>
      <point x="179" y="275" type="curve" smooth="yes"/>
      <point x="179" y="181"/>
      <point x="250" y="109"/>
      <point x="342" y="109" type="curve" smooth="yes"/>
      <point x="431" y="109"/>
      <point x="500" y="182"/>
      <point x="500" y="276" type="curve" smooth="yes"/>
      <point x="500" y="373"/>
      <point x="432" y="445"/>
    </contour>
  </outline>
</glyph>
<glyph name="q" format="1">
  <advance width="663"/>
  <unicode hex="0071"/>
  <outline>
    <contour>
      <point x="347" y="630" type="move" name="Anchor-0"/>
    </contour>
    <contour>
      <point x="487" y="554" type="line"/>
      <point x="609" y="554" type="line"/>
      <point x="609" y="-185" type="line"/>
      <point x="476" y="-185" type="line"/>
      <point x="476" y="53" type="line"/>
      <point x="432" y="9"/>
      <point x="377" y="-13"/>
      <point x="309" y="-13" type="curve" smooth="yes"/>
      <point x="150" y="-13"/>
      <point x="28" y="114"/>
      <point x="28" y="279" type="curve" smooth="yes"/>
      <point x="28" y="440"/>
      <point x="151" y="567"/>
      <point x="307" y="567" type="curve" smooth="yes"/>
      <point x="388" y="567"/>
      <point x="443" y="541"/>
      <point x="487" y="483" type="curve"/>
    </contour>
    <contour>
      <point x="322" y="445" type="curve" smooth="yes"/>
      <point x="232" y="445"/>
      <point x="162" y="371"/>
      <point x="162" y="276" type="curve" smooth="yes"/>
      <point x="162" y="180"/>
      <point x="231" y="109"/>
      <point x="325" y="109" type="curve" smooth="yes"/>
      <point x="416" y="109"/>
      <point x="484" y="179"/>
      <point x="484" y="275" type="curve" smooth="yes"/>
      <point x="484" y="374"/>
      <point x="417" y="445"/>
    </contour>
  </outline>
</glyph>
<glyph name="r" format="1">
  <advance width="330"/>
  <unicode hex="0072"/>
  <outline>
    <contour>
      <point x="175" y="630" type="move" name="Anchor-0"/>
    </contour>
    <contour>
      <point x="54" y="0" type="line"/>
      <point x="54" y="554" type="line"/>
      <point x="176" y="554" type="line"/>
      <point x="176" y="500" type="line"/>
      <point x="211" y="552"/>
      <point x="239" y="567"/>
      <point x="296" y="567" type="curve" smooth="yes"/>
      <point x="306" y="567" type="line"/>
      <point x="306" y="439" type="line"/>
      <point x="226" y="437"/>
      <point x="187" y="394"/>
      <point x="187" y="308" type="curve" smooth="yes"/>
      <point x="187" y="0" type="line"/>
    </contour>
  </outline>
</glyph>
<glyph name="s" format="1">
  <advance width="438"/>
  <unicode hex="0073"/>
  <outline>
    <contour>
      <point x="220" y="630" type="move" name="Anchor-0"/>
    </contour>
    <contour>
      <point x="15" y="176" type="curve"/>
      <point x="149" y="176" type="line"/>
      <point x="162" y="129"/>
      <point x="184" y="109"/>
      <point x="223" y="109" type="curve" smooth="yes"/>
      <point x="258" y="109"/>
      <point x="283" y="132"/>
      <point x="283" y="163" type="curve" smooth="yes"/>
      <point x="283" y="181"/>
      <point x="274" y="196"/>
      <point x="258" y="206" type="curve" smooth="yes"/>
      <point x="244" y="215"/>
      <point x="239" y="217"/>
      <point x="189" y="234" type="curve" smooth="yes"/>
      <point x="78" y="271"/>
      <point x="35" y="317"/>
      <point x="35" y="398" type="curve" smooth="yes"/>
      <point x="35" y="493"/>
      <point x="115" y="567"/>
      <point x="219" y="567" type="curve" smooth="yes"/>
      <point x="276" y="567"/>
      <point x="330" y="543"/>
      <point x="365" y="502" type="curve" smooth="yes"/>
      <point x="389" y="473"/>
      <point x="399" y="446"/>
      <point x="401" y="401" type="curve"/>
      <point x="271" y="401" type="line"/>
      <point x="265" y="430"/>
      <point x="247" y="445"/>
      <point x="219" y="445" type="curve" smooth="yes"/>
      <point x="190" y="445"/>
      <point x="168" y="425"/>
      <point x="168" y="398" type="curve" smooth="yes"/>
      <point x="168" y="382"/>
      <point x="177" y="369"/>
      <point x="194" y="361" type="curve" smooth="yes"/>
      <point x="208" y="355"/>
      <point x="208" y="355"/>
      <point x="262" y="338" type="curve" smooth="yes"/>
      <point x="374" y="304"/>
      <point x="416" y="260"/>
      <point x="416" y="176" type="curve" smooth="yes"/>
      <point x="416" y="70"/>
      <point x="329" y="-13"/>
      <point x="218" y="-13" type="curve" smooth="yes"/>
      <point x="149" y="-13"/>
      <point x="85" y="18"/>
      <point x="50" y="67" type="curve" smooth="yes"/>
      <point x="29" y="97"/>
      <point x="20" y="124"/>
    </contour>
  </outline>
</glyph>
<glyph name="t" format="1">
  <advance width="303"/>
  <unicode hex="0074"/>
  <outline>
    <contour>
      <point x="144" y="805" type="move" name="Anchor-0"/>
    </contour>
    <contour>
      <point x="78" y="0" type="line"/>
      <point x="78" y="433" type="line"/>
      <point x="13" y="433" type="line"/>
      <point x="13" y="554" type="line"/>
      <point x="78" y="554" type="line"/>
      <point x="78" y="739" type="line"/>
      <point x="211" y="739" type="line"/>
      <point x="211" y="554" type="line"/>
      <point x="291" y="554" type="line"/>
      <point x="291" y="433" type="line"/>
      <point x="211" y="433" type="line"/>
      <point x="211" y="0" type="line"/>
    </contour>
  </outline>
</glyph>
<glyph name="u" format="1">
  <advance width="599"/>
  <unicode hex="0075"/>
  <outline>
    <contour>
      <point x="298" y="630" type="move" name="Anchor-0"/>
    </contour>
    <contour>
      <point x="545" y="554" type="line"/>
      <point x="545" y="0" type="line"/>
      <point x="422" y="0" type="line"/>
      <point x="422" y="53" type="line"/>
      <point x="371" y="4"/>
      <point x="330" y="-13"/>
      <point x="263" y="-13" type="curve" smooth="yes"/>
      <point x="188" y="-13"/>
      <point x="127" y="18"/>
      <point x="91" y="74" type="curve" smooth="yes"/>
      <point x="62" y="119"/>
      <point x="52" y="166"/>
      <point x="52" y="257" type="curve" smooth="yes"/>
      <point x="52" y="554" type="line"/>
      <point x="185" y="554" type="line"/>
      <point x="185" y="283" type="line" smooth="yes"/>
      <point x="185" y="206"/>
      <point x="193" y="167"/>
      <point x="213" y="142" type="curve" smooth="yes"/>
      <point x="232" y="120"/>
      <point x="256" y="109"/>
      <point x="290" y="109" type="curve" smooth="yes"/>
      <point x="336" y="109"/>
      <point x="374" y="128"/>
      <point x="393" y="162" type="curve" smooth="yes"/>
      <point x="407" y="187"/>
      <point x="412" y="222"/>
      <point x="412" y="293" type="curve" smooth="yes"/>
      <point x="412" y="554" type="line"/>
    </contour>
  </outline>
</glyph>
<glyph name="v" format="1">
  <advance width="558"/>
  <unicode hex="0076"/>
  <outline>
    <contour>
      <point x="279" y="630" type="move" name="Anchor-0"/>
    </contour>
    <contour>
      <point x="226" y="0" type="line"/>
      <point x="3" y="554" type="line"/>
      <point x="151" y="554" type="line"/>
      <point x="279" y="187" type="line"/>
      <point x="405" y="554" type="line"/>
      <point x="555" y="554" type="line"/>
      <point x="332" y="0" type="line"/>
    </contour>
  </outline>
</glyph>
<glyph name="w" format="1">
  <advance width="781"/>
  <unicode hex="0077"/>
  <outline>
    <contour>
      <point x="390" y="630" type="move" name="Anchor-0"/>
    </contour>
    <contour>
      <point x="201" y="0" type="line"/>
      <point x="3" y="554" type="line"/>
      <point x="146" y="554" type="line"/>
      <point x="245" y="216" type="line"/>
      <point x="338" y="554" type="line"/>
      <point x="444" y="554" type="line"/>
      <point x="535" y="216" type="line"/>
      <point x="636" y="554" type="line"/>
      <point x="778" y="554" type="line"/>
      <point x="578" y="0" type="line"/>
      <point x="495" y="0" type="line"/>
      <point x="390" y="359" type="line"/>
      <point x="283" y="0" type="line"/>
    </contour>
  </outline>
</glyph>
<glyph name="x" format="1">
  <advance width="558"/>
  <unicode hex="0078"/>
  <outline>
    <contour>
      <point x="279" y="630" type="move" name="Anchor-0"/>
    </contour>
    <contour>
      <point x="3" y="0" type="line"/>
      <point x="199" y="286" type="line"/>
      <point x="29" y="554" type="line"/>
      <point x="179" y="554" type="line"/>
      <point x="279" y="387" type="line"/>
      <point x="377" y="554" type="line"/>
      <point x="527" y="554" type="line"/>
      <point x="358" y="286" type="line"/>
      <point x="555" y="0" type="line"/>
      <point x="395" y="0" type="line"/>
      <point x="279" y="190" type="line"/>
      <point x="163" y="0" type="line"/>
    </contour>
  </outline>
</glyph>
<glyph name="z" format="1">
  <advance width="482"/>
  <unicode hex="007A"/>
  <outline>
    <contour>
      <point x="241" y="630" type="move" name="Anchor-0"/>
    </contour>
    <contour>
      <point x="30" y="0" type="line"/>
      <point x="30" y="119" type="line"/>
      <point x="274" y="435" type="line"/>
      <point x="58" y="435" type="line"/>
      <point x="58" y="554" type="line"/>
      <point x="433" y="554" type="line"/>
      <point x="433" y="435" type="line"/>
      <point x="189" y="119" type="line"/>
      <point x="452" y="119" type="line"/>
      <point x="452" y="0" type="line"/>
    </contour>
  </outline>
</glyph>
<glyph name="braceleft" format="1">
  <advance width="335"/>
  <unicode hex="007B"/>
  <outline>
    <contour>
      <point x="226" y="557" type="curve" smooth="yes"/>
      <point x="226" y="434" type="line" smooth="yes"/>
      <point x="226" y="356"/>
      <point x="203" y="323"/>
      <point x="136" y="305" type="curve"/>
      <point x="202" y="289"/>
      <point x="226" y="255"/>
      <point x="226" y="177" type="curve" smooth="yes"/>
      <point x="226" y="54" type="line" smooth="yes"/>
      <point x="226" y="-31"/>
      <point x="234" y="-42"/>
      <point x="305" y="-48" type="curve"/>
      <point x="305" y="-128" type="line"/>
      <point x="289" y="-129"/>
      <point x="272" y="-129"/>
      <point x="262" y="-129" type="curve" smooth="yes"/>
      <point x="163" y="-129"/>
      <point x="121" y="-87"/>
      <point x="121" y="10" type="curve" smooth="yes"/>
      <point x="121" y="167" type="line" smooth="yes"/>
      <point x="121" y="227"/>
      <point x="96" y="258"/>
      <point x="40" y="265" type="curve"/>
      <point x="40" y="346" type="line"/>
      <point x="96" y="353"/>
      <point x="121" y="384"/>
      <point x="121" y="444" type="curve" smooth="yes"/>
      <point x="121" y="601" type="line" smooth="yes"/>
      <point x="121" y="698"/>
      <point x="163" y="740"/>
      <point x="262" y="740" type="curve" smooth="yes"/>
      <point x="272" y="740"/>
      <point x="289" y="740"/>
      <point x="305" y="739" type="curve"/>
      <point x="305" y="659" type="line"/>
      <point x="234" y="653"/>
      <point x="226" y="642"/>
    </contour>
  </outline>
</glyph>
<glyph name="braceright" format="1">
  <advance width="335"/>
  <unicode hex="007D"/>
  <outline>
    <contour>
      <point x="109" y="54" type="curve" smooth="yes"/>
      <point x="109" y="177" type="line" smooth="yes"/>
      <point x="109" y="255"/>
      <point x="132" y="288"/>
      <point x="199" y="306" type="curve"/>
      <point x="133" y="322"/>
      <point x="109" y="356"/>
      <point x="109" y="434" type="curve" smooth="yes"/>
      <point x="109" y="557" type="line" smooth="yes"/>
      <point x="109" y="642"/>
      <point x="101" y="653"/>
      <point x="30" y="659" type="curve"/>
      <point x="30" y="739" type="line"/>
      <point x="46" y="740"/>
      <point x="63" y="740"/>
      <point x="73" y="740" type="curve" smooth="yes"/>
      <point x="172" y="740"/>
      <point x="214" y="698"/>
      <point x="214" y="601" type="curve" smooth="yes"/>
      <point x="214" y="444" type="line" smooth="yes"/>
      <point x="214" y="384"/>
      <point x="239" y="353"/>
      <point x="295" y="346" type="curve"/>
      <point x="295" y="265" type="line"/>
      <point x="239" y="258"/>
      <point x="214" y="227"/>
      <point x="214" y="167" type="curve" smooth="yes"/>
      <point x="214" y="10" type="line" smooth="yes"/>
      <point x="214" y="-87"/>
      <point x="172" y="-129"/>
      <point x="73" y="-129" type="curve" smooth="yes"/>
      <point x="63" y="-129"/>
      <point x="46" y="-129"/>
      <point x="30" y="-128" type="curve"/>
      <point x="30" y="-48" type="line"/>
      <point x="101" y="-42"/>
      <point x="109" y="-31"/>
    </contour>
  </outline>
</glyph>
<glyph name="asciitilde" format="1">
  <advance width="600"/>
  <unicode hex="007E"/>
  <outline>
    <contour>
      <point x="488" y="421" type="curve"/>
      <point x="552" y="347" type="line"/>
      <point x="500" y="262"/>
      <point x="461" y="230"/>
      <point x="407" y="230" type="curve" smooth="yes"/>
      <point x="386" y="230"/>
      <point x="352" y="239"/>
      <point x="316" y="254" type="curve" smooth="yes"/>
      <point x="262" y="276" type="line" smooth="yes"/>
      <point x="226" y="291"/>
      <point x="213" y="295"/>
      <point x="198" y="295" type="curve" smooth="yes"/>
      <point x="179" y="295"/>
      <point x="163" y="287"/>
      <point x="149" y="271" type="curve" smooth="yes"/>
      <point x="145" y="266"/>
      <point x="145" y="266"/>
      <point x="118" y="224" type="curve" smooth="yes"/>
      <point x="115" y="221"/>
      <point x="113" y="217"/>
      <point x="111" y="214" type="curve" smooth="yes"/>
      <point x="48" y="289" type="line"/>
      <point x="72" y="330"/>
      <point x="80" y="342"/>
      <point x="96" y="361" type="curve" smooth="yes"/>
      <point x="121" y="393"/>
      <point x="158" y="412"/>
      <point x="196" y="412" type="curve" smooth="yes"/>
      <point x="220" y="412"/>
      <point x="248" y="406"/>
      <point x="273" y="396" type="curve" smooth="yes"/>
      <point x="340" y="369" type="line" smooth="yes"/>
      <point x="394" y="347"/>
      <point x="394" y="347"/>
      <point x="411" y="347" type="curve" smooth="yes"/>
      <point x="434" y="347"/>
      <point x="463" y="374"/>
    </contour>
  </outline>
</glyph>
<glyph name="exclamdown" format="1">
  <advance width="321"/>
  <unicode hex="00A1"/>
  <outline>
    <contour>
      <point x="227" y="366" type="line"/>
      <point x="227" y="-185" type="line"/>
      <point x="94" y="-185" type="line"/>
      <point x="94" y="366" type="line"/>
    </contour>
    <contour>
      <point x="227" y="554" type="line"/>
      <point x="227" y="426" type="line"/>
      <point x="94" y="426" type="line"/>
      <point x="94" y="554" type="line"/>
    </contour>
  </outline>
</glyph>
<glyph name="cent" format="1">
  <advance width="560"/>
  <unicode hex="00A2"/>
  <outline>
    <contour>
      <point x="348" y="39" type="line"/>
      <point x="223" y="39" type="line"/>
      <point x="223" y="148" type="line"/>
      <point x="173" y="159"/>
      <point x="141" y="177"/>
      <point x="108" y="213" type="curve" smooth="yes"/>
      <point x="67" y="256"/>
      <point x="44" y="318"/>
      <point x="44" y="381" type="curve" smooth="yes"/>
      <point x="44" y="449"/>
      <point x="72" y="514"/>
      <point x="121" y="559" type="curve" smooth="yes"/>
      <point x="151" y="586"/>
      <point x="177" y="599"/>
      <point x="223" y="611" type="curve"/>
      <point x="223" y="715" type="line"/>
      <point x="348" y="715" type="line"/>
      <point x="348" y="611" type="line"/>
      <point x="434" y="590"/>
      <point x="498" y="525"/>
      <point x="516" y="443" type="curve"/>
      <point x="374" y="443" type="line"/>
      <point x="354" y="471"/>
      <point x="318" y="489"/>
      <point x="281" y="489" type="curve" smooth="yes"/>
      <point x="221" y="489"/>
      <point x="177" y="442"/>
      <point x="177" y="379" type="curve" smooth="yes"/>
      <point x="177" y="316"/>
      <point x="223" y="270"/>
      <point x="285" y="270" type="curve" smooth="yes"/>
      <point x="319" y="270"/>
      <point x="345" y="282"/>
      <point x="370" y="310" type="curve"/>
      <point x="516" y="310" type="line"/>
      <point x="482" y="221"/>
      <point x="428" y="169"/>
      <point x="348" y="148" type="curve"/>
    </contour>
  </outline>
</glyph>
<glyph name="sterling" format="1">
  <advance width="560"/>
  <unicode hex="00A3"/>
  <outline>
    <contour>
      <point x="41" y="0" type="line"/>
      <point x="41" y="125" type="line"/>
      <point x="180" y="125" type="line"/>
      <point x="193" y="147"/>
      <point x="200" y="171"/>
      <point x="200" y="197" type="curve" smooth="yes"/>
      <point x="200" y="239"/>
      <point x="184" y="270"/>
      <point x="142" y="310" type="curve"/>
      <point x="0" y="310" type="line"/>
      <point x="0" y="435" type="line"/>
      <point x="58" y="435" type="line"/>
      <point x="46" y="462"/>
      <point x="41" y="485"/>
      <point x="41" y="516" type="curve" smooth="yes"/>
      <point x="41" y="648"/>
      <point x="146" y="752"/>
      <point x="280" y="752" type="curve" smooth="yes"/>
      <point x="408" y="752"/>
      <point x="503" y="666"/>
      <point x="514" y="541" type="curve"/>
      <point x="379" y="541" type="line"/>
      <point x="365" y="598"/>
      <point x="329" y="630"/>
      <point x="281" y="630" type="curve" smooth="yes"/>
      <point x="221" y="630"/>
      <point x="174" y="578"/>
      <point x="174" y="511" type="curve" smooth="yes"/>
      <point x="174" y="481"/>
      <point x="182" y="457"/>
      <point x="201" y="435" type="curve"/>
      <point x="408" y="435" type="line"/>
      <point x="408" y="310" type="line"/>
      <point x="301" y="310" type="line"/>
      <point x="325" y="264"/>
      <point x="333" y="236"/>
      <point x="333" y="200" type="curve" smooth="yes"/>
      <point x="333" y="178"/>
      <point x="328" y="149"/>
      <point x="320" y="125" type="curve"/>
      <point x="350" y="125"/>
      <point x="368" y="129"/>
      <point x="384" y="138" type="curve" smooth="yes"/>
      <point x="413" y="155"/>
      <point x="430" y="186"/>
      <point x="430" y="220" type="curve" smooth="yes"/>
      <point x="430" y="237"/>
      <point x="428" y="249"/>
      <point x="420" y="274" type="curve"/>
      <point x="552" y="274" type="line"/>
      <point x="560" y="253"/>
      <point x="563" y="240"/>
      <point x="563" y="222" type="curve" smooth="yes"/>
      <point x="563" y="157"/>
      <point x="535" y="95"/>
      <point x="488" y="54" type="curve" smooth="yes"/>
      <point x="441" y="14"/>
      <point x="393" y="0"/>
      <point x="301" y="0" type="curve" smooth="yes"/>
    </contour>
  </outline>
</glyph>
<glyph name="currency" format="1">
  <advance width="560"/>
  <unicode hex="00A4"/>
  <outline>
    <contour>
      <point x="27" y="574" type="line"/>
      <point x="107" y="654" type="line"/>
      <point x="152" y="610" type="line"/>
      <point x="194" y="635"/>
      <point x="233" y="646"/>
      <point x="280" y="646" type="curve" smooth="yes"/>
      <point x="327" y="646"/>
      <point x="369" y="635"/>
      <point x="412" y="610" type="curve"/>
      <point x="457" y="653" type="line"/>
      <point x="534" y="572" type="line"/>
      <point x="492" y="529" type="line"/>
      <point x="521" y="479"/>
      <point x="529" y="450"/>
      <point x="529" y="399" type="curve" smooth="yes"/>
      <point x="529" y="348"/>
      <point x="520" y="317"/>
      <point x="491" y="271" type="curve"/>
      <point x="533" y="228" type="line"/>
      <point x="456" y="148" type="line"/>
      <point x="412" y="190" type="line"/>
      <point x="371" y="166"/>
      <point x="326" y="153"/>
      <point x="281" y="153" type="curve" smooth="yes"/>
      <point x="236" y="153"/>
      <point x="190" y="166"/>
      <point x="150" y="190" type="curve"/>
      <point x="106" y="148" type="line"/>
      <point x="27" y="229" type="line"/>
      <point x="69" y="272" type="line"/>
      <point x="40" y="327"/>
      <point x="33" y="351"/>
      <point x="33" y="400" type="curve" smooth="yes"/>
      <point x="33" y="450"/>
      <point x="40" y="473"/>
      <point x="69" y="529" type="curve"/>
    </contour>
    <contour>
      <point x="281" y="526" type="curve" smooth="yes"/>
      <point x="211" y="526"/>
      <point x="153" y="469"/>
      <point x="153" y="401" type="curve" smooth="yes"/>
      <point x="153" y="330"/>
      <point x="211" y="273"/>
      <point x="281" y="273" type="curve" smooth="yes"/>
      <point x="351" y="273"/>
      <point x="407" y="329"/>
      <point x="407" y="398" type="curve" smooth="yes"/>
      <point x="407" y="470"/>
      <point x="352" y="526"/>
    </contour>
  </outline>
</glyph>
<glyph name="yen" format="1">
  <advance width="560"/>
  <unicode hex="00A5"/>
  <outline>
    <contour>
      <point x="211" y="0" type="line"/>
      <point x="211" y="187" type="line"/>
      <point x="15" y="187" type="line"/>
      <point x="15" y="275" type="line"/>
      <point x="211" y="275" type="line"/>
      <point x="155" y="380" type="line"/>
      <point x="15" y="380" type="line"/>
      <point x="15" y="468" type="line"/>
      <point x="109" y="468" type="line"/>
      <point x="-32" y="739" type="line"/>
      <point x="117" y="739" type="line"/>
      <point x="277" y="398" type="line"/>
      <point x="438" y="739" type="line"/>
      <point x="592" y="739" type="line"/>
      <point x="449" y="468" type="line"/>
      <point x="541" y="468" type="line"/>
      <point x="541" y="380" type="line"/>
      <point x="401" y="380" type="line"/>
      <point x="344" y="275" type="line"/>
      <point x="541" y="275" type="line"/>
      <point x="541" y="187" type="line"/>
      <point x="344" y="187" type="line"/>
      <point x="344" y="0" type="line"/>
    </contour>
  </outline>
</glyph>
<glyph name="brokenbar" format="1">
  <advance width="600"/>
  <unicode hex="00A6"/>
  <outline>
    <contour>
      <point x="359" y="739" type="line"/>
      <point x="359" y="437" type="line"/>
      <point x="240" y="437" type="line"/>
      <point x="240" y="739" type="line"/>
    </contour>
    <contour>
      <point x="359" y="302" type="line"/>
      <point x="359" y="0" type="line"/>
      <point x="240" y="0" type="line"/>
      <point x="240" y="302" type="line"/>
    </contour>
  </outline>
</glyph>
<glyph name="section" format="1">
  <advance width="560"/>
  <unicode hex="00A7"/>
  <outline>
    <contour>
      <point x="492" y="563" type="curve"/>
      <point x="366" y="563" type="line"/>
      <point x="357" y="610"/>
      <point x="331" y="630"/>
      <point x="280" y="630" type="curve" smooth="yes"/>
      <point x="238" y="630"/>
      <point x="212" y="612"/>
      <point x="212" y="581" type="curve" smooth="yes"/>
      <point x="212" y="555"/>
      <point x="233" y="531"/>
      <point x="273" y="512" type="curve" smooth="yes"/>
      <point x="437" y="431" type="line" smooth="yes"/>
      <point x="490" y="405"/>
      <point x="524" y="351"/>
      <point x="524" y="292" type="curve" smooth="yes"/>
      <point x="524" y="237"/>
      <point x="497" y="186"/>
      <point x="449" y="150" type="curve"/>
      <point x="485" y="114"/>
      <point x="499" y="79"/>
      <point x="499" y="31" type="curve" smooth="yes"/>
      <point x="499" y="-79"/>
      <point x="410" y="-157"/>
      <point x="284" y="-157" type="curve" smooth="yes"/>
      <point x="206" y="-157"/>
      <point x="143" y="-128"/>
      <point x="101" y="-75" type="curve" smooth="yes"/>
      <point x="72" y="-38"/>
      <point x="60" y="-4"/>
      <point x="55" y="55" type="curve"/>
      <point x="189" y="55" type="line"/>
      <point x="189" y="31"/>
      <point x="190" y="23"/>
      <point x="196" y="10" type="curve" smooth="yes"/>
      <point x="211" y="-18"/>
      <point x="244" y="-35"/>
      <point x="285" y="-35" type="curve" smooth="yes"/>
      <point x="335" y="-35"/>
      <point x="372" y="-8"/>
      <point x="372" y="30" type="curve" smooth="yes"/>
      <point x="372" y="59"/>
      <point x="358" y="73"/>
      <point x="299" y="103" type="curve" smooth="yes"/>
      <point x="136" y="187" type="line" smooth="yes"/>
      <point x="68" y="221"/>
      <point x="35" y="274"/>
      <point x="35" y="347" type="curve" smooth="yes"/>
      <point x="35" y="409"/>
      <point x="58" y="452"/>
      <point x="113" y="493" type="curve"/>
      <point x="93" y="523"/>
      <point x="85" y="550"/>
      <point x="85" y="586" type="curve" smooth="yes"/>
      <point x="85" y="684"/>
      <point x="167" y="752"/>
      <point x="286" y="752" type="curve" smooth="yes"/>
      <point x="406" y="752"/>
      <point x="476" y="687"/>
    </contour>
    <contour>
      <point x="340" y="339" type="curve" smooth="yes"/>
      <point x="191" y="413" type="line"/>
      <point x="163" y="391"/>
      <point x="152" y="375"/>
      <point x="152" y="354" type="curve" smooth="yes"/>
      <point x="152" y="331"/>
      <point x="169" y="313"/>
      <point x="212" y="291" type="curve" smooth="yes"/>
      <point x="363" y="215" type="line"/>
      <point x="386" y="231"/>
      <point x="400" y="255"/>
      <point x="400" y="278" type="curve" smooth="yes"/>
      <point x="400" y="302"/>
      <point x="388" y="314"/>
    </contour>
  </outline>
</glyph>
<glyph name="dieresis" format="1">
  <advance width="471"/>
  <unicode hex="00A8"/>
  <outline>
    <contour>
      <point x="64" y="630" type="line"/>
      <point x="64" y="763" type="line"/>
      <point x="197" y="763" type="line"/>
      <point x="197" y="630" type="line"/>
    </contour>
    <contour>
      <point x="274" y="630" type="line"/>
      <point x="274" y="763" type="line"/>
      <point x="407" y="763" type="line"/>
      <point x="407" y="630" type="line"/>
    </contour>
  </outline>
</glyph>
<glyph name="copyright" format="1">
  <advance width="791"/>
  <unicode hex="00A9"/>
  <outline>
    <contour>
      <point x="499" y="320" type="curve"/>
      <point x="610" y="320" type="line"/>
      <point x="586" y="222"/>
      <point x="502" y="157"/>
      <point x="401" y="157" type="curve" smooth="yes"/>
      <point x="279" y="157"/>
      <point x="183" y="252"/>
      <point x="183" y="372" type="curve" smooth="yes"/>
      <point x="183" y="493"/>
      <point x="278" y="587"/>
      <point x="400" y="587" type="curve" smooth="yes"/>
      <point x="502" y="587"/>
      <point x="594" y="515"/>
      <point x="610" y="422" type="curve"/>
      <point x="499" y="422" type="line"/>
      <point x="483" y="466"/>
      <point x="444" y="494"/>
      <point x="399" y="494" type="curve" smooth="yes"/>
      <point x="336" y="494"/>
      <point x="288" y="442"/>
      <point x="288" y="373" type="curve" smooth="yes"/>
      <point x="288" y="304"/>
      <point x="336" y="250"/>
      <point x="399" y="250" type="curve" smooth="yes"/>
      <point x="443" y="250"/>
      <point x="477" y="274"/>
    </contour>
    <contour>
      <point x="400" y="752" type="curve" smooth="yes"/>
      <point x="609" y="752"/>
      <point x="781" y="579"/>
      <point x="781" y="369" type="curve" smooth="yes"/>
      <point x="781" y="158"/>
      <point x="608" y="-13"/>
      <point x="396" y="-13" type="curve" smooth="yes"/>
      <point x="183" y="-13"/>
      <point x="10" y="158"/>
      <point x="10" y="369" type="curve" smooth="yes"/>
      <point x="10" y="583"/>
      <point x="182" y="752"/>
    </contour>
    <contour>
      <point x="392" y="675" type="curve" smooth="yes"/>
      <point x="227" y="675"/>
      <point x="90" y="537"/>
      <point x="90" y="370" type="curve" smooth="yes"/>
      <point x="90" y="203"/>
      <point x="227" y="67"/>
      <point x="395" y="67" type="curve" smooth="yes"/>
      <point x="564" y="67"/>
      <point x="701" y="203"/>
      <point x="701" y="369" type="curve" smooth="yes"/>
      <point x="701" y="540"/>
      <point x="565" y="675"/>
    </contour>
  </outline>
</glyph>
<glyph name="ordfeminine" format="1">
  <advance width="382"/>
  <unicode hex="00AA"/>
  <outline>
    <contour>
      <point x="340" y="739" type="line"/>
      <point x="340" y="441" type="line"/>
      <point x="274" y="441" type="line"/>
      <point x="274" y="482" type="line"/>
      <point x="249" y="449"/>
      <point x="213" y="431"/>
      <point x="172" y="431" type="curve" smooth="yes"/>
      <point x="92" y="431"/>
      <point x="30" y="501"/>
      <point x="30" y="592" type="curve" smooth="yes"/>
      <point x="30" y="681"/>
      <point x="95" y="750"/>
      <point x="177" y="750" type="curve" smooth="yes"/>
      <point x="216" y="750"/>
      <point x="248" y="734"/>
      <point x="274" y="700" type="curve"/>
      <point x="274" y="739" type="line"/>
    </contour>
    <contour>
      <point x="186" y="676" type="curve" smooth="yes"/>
      <point x="142" y="676"/>
      <point x="106" y="637"/>
      <point x="106" y="589" type="curve" smooth="yes"/>
      <point x="106" y="542"/>
      <point x="142" y="505"/>
      <point x="187" y="505" type="curve" smooth="yes"/>
      <point x="233" y="505"/>
      <point x="268" y="542"/>
      <point x="268" y="591" type="curve" smooth="yes"/>
      <point x="268" y="640"/>
      <point x="233" y="676"/>
    </contour>
    <contour>
      <point x="33" y="310" type="line"/>
      <point x="33" y="380" type="line"/>
      <point x="344" y="380" type="line"/>
      <point x="344" y="310" type="line"/>
    </contour>
  </outline>
</glyph>
<glyph name="guillemotleft" format="1">
  <advance width="460"/>
  <unicode hex="00AB"/>
  <outline>
    <contour>
      <point x="397" y="108" type="line"/>
      <point x="258" y="239" type="line"/>
      <point x="258" y="339" type="line"/>
      <point x="397" y="469" type="line"/>
      <point x="397" y="346" type="line"/>
      <point x="330" y="289" type="line"/>
      <point x="397" y="231" type="line"/>
    </contour>
    <contour>
      <point x="184" y="108" type="line"/>
      <point x="45" y="239" type="line"/>
      <point x="45" y="339" type="line"/>
      <point x="184" y="469" type="line"/>
      <point x="184" y="346" type="line"/>
      <point x="117" y="289" type="line"/>
      <point x="184" y="231" type="line"/>
    </contour>
  </outline>
</glyph>
<glyph name="logicalnot" format="1">
  <advance width="600"/>
  <unicode hex="00AC"/>
  <outline>
    <contour>
      <point x="44" y="473" type="line"/>
      <point x="548" y="473" type="line"/>
      <point x="548" y="182" type="line"/>
      <point x="434" y="182" type="line"/>
      <point x="434" y="359" type="line"/>
      <point x="44" y="359" type="line"/>
    </contour>
  </outline>
</glyph>
<glyph name="registered" format="1">
  <advance width="791"/>
  <unicode hex="00AE"/>
  <outline>
    <contour>
      <point x="251" y="166" type="line"/>
      <point x="251" y="579" type="line"/>
      <point x="382" y="579" type="line" smooth="yes"/>
      <point x="451" y="579"/>
      <point x="480" y="572"/>
      <point x="508" y="549" type="curve" smooth="yes"/>
      <point x="540" y="524"/>
      <point x="559" y="481"/>
      <point x="559" y="437" type="curve" smooth="yes"/>
      <point x="559" y="369"/>
      <point x="519" y="318"/>
      <point x="457" y="307" type="curve"/>
      <point x="569" y="166" type="line"/>
      <point x="448" y="166" type="line"/>
      <point x="352" y="300" type="line"/>
      <point x="352" y="166" type="line"/>
    </contour>
    <contour>
      <point x="352" y="372" type="line"/>
      <point x="389" y="372" type="line" smooth="yes"/>
      <point x="433" y="372"/>
      <point x="458" y="393"/>
      <point x="458" y="430" type="curve" smooth="yes"/>
      <point x="458" y="466"/>
      <point x="434" y="486"/>
      <point x="390" y="486" type="curve" smooth="yes"/>
      <point x="352" y="486" type="line"/>
    </contour>
    <contour>
      <point x="400" y="752" type="curve" smooth="yes"/>
      <point x="609" y="752"/>
      <point x="781" y="579"/>
      <point x="781" y="369" type="curve" smooth="yes"/>
      <point x="781" y="158"/>
      <point x="608" y="-13"/>
      <point x="396" y="-13" type="curve" smooth="yes"/>
      <point x="183" y="-13"/>
      <point x="10" y="158"/>
      <point x="10" y="369" type="curve" smooth="yes"/>
      <point x="10" y="583"/>
      <point x="182" y="752"/>
    </contour>
    <contour>
      <point x="392" y="675" type="curve" smooth="yes"/>
      <point x="227" y="675"/>
      <point x="90" y="537"/>
      <point x="90" y="370" type="curve" smooth="yes"/>
      <point x="90" y="203"/>
      <point x="227" y="67"/>
      <point x="395" y="67" type="curve" smooth="yes"/>
      <point x="564" y="67"/>
      <point x="701" y="203"/>
      <point x="701" y="369" type="curve" smooth="yes"/>
      <point x="701" y="540"/>
      <point x="565" y="675"/>
    </contour>
  </outline>
</glyph>
<glyph name="macron" format="1">
  <advance width="405"/>
  <unicode hex="00AF"/>
  <outline>
    <contour>
      <point x="64" y="648" type="line"/>
      <point x="64" y="748" type="line"/>
      <point x="341" y="748" type="line"/>
      <point x="341" y="648" type="line"/>
    </contour>
  </outline>
</glyph>
<glyph name="degree" format="1">
  <advance width="400"/>
  <unicode hex="00B0"/>
  <outline>
    <contour>
      <point x="204" y="686" type="curve" smooth="yes"/>
      <point x="286" y="686"/>
      <point x="350" y="619"/>
      <point x="350" y="533" type="curve" smooth="yes"/>
      <point x="350" y="447"/>
      <point x="284" y="380"/>
      <point x="200" y="380" type="curve" smooth="yes"/>
      <point x="116" y="380"/>
      <point x="50" y="448"/>
      <point x="50" y="534" type="curve" smooth="yes"/>
      <point x="50" y="619"/>
      <point x="117" y="686"/>
    </contour>
    <contour>
      <point x="200" y="629" type="curve" smooth="yes"/>
      <point x="148" y="629"/>
      <point x="106" y="585"/>
      <point x="106" y="533" type="curve" smooth="yes"/>
      <point x="106" y="480"/>
      <point x="148" y="437"/>
      <point x="200" y="437" type="curve" smooth="yes"/>
      <point x="252" y="437"/>
      <point x="293" y="479"/>
      <point x="293" y="533" type="curve" smooth="yes"/>
      <point x="293" y="587"/>
      <point x="252" y="629"/>
    </contour>
  </outline>
</glyph>
<glyph name="plusminus" format="1">
  <advance width="600"/>
  <unicode hex="00B1"/>
  <outline>
    <contour>
      <point x="240" y="458" type="line"/>
      <point x="240" y="653" type="line"/>
      <point x="360" y="653" type="line"/>
      <point x="360" y="458" type="line"/>
      <point x="552" y="458" type="line"/>
      <point x="552" y="340" type="line"/>
      <point x="360" y="340" type="line"/>
      <point x="360" y="175" type="line"/>
      <point x="240" y="175" type="line"/>
      <point x="240" y="340" type="line"/>
      <point x="48" y="340" type="line"/>
      <point x="48" y="458" type="line"/>
    </contour>
    <contour>
      <point x="552" y="118" type="line"/>
      <point x="552" y="0" type="line"/>
      <point x="48" y="0" type="line"/>
      <point x="48" y="118" type="line"/>
    </contour>
  </outline>
</glyph>
<glyph name="uni00B2" format="1">
  <advance width="336"/>
  <unicode hex="00B2"/>
  <outline>
    <contour>
      <point x="13" y="296" type="line"/>
      <point x="13" y="370" type="line"/>
      <point x="183" y="518" type="line" smooth="yes"/>
      <point x="224" y="555"/>
      <point x="238" y="576"/>
      <point x="238" y="603" type="curve" smooth="yes"/>
      <point x="238" y="640"/>
      <point x="209" y="668"/>
      <point x="170" y="668" type="curve" smooth="yes"/>
      <point x="125" y="668"/>
      <point x="98" y="637"/>
      <point x="97" y="582" type="curve"/>
      <point x="10" y="582" type="line"/>
      <point x="10" y="629"/>
      <point x="17" y="657"/>
      <point x="38" y="685" type="curve" smooth="yes"/>
      <point x="65" y="724"/>
      <point x="115" y="747"/>
      <point x="169" y="747" type="curve" smooth="yes"/>
      <point x="259" y="747"/>
      <point x="326" y="685"/>
      <point x="326" y="601" type="curve" smooth="yes"/>
      <point x="326" y="549"/>
      <point x="296" y="498"/>
      <point x="237" y="451" type="curve" smooth="yes"/>
      <point x="143" y="376" type="line"/>
      <point x="324" y="376" type="line"/>
      <point x="324" y="296" type="line"/>
    </contour>
  </outline>
</glyph>
<glyph name="uni00B3" format="1">
  <advance width="336"/>
  <unicode hex="00B3"/>
  <outline>
    <contour>
      <point x="127" y="506" type="line"/>
      <point x="127" y="588" type="line"/>
      <point x="188" y="589"/>
      <point x="210" y="600"/>
      <point x="210" y="630" type="curve" smooth="yes"/>
      <point x="210" y="652"/>
      <point x="192" y="668"/>
      <point x="167" y="668" type="curve" smooth="yes"/>
      <point x="141" y="668"/>
      <point x="130" y="657"/>
      <point x="125" y="628" type="curve"/>
      <point x="36" y="628" type="line"/>
      <point x="40" y="669"/>
      <point x="48" y="689"/>
      <point x="71" y="710" type="curve" smooth="yes"/>
      <point x="95" y="733"/>
      <point x="129" y="746"/>
      <point x="166" y="746" type="curve" smooth="yes"/>
      <point x="242" y="746"/>
      <point x="298" y="695"/>
      <point x="298" y="625" type="curve" smooth="yes"/>
      <point x="298" y="593"/>
      <point x="286" y="568"/>
      <point x="264" y="551" type="curve"/>
      <point x="306" y="531"/>
      <point x="330" y="491"/>
      <point x="330" y="439" type="curve" smooth="yes"/>
      <point x="330" y="352"/>
      <point x="262" y="288"/>
      <point x="169" y="288" type="curve" smooth="yes"/>
      <point x="75" y="288"/>
      <point x="8" y="348"/>
      <point x="3" y="435" type="curve"/>
      <point x="91" y="435" type="line"/>
      <point x="97" y="392"/>
      <point x="126" y="367"/>
      <point x="169" y="367" type="curve" smooth="yes"/>
      <point x="212" y="367"/>
      <point x="243" y="396"/>
      <point x="243" y="436" type="curve" smooth="yes"/>
      <point x="243" y="479"/>
      <point x="206" y="506"/>
      <point x="148" y="506" type="curve" smooth="yes"/>
    </contour>
  </outline>
</glyph>
<glyph name="acute" format="1">
  <advance width="406"/>
  <unicode hex="00B4"/>
  <outline>
    <contour>
      <point x="115" y="613" type="line"/>
      <point x="64" y="691" type="line"/>
      <point x="288" y="825" type="line"/>
      <point x="342" y="733" type="line"/>
    </contour>
  </outline>
</glyph>
<glyph name="mu" format="1">
  <advance width="601"/>
  <unicode hex="00B5"/>
  <outline>
    <contour>
      <point x="187" y="52" type="curve"/>
      <point x="187" y="-185" type="line"/>
      <point x="54" y="-185" type="line"/>
      <point x="54" y="554" type="line"/>
      <point x="187" y="554" type="line"/>
      <point x="187" y="293" type="line" smooth="yes"/>
      <point x="187" y="211"/>
      <point x="190" y="192"/>
      <point x="211" y="162" type="curve" smooth="yes"/>
      <point x="234" y="128"/>
      <point x="268" y="109"/>
      <point x="306" y="109" type="curve" smooth="yes"/>
      <point x="345" y="109"/>
      <point x="380" y="129"/>
      <point x="397" y="162" type="curve" smooth="yes"/>
      <point x="409" y="187"/>
      <point x="414" y="222"/>
      <point x="414" y="293" type="curve" smooth="yes"/>
      <point x="414" y="554" type="line"/>
      <point x="547" y="554" type="line"/>
      <point x="547" y="0" type="line"/>
      <point x="424" y="0" type="line"/>
      <point x="424" y="53" type="line"/>
      <point x="384" y="5"/>
      <point x="351" y="-13"/>
      <point x="300" y="-13" type="curve" smooth="yes"/>
      <point x="253" y="-13"/>
      <point x="220" y="6"/>
    </contour>
  </outline>
</glyph>
<glyph name="paragraph" format="1">
  <advance width="600"/>
  <unicode hex="00B6"/>
  <outline>
    <contour>
      <point x="241" y="-128" type="line"/>
      <point x="241" y="330" type="line"/>
      <point x="119" y="332"/>
      <point x="37" y="414"/>
      <point x="37" y="533" type="curve" smooth="yes"/>
      <point x="37" y="612"/>
      <point x="75" y="678"/>
      <point x="140" y="711" type="curve" smooth="yes"/>
      <point x="177" y="729"/>
      <point x="234" y="739"/>
      <point x="309" y="739" type="curve" smooth="yes"/>
      <point x="527" y="739" type="line"/>
      <point x="527" y="-128" type="line"/>
      <point x="426" y="-128" type="line"/>
      <point x="426" y="632" type="line"/>
      <point x="342" y="632" type="line"/>
      <point x="342" y="-128" type="line"/>
    </contour>
  </outline>
</glyph>
<glyph name="periodcentered" format="1">
  <advance width="281"/>
  <unicode hex="00B7"/>
  <outline>
    <contour>
      <point x="74" y="300" type="line"/>
      <point x="74" y="433" type="line"/>
      <point x="207" y="433" type="line"/>
      <point x="207" y="300" type="line"/>
    </contour>
  </outline>
</glyph>
<glyph name="cedilla" format="1">
  <advance width="324"/>
  <unicode hex="00B8"/>
  <outline>
    <contour>
      <point x="109" y="0" type="line"/>
      <point x="161" y="0" type="line"/>
      <point x="140" y="-58" type="line"/>
      <point x="153" y="-53"/>
      <point x="160" y="-51"/>
      <point x="169" y="-51" type="curve" smooth="yes"/>
      <point x="219" y="-51"/>
      <point x="260" y="-97"/>
      <point x="260" y="-152" type="curve" smooth="yes"/>
      <point x="260" y="-211"/>
      <point x="221" y="-251"/>
      <point x="164" y="-251" type="curve" smooth="yes"/>
      <point x="113" y="-251"/>
      <point x="72" y="-216"/>
      <point x="64" y="-166" type="curve"/>
      <point x="125" y="-166" type="line"/>
      <point x="134" y="-186"/>
      <point x="146" y="-196"/>
      <point x="163" y="-196" type="curve" smooth="yes"/>
      <point x="185" y="-196"/>
      <point x="202" y="-175"/>
      <point x="202" y="-150" type="curve" smooth="yes"/>
      <point x="202" y="-126"/>
      <point x="185" y="-106"/>
      <point x="164" y="-106" type="curve" smooth="yes"/>
      <point x="149" y="-106"/>
      <point x="139" y="-113"/>
      <point x="125" y="-133" type="curve"/>
      <point x="73" y="-107" type="line"/>
    </contour>
  </outline>
</glyph>
<glyph name="uni00B9" format="1">
  <advance width="336"/>
  <unicode hex="00B9"/>
  <outline>
    <contour>
      <point x="140" y="296" type="line"/>
      <point x="140" y="659" type="line"/>
      <point x="81" y="659" type="line"/>
      <point x="81" y="739" type="line"/>
      <point x="228" y="739" type="line"/>
      <point x="228" y="296" type="line"/>
    </contour>
  </outline>
</glyph>
<glyph name="ordmasculine" format="1">
  <advance width="367"/>
  <unicode hex="00BA"/>
  <outline>
    <contour>
      <point x="186" y="750" type="curve" smooth="yes"/>
      <point x="269" y="750"/>
      <point x="337" y="681"/>
      <point x="337" y="597" type="curve" smooth="yes"/>
      <point x="337" y="511"/>
      <point x="269" y="442"/>
      <point x="184" y="442" type="curve" smooth="yes"/>
      <point x="99" y="442"/>
      <point x="30" y="512"/>
      <point x="30" y="598" type="curve" smooth="yes"/>
      <point x="30" y="683"/>
      <point x="99" y="750"/>
    </contour>
    <contour>
      <point x="182" y="680" type="curve" smooth="yes"/>
      <point x="139" y="680"/>
      <point x="103" y="643"/>
      <point x="103" y="598" type="curve" smooth="yes"/>
      <point x="103" y="551"/>
      <point x="137" y="516"/>
      <point x="184" y="516" type="curve" smooth="yes"/>
      <point x="230" y="516"/>
      <point x="264" y="551"/>
      <point x="264" y="598" type="curve" smooth="yes"/>
      <point x="264" y="643"/>
      <point x="227" y="680"/>
    </contour>
    <contour>
      <point x="30" y="311" type="line"/>
      <point x="30" y="381" type="line"/>
      <point x="337" y="381" type="line"/>
      <point x="337" y="311" type="line"/>
    </contour>
  </outline>
</glyph>
<glyph name="guillemotright" format="1">
  <advance width="460"/>
  <unicode hex="00BB"/>
  <outline>
    <contour>
      <point x="63" y="108" type="line"/>
      <point x="63" y="231" type="line"/>
      <point x="130" y="289" type="line"/>
      <point x="63" y="346" type="line"/>
      <point x="63" y="469" type="line"/>
      <point x="202" y="339" type="line"/>
      <point x="202" y="239" type="line"/>
    </contour>
    <contour>
      <point x="276" y="108" type="line"/>
      <point x="276" y="231" type="line"/>
      <point x="343" y="289" type="line"/>
      <point x="276" y="346" type="line"/>
      <point x="276" y="469" type="line"/>
      <point x="415" y="339" type="line"/>
      <point x="415" y="239" type="line"/>
    </contour>
  </outline>
</glyph>
<glyph name="onequarter" format="1">
  <advance width="840"/>
  <unicode hex="00BC"/>
  <outline>
    <contour>
      <point x="177" y="0" type="line"/>
      <point x="483" y="739" type="line"/>
      <point x="578" y="739" type="line"/>
      <point x="272" y="0" type="line"/>
    </contour>
    <contour>
      <point x="463" y="133" type="line"/>
      <point x="671" y="443" type="line"/>
      <point x="745" y="443" type="line"/>
      <point x="745" y="142" type="line"/>
      <point x="793" y="142" type="line"/>
      <point x="793" y="66" type="line"/>
      <point x="745" y="66" type="line"/>
      <point x="745" y="0" type="line"/>
      <point x="657" y="0" type="line"/>
      <point x="657" y="66" type="line"/>
      <point x="463" y="66" type="line"/>
    </contour>
    <contour>
      <point x="657" y="142" type="line"/>
      <point x="657" y="296" type="line"/>
      <point x="555" y="142" type="line"/>
    </contour>
    <contour>
      <point x="110" y="296" type="line"/>
      <point x="110" y="659" type="line"/>
      <point x="51" y="659" type="line"/>
      <point x="51" y="739" type="line"/>
      <point x="198" y="739" type="line"/>
      <point x="198" y="296" type="line"/>
    </contour>
  </outline>
</glyph>
<glyph name="onehalf" format="1">
  <advance width="840"/>
  <unicode hex="00BD"/>
  <outline>
    <contour>
      <point x="152" y="0" type="line"/>
      <point x="458" y="739" type="line"/>
      <point x="553" y="739" type="line"/>
      <point x="247" y="0" type="line"/>
    </contour>
    <contour>
      <point x="106" y="296" type="line"/>
      <point x="106" y="659" type="line"/>
      <point x="47" y="659" type="line"/>
      <point x="47" y="739" type="line"/>
      <point x="194" y="739" type="line"/>
      <point x="194" y="296" type="line"/>
    </contour>
    <contour>
      <point x="470" y="0" type="line"/>
      <point x="470" y="74" type="line"/>
      <point x="640" y="222" type="line" smooth="yes"/>
      <point x="681" y="259"/>
      <point x="695" y="280"/>
      <point x="695" y="307" type="curve" smooth="yes"/>
      <point x="695" y="344"/>
      <point x="666" y="372"/>
      <point x="627" y="372" type="curve" smooth="yes"/>
      <point x="582" y="372"/>
      <point x="555" y="341"/>
      <point x="554" y="286" type="curve"/>
      <point x="467" y="286" type="line"/>
      <point x="467" y="334"/>
      <point x="475" y="361"/>
      <point x="495" y="389" type="curve" smooth="yes"/>
      <point x="522" y="428"/>
      <point x="572" y="451"/>
      <point x="626" y="451" type="curve" smooth="yes"/>
      <point x="716" y="451"/>
      <point x="783" y="389"/>
      <point x="783" y="305" type="curve" smooth="yes"/>
      <point x="783" y="253"/>
      <point x="753" y="202"/>
      <point x="694" y="155" type="curve" smooth="yes"/>
      <point x="600" y="80" type="line"/>
      <point x="781" y="80" type="line"/>
      <point x="781" y="0" type="line"/>
    </contour>
  </outline>
</glyph>
<glyph name="threequarters" format="1">
  <advance width="840"/>
  <unicode hex="00BE"/>
  <outline>
    <contour>
      <point x="252" y="0" type="line"/>
      <point x="558" y="739" type="line"/>
      <point x="653" y="739" type="line"/>
      <point x="347" y="0" type="line"/>
    </contour>
    <contour>
      <point x="508" y="133" type="line"/>
      <point x="716" y="443" type="line"/>
      <point x="790" y="443" type="line"/>
      <point x="790" y="142" type="line"/>
      <point x="838" y="142" type="line"/>
      <point x="838" y="66" type="line"/>
      <point x="790" y="66" type="line"/>
      <point x="790" y="0" type="line"/>
      <point x="702" y="0" type="line"/>
      <point x="702" y="66" type="line"/>
      <point x="508" y="66" type="line"/>
    </contour>
    <contour>
      <point x="702" y="142" type="line"/>
      <point x="702" y="296" type="line"/>
      <point x="600" y="142" type="line"/>
    </contour>
    <contour>
      <point x="130" y="506" type="line"/>
      <point x="130" y="588" type="line"/>
      <point x="191" y="589"/>
      <point x="213" y="600"/>
      <point x="213" y="630" type="curve" smooth="yes"/>
      <point x="213" y="652"/>
      <point x="195" y="668"/>
      <point x="170" y="668" type="curve" smooth="yes"/>
      <point x="144" y="668"/>
      <point x="133" y="657"/>
      <point x="128" y="628" type="curve"/>
      <point x="39" y="628" type="line"/>
      <point x="43" y="669"/>
      <point x="51" y="689"/>
      <point x="74" y="710" type="curve" smooth="yes"/>
      <point x="98" y="733"/>
      <point x="132" y="746"/>
      <point x="169" y="746" type="curve" smooth="yes"/>
      <point x="245" y="746"/>
      <point x="301" y="695"/>
      <point x="301" y="625" type="curve" smooth="yes"/>
      <point x="301" y="593"/>
      <point x="289" y="568"/>
      <point x="267" y="551" type="curve"/>
      <point x="309" y="531"/>
      <point x="333" y="491"/>
      <point x="333" y="439" type="curve" smooth="yes"/>
      <point x="333" y="352"/>
      <point x="265" y="288"/>
      <point x="172" y="288" type="curve" smooth="yes"/>
      <point x="78" y="288"/>
      <point x="11" y="348"/>
      <point x="6" y="435" type="curve"/>
      <point x="94" y="435" type="line"/>
      <point x="100" y="392"/>
      <point x="129" y="367"/>
      <point x="172" y="367" type="curve" smooth="yes"/>
      <point x="215" y="367"/>
      <point x="246" y="396"/>
      <point x="246" y="436" type="curve" smooth="yes"/>
      <point x="246" y="479"/>
      <point x="209" y="506"/>
      <point x="151" y="506" type="curve" smooth="yes"/>
    </contour>
  </outline>
</glyph>
<glyph name="questiondown" format="1">
  <advance width="519"/>
  <unicode hex="00BF"/>
  <outline>
    <contour>
      <point x="202" y="367" type="line"/>
      <point x="335" y="367" type="line"/>
      <point x="335" y="352" type="line" smooth="yes"/>
      <point x="335" y="283"/>
      <point x="323" y="236"/>
      <point x="295" y="196" type="curve" smooth="yes"/>
      <point x="275" y="166"/>
      <point x="268" y="159"/>
      <point x="213" y="112" type="curve" smooth="yes"/>
      <point x="183" y="86"/>
      <point x="168" y="58"/>
      <point x="168" y="27" type="curve" smooth="yes"/>
      <point x="168" y="-27"/>
      <point x="208" y="-66"/>
      <point x="263" y="-66" type="curve" smooth="yes"/>
      <point x="317" y="-66"/>
      <point x="347" y="-33"/>
      <point x="355" y="34" type="curve"/>
      <point x="488" y="34" type="line"/>
      <point x="482" y="-35"/>
      <point x="468" y="-77"/>
      <point x="437" y="-115" type="curve" smooth="yes"/>
      <point x="394" y="-168"/>
      <point x="329" y="-198"/>
      <point x="260" y="-198" type="curve" smooth="yes"/>
      <point x="131" y="-198"/>
      <point x="35" y="-100"/>
      <point x="35" y="31" type="curve" smooth="yes"/>
      <point x="35" y="98"/>
      <point x="60" y="142"/>
      <point x="137" y="210" type="curve" smooth="yes"/>
      <point x="191" y="257"/>
      <point x="202" y="283"/>
      <point x="202" y="354" type="curve" smooth="yes"/>
    </contour>
    <contour>
      <point x="335" y="554" type="line"/>
      <point x="335" y="426" type="line"/>
      <point x="202" y="426" type="line"/>
      <point x="202" y="554" type="line"/>
    </contour>
  </outline>
</glyph>
<glyph name="Aacute" format="1">
  <advance width="740"/>
  <unicode hex="00C1"/>
  <outline>
    <contour>
      <point x="370" y="1015" type="move" name="Anchor-0"/>
    </contour>
    <contour>
      <point x="7" y="0" type="line"/>
      <point x="315" y="739" type="line"/>
      <point x="423" y="739" type="line"/>
      <point x="733" y="0" type="line"/>
      <point x="582" y="0" type="line"/>
      <point x="503" y="191" type="line"/>
      <point x="240" y="191" type="line"/>
      <point x="158" y="0" type="line"/>
    </contour>
    <contour>
      <point x="290" y="322" type="line"/>
      <point x="448" y="322" type="line"/>
      <point x="369" y="546" type="line"/>
    </contour>
    <contour>
      <point x="315" y="788" type="line"/>
      <point x="264" y="866" type="line"/>
      <point x="488" y="1000" type="line"/>
      <point x="542" y="908" type="line"/>
    </contour>
  </outline>
</glyph>
<glyph name="Acircumflex" format="1">
  <advance width="740"/>
  <unicode hex="00C2"/>
  <outline>
    <contour>
      <point x="370" y="1015" type="move" name="Anchor-0"/>
    </contour>
    <contour>
      <point x="7" y="0" type="line"/>
      <point x="315" y="739" type="line"/>
      <point x="423" y="739" type="line"/>
      <point x="733" y="0" type="line"/>
      <point x="582" y="0" type="line"/>
      <point x="503" y="191" type="line"/>
      <point x="240" y="191" type="line"/>
      <point x="158" y="0" type="line"/>
    </contour>
    <contour>
      <point x="290" y="322" type="line"/>
      <point x="448" y="322" type="line"/>
      <point x="369" y="546" type="line"/>
    </contour>
    <contour>
      <point x="171" y="805" type="line"/>
      <point x="318" y="943" type="line"/>
      <point x="425" y="943" type="line"/>
      <point x="570" y="805" type="line"/>
      <point x="425" y="805" type="line"/>
      <point x="372" y="869" type="line"/>
      <point x="318" y="805" type="line"/>
    </contour>
  </outline>
</glyph>
<glyph name="Atilde" format="1">
  <advance width="740"/>
  <unicode hex="00C3"/>
  <outline>
    <contour>
      <point x="370" y="1015" type="move" name="Anchor-0"/>
    </contour>
    <contour>
      <point x="7" y="0" type="line"/>
      <point x="315" y="739" type="line"/>
      <point x="423" y="739" type="line"/>
      <point x="733" y="0" type="line"/>
      <point x="582" y="0" type="line"/>
      <point x="503" y="191" type="line"/>
      <point x="240" y="191" type="line"/>
      <point x="158" y="0" type="line"/>
    </contour>
    <contour>
      <point x="290" y="322" type="line"/>
      <point x="448" y="322" type="line"/>
      <point x="369" y="546" type="line"/>
    </contour>
    <contour>
      <point x="259" y="811" type="curve"/>
      <point x="205" y="891" type="line"/>
      <point x="240" y="926"/>
      <point x="266" y="938"/>
      <point x="308" y="938" type="curve" smooth="yes"/>
      <point x="330" y="938"/>
      <point x="339" y="936"/>
      <point x="368" y="924" type="curve" smooth="yes"/>
      <point x="388" y="916"/>
      <point x="401" y="913"/>
      <point x="415" y="913" type="curve" smooth="yes"/>
      <point x="441" y="913"/>
      <point x="461" y="923"/>
      <point x="482" y="947" type="curve"/>
      <point x="536" y="866" type="line"/>
      <point x="504" y="827"/>
      <point x="477" y="811"/>
      <point x="442" y="811" type="curve" smooth="yes"/>
      <point x="427" y="811"/>
      <point x="409" y="815"/>
      <point x="383" y="824" type="curve" smooth="yes"/>
      <point x="356" y="834"/>
      <point x="346" y="836"/>
      <point x="329" y="836" type="curve" smooth="yes"/>
      <point x="303" y="836"/>
      <point x="297" y="834"/>
    </contour>
  </outline>
</glyph>
<glyph name="Adieresis" format="1">
  <advance width="740"/>
  <unicode hex="00C4"/>
  <outline>
    <contour>
      <point x="370" y="1015" type="move" name="Anchor-0"/>
    </contour>
    <contour>
      <point x="7" y="0" type="line"/>
      <point x="315" y="739" type="line"/>
      <point x="423" y="739" type="line"/>
      <point x="733" y="0" type="line"/>
      <point x="582" y="0" type="line"/>
      <point x="503" y="191" type="line"/>
      <point x="240" y="191" type="line"/>
      <point x="158" y="0" type="line"/>
    </contour>
    <contour>
      <point x="290" y="322" type="line"/>
      <point x="448" y="322" type="line"/>
      <point x="369" y="546" type="line"/>
    </contour>
    <contour>
      <point x="199" y="805" type="line"/>
      <point x="199" y="938" type="line"/>
      <point x="332" y="938" type="line"/>
      <point x="332" y="805" type="line"/>
    </contour>
    <contour>
      <point x="409" y="805" type="line"/>
      <point x="409" y="938" type="line"/>
      <point x="542" y="938" type="line"/>
      <point x="542" y="805" type="line"/>
    </contour>
  </outline>
</glyph>
<glyph name="Aring" format="1">
  <advance width="740"/>
  <unicode hex="00C5"/>
  <outline>
    <contour>
      <point x="370" y="1015" type="move" name="Anchor-0"/>
    </contour>
    <contour>
      <point x="7" y="0" type="line"/>
      <point x="315" y="739" type="line"/>
      <point x="423" y="739" type="line"/>
      <point x="733" y="0" type="line"/>
      <point x="582" y="0" type="line"/>
      <point x="503" y="191" type="line"/>
      <point x="240" y="191" type="line"/>
      <point x="158" y="0" type="line"/>
    </contour>
    <contour>
      <point x="290" y="322" type="line"/>
      <point x="448" y="322" type="line"/>
      <point x="369" y="546" type="line"/>
    </contour>
    <contour>
      <point x="371" y="991" type="curve" smooth="yes"/>
      <point x="427" y="991"/>
      <point x="473" y="944"/>
      <point x="473" y="888" type="curve" smooth="yes"/>
      <point x="473" y="831"/>
      <point x="427" y="785"/>
      <point x="370" y="785" type="curve" smooth="yes"/>
      <point x="313" y="785"/>
      <point x="267" y="831"/>
      <point x="267" y="888" type="curve" smooth="yes"/>
      <point x="267" y="945"/>
      <point x="313" y="991"/>
    </contour>
    <contour>
      <point x="369" y="924" type="curve" smooth="yes"/>
      <point x="350" y="924"/>
      <point x="334" y="908"/>
      <point x="334" y="888" type="curve" smooth="yes"/>
      <point x="334" y="868"/>
      <point x="350" y="852"/>
      <point x="370" y="852" type="curve" smooth="yes"/>
      <point x="390" y="852"/>
      <point x="406" y="868"/>
      <point x="406" y="888" type="curve" smooth="yes"/>
      <point x="406" y="908"/>
      <point x="390" y="924"/>
    </contour>
  </outline>
</glyph>
<glyph name="AE" format="1">
  <advance width="884"/>
  <unicode hex="00C6"/>
  <outline>
    <contour>
      <point x="470" y="805" type="move" name="Anchor-0"/>
    </contour>
    <contour>
      <point x="2" y="0" type="line"/>
      <point x="489" y="739" type="line"/>
      <point x="828" y="739" type="line"/>
      <point x="828" y="608" type="line"/>
      <point x="610" y="608" type="line"/>
      <point x="610" y="434" type="line"/>
      <point x="817" y="434" type="line"/>
      <point x="817" y="303" type="line"/>
      <point x="610" y="303" type="line"/>
      <point x="610" y="131" type="line"/>
      <point x="828" y="131" type="line"/>
      <point x="828" y="0" type="line"/>
      <point x="473" y="0" type="line"/>
      <point x="473" y="191" type="line"/>
      <point x="279" y="191" type="line"/>
      <point x="167" y="0" type="line"/>
    </contour>
    <contour>
      <point x="358" y="322" type="line"/>
      <point x="473" y="322" type="line"/>
      <point x="473" y="513" type="line"/>
    </contour>
  </outline>
</glyph>
<glyph name="Ccedilla" format="1">
  <advance width="802"/>
  <unicode hex="00C7"/>
  <outline>
    <contour>
      <point x="420" y="805" type="move" name="Anchor-0"/>
    </contour>
    <contour>
      <point x="405" y="-13" type="line"/>
      <point x="389" y="-58" type="line"/>
      <point x="402" y="-53"/>
      <point x="409" y="-51"/>
      <point x="418" y="-51" type="curve" smooth="yes"/>
      <point x="468" y="-51"/>
      <point x="509" y="-97"/>
      <point x="509" y="-152" type="curve" smooth="yes"/>
      <point x="509" y="-211"/>
      <point x="470" y="-251"/>
      <point x="413" y="-251" type="curve" smooth="yes"/>
      <point x="362" y="-251"/>
      <point x="321" y="-216"/>
      <point x="313" y="-166" type="curve"/>
      <point x="375" y="-166" type="line"/>
      <point x="383" y="-186"/>
      <point x="395" y="-196"/>
      <point x="412" y="-196" type="curve" smooth="yes"/>
      <point x="434" y="-196"/>
      <point x="451" y="-176"/>
      <point x="451" y="-150" type="curve" smooth="yes"/>
      <point x="451" y="-126"/>
      <point x="434" y="-106"/>
      <point x="413" y="-106" type="curve" smooth="yes"/>
      <point x="398" y="-106"/>
      <point x="388" y="-113"/>
      <point x="375" y="-133" type="curve"/>
      <point x="322" y="-107" type="line"/>
      <point x="355" y="-7" type="line"/>
      <point x="176" y="20"/>
      <point x="36" y="186"/>
      <point x="36" y="372" type="curve" smooth="yes"/>
      <point x="36" y="581"/>
      <point x="207" y="752"/>
      <point x="416" y="752" type="curve" smooth="yes"/>
      <point x="509" y="752"/>
      <point x="598" y="720"/>
      <point x="667" y="662" type="curve" smooth="yes"/>
      <point x="714" y="622"/>
      <point x="738" y="589"/>
      <point x="766" y="527" type="curve"/>
      <point x="613" y="527" type="line"/>
      <point x="563" y="592"/>
      <point x="505" y="620"/>
      <point x="419" y="620" type="curve" smooth="yes"/>
      <point x="343" y="620"/>
      <point x="280" y="592"/>
      <point x="235" y="539" type="curve" smooth="yes"/>
      <point x="197" y="495"/>
      <point x="174" y="431"/>
      <point x="174" y="371" type="curve" smooth="yes"/>
      <point x="174" y="233"/>
      <point x="285" y="119"/>
      <point x="422" y="119" type="curve" smooth="yes"/>
      <point x="493" y="119"/>
      <point x="544" y="143"/>
      <point x="605" y="206" type="curve"/>
      <point x="766" y="206" type="line"/>
      <point x="706" y="69"/>
      <point x="575" y="-13"/>
      <point x="419" y="-13" type="curve" smooth="yes"/>
    </contour>
  </outline>
</glyph>
<glyph name="Egrave" format="1">
  <advance width="524"/>
  <unicode hex="00C8"/>
  <outline>
    <contour>
      <point x="269" y="1015" type="move" name="Anchor-0"/>
    </contour>
    <contour>
      <point x="71" y="0" type="line"/>
      <point x="71" y="739" type="line"/>
      <point x="468" y="739" type="line"/>
      <point x="468" y="608" type="line"/>
      <point x="208" y="608" type="line"/>
      <point x="208" y="434" type="line"/>
      <point x="457" y="434" type="line"/>
      <point x="457" y="303" type="line"/>
      <point x="208" y="303" type="line"/>
      <point x="208" y="131" type="line"/>
      <point x="468" y="131" type="line"/>
      <point x="468" y="0" type="line"/>
    </contour>
    <contour>
      <point x="90" y="912" type="line"/>
      <point x="147" y="1000" type="line"/>
      <point x="369" y="867" type="line"/>
      <point x="316" y="788" type="line"/>
    </contour>
  </outline>
</glyph>
<glyph name="Eacute" format="1">
  <advance width="524"/>
  <unicode hex="00C9"/>
  <outline>
    <contour>
      <point x="269" y="1015" type="move" name="Anchor-0"/>
    </contour>
    <contour>
      <point x="71" y="0" type="line"/>
      <point x="71" y="739" type="line"/>
      <point x="468" y="739" type="line"/>
      <point x="468" y="608" type="line"/>
      <point x="208" y="608" type="line"/>
      <point x="208" y="434" type="line"/>
      <point x="457" y="434" type="line"/>
      <point x="457" y="303" type="line"/>
      <point x="208" y="303" type="line"/>
      <point x="208" y="131" type="line"/>
      <point x="468" y="131" type="line"/>
      <point x="468" y="0" type="line"/>
    </contour>
    <contour>
      <point x="228" y="788" type="line"/>
      <point x="177" y="866" type="line"/>
      <point x="401" y="1000" type="line"/>
      <point x="455" y="908" type="line"/>
    </contour>
  </outline>
</glyph>
<glyph name="Edieresis" format="1">
  <advance width="524"/>
  <unicode hex="00CB"/>
  <outline>
    <contour>
      <point x="269" y="1015" type="move" name="Anchor-0"/>
    </contour>
    <contour>
      <point x="71" y="0" type="line"/>
      <point x="71" y="739" type="line"/>
      <point x="468" y="739" type="line"/>
      <point x="468" y="608" type="line"/>
      <point x="208" y="608" type="line"/>
      <point x="208" y="434" type="line"/>
      <point x="457" y="434" type="line"/>
      <point x="457" y="303" type="line"/>
      <point x="208" y="303" type="line"/>
      <point x="208" y="131" type="line"/>
      <point x="468" y="131" type="line"/>
      <point x="468" y="0" type="line"/>
    </contour>
    <contour>
      <point x="98" y="805" type="line"/>
      <point x="98" y="938" type="line"/>
      <point x="231" y="938" type="line"/>
      <point x="231" y="805" type="line"/>
    </contour>
    <contour>
      <point x="308" y="805" type="line"/>
      <point x="308" y="938" type="line"/>
      <point x="441" y="938" type="line"/>
      <point x="441" y="805" type="line"/>
    </contour>
  </outline>
</glyph>
<glyph name="Icircumflex" format="1">
  <advance width="279"/>
  <unicode hex="00CE"/>
  <outline>
    <contour>
      <point x="139" y="1015" type="move" name="Anchor-0"/>
    </contour>
    <contour>
      <point x="71" y="0" type="line"/>
      <point x="71" y="739" type="line"/>
      <point x="208" y="739" type="line"/>
      <point x="208" y="0" type="line"/>
    </contour>
    <contour>
      <point x="-60" y="805" type="line"/>
      <point x="87" y="943" type="line"/>
      <point x="194" y="943" type="line"/>
      <point x="339" y="805" type="line"/>
      <point x="194" y="805" type="line"/>
      <point x="141" y="869" type="line"/>
      <point x="87" y="805" type="line"/>
    </contour>
  </outline>
</glyph>
<glyph name="Idieresis" format="1">
  <advance width="279"/>
  <unicode hex="00CF"/>
  <outline>
    <contour>
      <point x="139" y="1015" type="move" name="Anchor-0"/>
    </contour>
    <contour>
      <point x="71" y="0" type="line"/>
      <point x="71" y="739" type="line"/>
      <point x="208" y="739" type="line"/>
      <point x="208" y="0" type="line"/>
    </contour>
    <contour>
      <point x="-32" y="805" type="line"/>
      <point x="-32" y="938" type="line"/>
      <point x="101" y="938" type="line"/>
      <point x="101" y="805" type="line"/>
    </contour>
    <contour>
      <point x="178" y="805" type="line"/>
      <point x="178" y="938" type="line"/>
      <point x="311" y="938" type="line"/>
      <point x="311" y="805" type="line"/>
    </contour>
  </outline>
</glyph>
<glyph name="Eth" format="1">
  <advance width="744"/>
  <unicode hex="00D0"/>
  <outline>
    <contour>
      <point x="360" y="805" type="move" name="Anchor-0"/>
    </contour>
    <contour>
      <point x="116" y="0" type="line"/>
      <point x="116" y="315" type="line"/>
      <point x="20" y="315" type="line"/>
      <point x="20" y="422" type="line"/>
      <point x="116" y="422" type="line"/>
      <point x="116" y="739" type="line"/>
      <point x="285" y="739" type="line" smooth="yes"/>
      <point x="406" y="739"/>
      <point x="495" y="720"/>
      <point x="555" y="681" type="curve" smooth="yes"/>
      <point x="653" y="618"/>
      <point x="708" y="505"/>
      <point x="708" y="368" type="curve" smooth="yes"/>
      <point x="708" y="215"/>
      <point x="639" y="93"/>
      <point x="521" y="38" type="curve" smooth="yes"/>
      <point x="462" y="11"/>
      <point x="397" y="0"/>
      <point x="288" y="0" type="curve" smooth="yes"/>
    </contour>
    <contour>
      <point x="253" y="131" type="line"/>
      <point x="283" y="131" type="line" smooth="yes"/>
      <point x="365" y="131"/>
      <point x="422" y="141"/>
      <point x="464" y="164" type="curve" smooth="yes"/>
      <point x="529" y="200"/>
      <point x="570" y="279"/>
      <point x="570" y="368" type="curve" smooth="yes"/>
      <point x="570" y="465"/>
      <point x="525" y="545"/>
      <point x="452" y="581" type="curve" smooth="yes"/>
      <point x="410" y="601"/>
      <point x="365" y="608"/>
      <point x="280" y="608" type="curve" smooth="yes"/>
      <point x="253" y="608" type="line"/>
      <point x="253" y="422" type="line"/>
      <point x="407" y="422" type="line"/>
      <point x="407" y="315" type="line"/>
      <point x="253" y="315" type="line"/>
    </contour>
  </outline>
</glyph>
<glyph name="Ntilde" format="1">
  <advance width="741"/>
  <unicode hex="00D1"/>
  <outline>
    <contour>
      <point x="370" y="1015" type="move" name="Anchor-0"/>
    </contour>
    <contour>
      <point x="71" y="0" type="line"/>
      <point x="71" y="739" type="line"/>
      <point x="227" y="739" type="line"/>
      <point x="533" y="201" type="line"/>
      <point x="533" y="739" type="line"/>
      <point x="670" y="739" type="line"/>
      <point x="670" y="0" type="line"/>
      <point x="517" y="0" type="line"/>
      <point x="208" y="537" type="line"/>
      <point x="208" y="0" type="line"/>
    </contour>
    <contour>
      <point x="266" y="811" type="curve"/>
      <point x="212" y="891" type="line"/>
      <point x="247" y="926"/>
      <point x="273" y="938"/>
      <point x="315" y="938" type="curve" smooth="yes"/>
      <point x="337" y="938"/>
      <point x="346" y="936"/>
      <point x="375" y="924" type="curve" smooth="yes"/>
      <point x="395" y="916"/>
      <point x="408" y="913"/>
      <point x="422" y="913" type="curve" smooth="yes"/>
      <point x="448" y="913"/>
      <point x="468" y="923"/>
      <point x="489" y="947" type="curve"/>
      <point x="543" y="866" type="line"/>
      <point x="511" y="827"/>
      <point x="484" y="811"/>
      <point x="449" y="811" type="curve" smooth="yes"/>
      <point x="434" y="811"/>
      <point x="416" y="815"/>
      <point x="390" y="824" type="curve" smooth="yes"/>
      <point x="363" y="834"/>
      <point x="353" y="836"/>
      <point x="336" y="836" type="curve" smooth="yes"/>
      <point x="310" y="836"/>
      <point x="304" y="834"/>
    </contour>
  </outline>
</glyph>
<glyph name="Ocircumflex" format="1">
  <advance width="842"/>
  <unicode hex="00D4"/>
  <outline>
    <contour>
      <point x="421" y="1015" type="move" name="Anchor-0"/>
    </contour>
    <contour>
      <point x="427" y="752" type="curve" smooth="yes"/>
      <point x="637" y="752"/>
      <point x="806" y="581"/>
      <point x="806" y="370" type="curve" smooth="yes"/>
      <point x="806" y="154"/>
      <point x="640" y="-13"/>
      <point x="425" y="-13" type="curve" smooth="yes"/>
      <point x="208" y="-13"/>
      <point x="36" y="155"/>
      <point x="36" y="369" type="curve" smooth="yes"/>
      <point x="36" y="585"/>
      <point x="206" y="752"/>
    </contour>
    <contour>
      <point x="418" y="620" type="curve" smooth="yes"/>
      <point x="283" y="620"/>
      <point x="174" y="509"/>
      <point x="174" y="370" type="curve" smooth="yes"/>
      <point x="174" y="229"/>
      <point x="284" y="119"/>
      <point x="424" y="119" type="curve" smooth="yes"/>
      <point x="564" y="119"/>
      <point x="668" y="225"/>
      <point x="668" y="368" type="curve" smooth="yes"/>
      <point x="668" y="513"/>
      <point x="562" y="620"/>
    </contour>
    <contour>
      <point x="222" y="805" type="line"/>
      <point x="369" y="943" type="line"/>
      <point x="476" y="943" type="line"/>
      <point x="621" y="805" type="line"/>
      <point x="476" y="805" type="line"/>
      <point x="423" y="869" type="line"/>
      <point x="369" y="805" type="line"/>
    </contour>
  </outline>
</glyph>
<glyph name="Otilde" format="1">
  <advance width="842"/>
  <unicode hex="00D5"/>
  <outline>
    <contour>
      <point x="421" y="1015" type="move" name="Anchor-0"/>
    </contour>
    <contour>
      <point x="427" y="752" type="curve" smooth="yes"/>
      <point x="637" y="752"/>
      <point x="806" y="581"/>
      <point x="806" y="370" type="curve" smooth="yes"/>
      <point x="806" y="154"/>
      <point x="640" y="-13"/>
      <point x="425" y="-13" type="curve" smooth="yes"/>
      <point x="208" y="-13"/>
      <point x="36" y="155"/>
      <point x="36" y="369" type="curve" smooth="yes"/>
      <point x="36" y="585"/>
      <point x="206" y="752"/>
    </contour>
    <contour>
      <point x="418" y="620" type="curve" smooth="yes"/>
      <point x="283" y="620"/>
      <point x="174" y="509"/>
      <point x="174" y="370" type="curve" smooth="yes"/>
      <point x="174" y="229"/>
      <point x="284" y="119"/>
      <point x="424" y="119" type="curve" smooth="yes"/>
      <point x="564" y="119"/>
      <point x="668" y="225"/>
      <point x="668" y="368" type="curve" smooth="yes"/>
      <point x="668" y="513"/>
      <point x="562" y="620"/>
    </contour>
    <contour>
      <point x="310" y="811" type="curve"/>
      <point x="256" y="891" type="line"/>
      <point x="291" y="926"/>
      <point x="317" y="938"/>
      <point x="359" y="938" type="curve" smooth="yes"/>
      <point x="381" y="938"/>
      <point x="390" y="936"/>
      <point x="419" y="924" type="curve" smooth="yes"/>
      <point x="439" y="916"/>
      <point x="452" y="913"/>
      <point x="466" y="913" type="curve" smooth="yes"/>
      <point x="492" y="913"/>
      <point x="512" y="923"/>
      <point x="533" y="947" type="curve"/>
      <point x="587" y="866" type="line"/>
      <point x="555" y="827"/>
      <point x="528" y="811"/>
      <point x="493" y="811" type="curve" smooth="yes"/>
      <point x="478" y="811"/>
      <point x="460" y="815"/>
      <point x="434" y="824" type="curve" smooth="yes"/>
      <point x="407" y="834"/>
      <point x="397" y="836"/>
      <point x="380" y="836" type="curve" smooth="yes"/>
      <point x="354" y="836"/>
      <point x="348" y="834"/>
    </contour>
  </outline>
</glyph>
<glyph name="multiply" format="1">
  <advance width="600"/>
  <unicode hex="00D7"/>
  <outline>
    <contour>
      <point x="382" y="366" type="line"/>
      <point x="552" y="196" type="line"/>
      <point x="470" y="114" type="line"/>
      <point x="300" y="284" type="line"/>
      <point x="130" y="114" type="line"/>
      <point x="48" y="196" type="line"/>
      <point x="218" y="366" type="line"/>
      <point x="48" y="536" type="line"/>
      <point x="130" y="618" type="line"/>
      <point x="300" y="448" type="line"/>
      <point x="470" y="618" type="line"/>
      <point x="552" y="536" type="line"/>
    </contour>
  </outline>
</glyph>
<glyph name="Oslash" format="1">
  <advance width="845"/>
  <unicode hex="00D8"/>
  <outline>
    <contour>
      <point x="422" y="805" type="move" name="Anchor-0"/>
    </contour>
    <contour>
      <point x="744" y="743" type="line"/>
      <point x="683" y="653" type="line"/>
      <point x="766" y="578"/>
      <point x="809" y="479"/>
      <point x="809" y="370" type="curve" smooth="yes"/>
      <point x="809" y="154"/>
      <point x="643" y="-13"/>
      <point x="427" y="-13" type="curve" smooth="yes"/>
      <point x="367" y="-13"/>
      <point x="312" y="-1"/>
      <point x="259" y="23" type="curve"/>
      <point x="199" y="-65" type="line"/>
      <point x="103" y="0" type="line"/>
      <point x="162" y="87" type="line"/>
      <point x="82" y="159"/>
      <point x="36" y="262"/>
      <point x="36" y="370" type="curve" smooth="yes"/>
      <point x="36" y="582"/>
      <point x="207" y="752"/>
      <point x="422" y="752" type="curve" smooth="yes"/>
      <point x="480" y="752"/>
      <point x="531" y="741"/>
      <point x="587" y="717" type="curve"/>
      <point x="649" y="809" type="line"/>
    </contour>
    <contour>
      <point x="607" y="540" type="curve"/>
      <point x="335" y="135" type="line"/>
      <point x="367" y="124"/>
      <point x="394" y="119"/>
      <point x="426" y="119" type="curve" smooth="yes"/>
      <point x="566" y="119"/>
      <point x="671" y="226"/>
      <point x="671" y="368" type="curve" smooth="yes"/>
      <point x="671" y="433"/>
      <point x="649" y="491"/>
    </contour>
    <contour>
      <point x="239" y="201" type="curve"/>
      <point x="511" y="605" type="line"/>
      <point x="482" y="615"/>
      <point x="454" y="620"/>
      <point x="422" y="620" type="curve" smooth="yes"/>
      <point x="283" y="620"/>
      <point x="174" y="510"/>
      <point x="174" y="370" type="curve" smooth="yes"/>
      <point x="174" y="308"/>
      <point x="197" y="249"/>
    </contour>
  </outline>
</glyph>
<glyph name="Yacute" format="1">
  <advance width="637"/>
  <unicode hex="00DD"/>
  <outline>
    <contour>
      <point x="318" y="1015" type="move" name="Anchor-0"/>
    </contour>
    <contour>
      <point x="250" y="0" type="line"/>
      <point x="250" y="273" type="line"/>
      <point x="7" y="739" type="line"/>
      <point x="155" y="739" type="line"/>
      <point x="319" y="399" type="line"/>
      <point x="482" y="739" type="line"/>
      <point x="630" y="739" type="line"/>
      <point x="387" y="273" type="line"/>
      <point x="387" y="0" type="line"/>
    </contour>
    <contour>
      <point x="271" y="788" type="line"/>
      <point x="220" y="866" type="line"/>
      <point x="444" y="1000" type="line"/>
      <point x="498" y="908" type="line"/>
    </contour>
  </outline>
</glyph>
<glyph name="Thorn" format="1">
  <advance width="576"/>
  <unicode hex="00DE"/>
  <outline>
    <contour>
      <point x="280" y="805" type="move" name="Anchor-0"/>
    </contour>
    <contour>
      <point x="71" y="0" type="line"/>
      <point x="71" y="739" type="line"/>
      <point x="208" y="739" type="line"/>
      <point x="208" y="608" type="line"/>
      <point x="254" y="608" type="line" smooth="yes"/>
      <point x="355" y="608"/>
      <point x="405" y="598"/>
      <point x="449" y="570" type="curve" smooth="yes"/>
      <point x="509" y="531"/>
      <point x="543" y="463"/>
      <point x="543" y="380" type="curve" smooth="yes"/>
      <point x="543" y="291"/>
      <point x="504" y="215"/>
      <point x="440" y="179" type="curve" smooth="yes"/>
      <point x="400" y="157"/>
      <point x="353" y="149"/>
      <point x="252" y="149" type="curve" smooth="yes"/>
      <point x="208" y="149" type="line"/>
      <point x="208" y="0" type="line"/>
    </contour>
    <contour>
      <point x="208" y="280" type="line"/>
      <point x="248" y="280" type="line" smooth="yes"/>
      <point x="288" y="280"/>
      <point x="320" y="283"/>
      <point x="342" y="290" type="curve" smooth="yes"/>
      <point x="381" y="301"/>
      <point x="405" y="334"/>
      <point x="405" y="377" type="curve" smooth="yes"/>
      <point x="405" y="424"/>
      <point x="381" y="459"/>
      <point x="341" y="470" type="curve" smooth="yes"/>
      <point x="320" y="475"/>
      <point x="299" y="477"/>
      <point x="254" y="477" type="curve" smooth="yes"/>
      <point x="208" y="477" type="line"/>
    </contour>
  </outline>
</glyph>
<glyph name="germandbls" format="1">
  <advance width="616"/>
  <unicode hex="00DF"/>
  <outline>
    <contour>
      <point x="277" y="805" type="move" name="Anchor-0"/>
    </contour>
    <contour>
      <point x="54" y="0" type="line"/>
      <point x="54" y="487" type="line" smooth="yes"/>
      <point x="54" y="553"/>
      <point x="64" y="600"/>
      <point x="86" y="643" type="curve" smooth="yes"/>
      <point x="122" y="711"/>
      <point x="193" y="752"/>
      <point x="275" y="752" type="curve" smooth="yes"/>
      <point x="399" y="752"/>
      <point x="493" y="663"/>
      <point x="493" y="546" type="curve" smooth="yes"/>
      <point x="493" y="480"/>
      <point x="470" y="437"/>
      <point x="418" y="408" type="curve"/>
      <point x="466" y="397"/>
      <point x="489" y="387"/>
      <point x="518" y="364" type="curve" smooth="yes"/>
      <point x="564" y="327"/>
      <point x="587" y="278"/>
      <point x="587" y="216" type="curve" smooth="yes"/>
      <point x="587" y="82"/>
      <point x="490" y="-13"/>
      <point x="353" y="-13" type="curve" smooth="yes"/>
      <point x="271" y="-13"/>
      <point x="213" y="17"/>
      <point x="176" y="79" type="curve"/>
      <point x="176" y="0" type="line"/>
    </contour>
    <contour>
      <point x="187" y="189" type="line"/>
      <point x="269" y="189" type="line"/>
      <point x="278" y="143"/>
      <point x="317" y="109"/>
      <point x="363" y="109" type="curve" smooth="yes"/>
      <point x="414" y="109"/>
      <point x="453" y="150"/>
      <point x="453" y="205" type="curve" smooth="yes"/>
      <point x="453" y="246"/>
      <point x="432" y="281"/>
      <point x="396" y="298" type="curve" smooth="yes"/>
      <point x="366" y="312"/>
      <point x="341" y="315"/>
      <point x="269" y="315" type="curve" smooth="yes"/>
      <point x="258" y="315" type="line"/>
      <point x="258" y="433" type="line"/>
      <point x="269" y="433" type="line" smooth="yes"/>
      <point x="321" y="433"/>
      <point x="359" y="477"/>
      <point x="359" y="536" type="curve" smooth="yes"/>
      <point x="359" y="593"/>
      <point x="326" y="630"/>
      <point x="274" y="630" type="curve" smooth="yes"/>
      <point x="216" y="630"/>
      <point x="187" y="588"/>
      <point x="187" y="503" type="curve" smooth="yes"/>
    </contour>
  </outline>
</glyph>
<glyph name="aacute" format="1">
  <advance width="667"/>
  <unicode hex="00E1"/>
  <outline>
    <contour>
      <point x="347" y="840" type="move" name="Anchor-0"/>
    </contour>
    <contour>
      <point x="613" y="554" type="line"/>
      <point x="613" y="0" type="line"/>
      <point x="491" y="0" type="line"/>
      <point x="491" y="72" type="line"/>
      <point x="438" y="11"/>
      <point x="385" y="-13"/>
      <point x="307" y="-13" type="curve" smooth="yes"/>
      <point x="145" y="-13"/>
      <point x="28" y="108"/>
      <point x="28" y="275" type="curve" smooth="yes"/>
      <point x="28" y="444"/>
      <point x="146" y="567"/>
      <point x="310" y="567" type="curve" smooth="yes"/>
      <point x="390" y="567"/>
      <point x="445" y="541"/>
      <point x="491" y="480" type="curve"/>
      <point x="491" y="554" type="line"/>
    </contour>
    <contour>
      <point x="322" y="445" type="curve" smooth="yes"/>
      <point x="229" y="445"/>
      <point x="162" y="372"/>
      <point x="162" y="272" type="curve" smooth="yes"/>
      <point x="162" y="175"/>
      <point x="229" y="109"/>
      <point x="326" y="109" type="curve" smooth="yes"/>
      <point x="422" y="109"/>
      <point x="487" y="176"/>
      <point x="487" y="275" type="curve" smooth="yes"/>
      <point x="487" y="375"/>
      <point x="419" y="445"/>
    </contour>
    <contour>
      <point x="293" y="613" type="line"/>
      <point x="242" y="691" type="line"/>
      <point x="466" y="825" type="line"/>
      <point x="520" y="733" type="line"/>
    </contour>
  </outline>
</glyph>
<glyph name="atilde" format="1">
  <advance width="667"/>
  <unicode hex="00E3"/>
  <outline>
    <contour>
      <point x="347" y="840" type="move" name="Anchor-0"/>
    </contour>
    <contour>
      <point x="613" y="554" type="line"/>
      <point x="613" y="0" type="line"/>
      <point x="491" y="0" type="line"/>
      <point x="491" y="72" type="line"/>
      <point x="438" y="11"/>
      <point x="385" y="-13"/>
      <point x="307" y="-13" type="curve" smooth="yes"/>
      <point x="145" y="-13"/>
      <point x="28" y="108"/>
      <point x="28" y="275" type="curve" smooth="yes"/>
      <point x="28" y="444"/>
      <point x="146" y="567"/>
      <point x="310" y="567" type="curve" smooth="yes"/>
      <point x="390" y="567"/>
      <point x="445" y="541"/>
      <point x="491" y="480" type="curve"/>
      <point x="491" y="554" type="line"/>
    </contour>
    <contour>
      <point x="322" y="445" type="curve" smooth="yes"/>
      <point x="229" y="445"/>
      <point x="162" y="372"/>
      <point x="162" y="272" type="curve" smooth="yes"/>
      <point x="162" y="175"/>
      <point x="229" y="109"/>
      <point x="326" y="109" type="curve" smooth="yes"/>
      <point x="422" y="109"/>
      <point x="487" y="176"/>
      <point x="487" y="275" type="curve" smooth="yes"/>
      <point x="487" y="375"/>
      <point x="419" y="445"/>
    </contour>
    <contour>
      <point x="232" y="636" type="curve"/>
      <point x="178" y="716" type="line"/>
      <point x="213" y="751"/>
      <point x="239" y="763"/>
      <point x="281" y="763" type="curve" smooth="yes"/>
      <point x="303" y="763"/>
      <point x="312" y="761"/>
      <point x="341" y="749" type="curve" smooth="yes"/>
      <point x="361" y="741"/>
      <point x="374" y="738"/>
      <point x="388" y="738" type="curve" smooth="yes"/>
      <point x="414" y="738"/>
      <point x="434" y="748"/>
      <point x="455" y="772" type="curve"/>
      <point x="509" y="691" type="line"/>
      <point x="477" y="652"/>
      <point x="450" y="636"/>
      <point x="415" y="636" type="curve" smooth="yes"/>
      <point x="400" y="636"/>
      <point x="382" y="640"/>
      <point x="356" y="649" type="curve" smooth="yes"/>
      <point x="329" y="659"/>
      <point x="319" y="661"/>
      <point x="302" y="661" type="curve" smooth="yes"/>
      <point x="276" y="661"/>
      <point x="270" y="659"/>
    </contour>
  </outline>
</glyph>
<glyph name="aring" format="1">
  <advance width="667"/>
  <unicode hex="00E5"/>
  <outline>
    <contour>
      <point x="345" y="840" type="move" name="Anchor-0"/>
    </contour>
    <contour>
      <point x="613" y="554" type="line"/>
      <point x="613" y="0" type="line"/>
      <point x="491" y="0" type="line"/>
      <point x="491" y="72" type="line"/>
      <point x="438" y="11"/>
      <point x="385" y="-13"/>
      <point x="307" y="-13" type="curve" smooth="yes"/>
      <point x="145" y="-13"/>
      <point x="28" y="108"/>
      <point x="28" y="275" type="curve" smooth="yes"/>
      <point x="28" y="444"/>
      <point x="146" y="567"/>
      <point x="310" y="567" type="curve" smooth="yes"/>
      <point x="390" y="567"/>
      <point x="445" y="541"/>
      <point x="491" y="480" type="curve"/>
      <point x="491" y="554" type="line"/>
    </contour>
    <contour>
      <point x="322" y="445" type="curve" smooth="yes"/>
      <point x="229" y="445"/>
      <point x="162" y="372"/>
      <point x="162" y="272" type="curve" smooth="yes"/>
      <point x="162" y="175"/>
      <point x="229" y="109"/>
      <point x="326" y="109" type="curve" smooth="yes"/>
      <point x="422" y="109"/>
      <point x="487" y="176"/>
      <point x="487" y="275" type="curve" smooth="yes"/>
      <point x="487" y="375"/>
      <point x="419" y="445"/>
    </contour>
    <contour>
      <point x="345" y="816" type="curve" smooth="yes"/>
      <point x="401" y="816"/>
      <point x="447" y="769"/>
      <point x="447" y="713" type="curve" smooth="yes"/>
      <point x="447" y="656"/>
      <point x="401" y="610"/>
      <point x="344" y="610" type="curve" smooth="yes"/>
      <point x="287" y="610"/>
      <point x="241" y="656"/>
      <point x="241" y="713" type="curve" smooth="yes"/>
      <point x="241" y="770"/>
      <point x="287" y="816"/>
    </contour>
    <contour>
      <point x="343" y="749" type="curve" smooth="yes"/>
      <point x="324" y="749"/>
      <point x="308" y="733"/>
      <point x="308" y="713" type="curve" smooth="yes"/>
      <point x="308" y="693"/>
      <point x="324" y="677"/>
      <point x="344" y="677" type="curve" smooth="yes"/>
      <point x="364" y="677"/>
      <point x="380" y="693"/>
      <point x="380" y="713" type="curve" smooth="yes"/>
      <point x="380" y="733"/>
      <point x="364" y="749"/>
    </contour>
  </outline>
</glyph>
<glyph name="ae" format="1">
  <advance width="1077"/>
  <unicode hex="00E6"/>
  <outline>
    <contour>
      <point x="544" y="630" type="move" name="Anchor-0"/>
    </contour>
    <contour>
      <point x="885" y="164" type="curve"/>
      <point x="1030" y="164" type="line"/>
      <point x="997" y="63"/>
      <point x="888" y="-13"/>
      <point x="774" y="-13" type="curve" smooth="yes"/>
      <point x="700" y="-13"/>
      <point x="649" y="9"/>
      <point x="605" y="60" type="curve"/>
      <point x="605" y="0" type="line"/>
      <point x="483" y="0" type="line"/>
      <point x="483" y="60" type="line"/>
      <point x="438" y="6"/>
      <point x="394" y="-13"/>
      <point x="318" y="-13" type="curve" smooth="yes"/>
      <point x="152" y="-13"/>
      <point x="28" y="110"/>
      <point x="28" y="275" type="curve" smooth="yes"/>
      <point x="28" y="440"/>
      <point x="153" y="567"/>
      <point x="316" y="567" type="curve" smooth="yes"/>
      <point x="388" y="567"/>
      <point x="437" y="547"/>
      <point x="483" y="499" type="curve"/>
      <point x="483" y="554" type="line"/>
      <point x="605" y="554" type="line"/>
      <point x="605" y="499" type="line"/>
      <point x="652" y="547"/>
      <point x="701" y="567"/>
      <point x="772" y="567" type="curve" smooth="yes"/>
      <point x="927" y="567"/>
      <point x="1049" y="445"/>
      <point x="1049" y="288" type="curve" smooth="yes"/>
      <point x="1049" y="265"/>
      <point x="1047" y="249"/>
      <point x="1040" y="219" type="curve"/>
      <point x="612" y="219" type="line"/>
      <point x="635" y="150"/>
      <point x="693" y="109"/>
      <point x="768" y="109" type="curve" smooth="yes"/>
      <point x="818" y="109"/>
      <point x="853" y="125"/>
    </contour>
    <contour>
      <point x="319" y="445" type="curve" smooth="yes"/>
      <point x="231" y="445"/>
      <point x="162" y="372"/>
      <point x="162" y="278" type="curve" smooth="yes"/>
      <point x="162" y="181"/>
      <point x="230" y="109"/>
      <point x="322" y="109" type="curve" smooth="yes"/>
      <point x="412" y="109"/>
      <point x="479" y="181"/>
      <point x="479" y="276" type="curve" smooth="yes"/>
      <point x="479" y="373"/>
      <point x="411" y="445"/>
    </contour>
    <contour>
      <point x="605" y="337" type="curve"/>
      <point x="909" y="337" type="line"/>
      <point x="890" y="409"/>
      <point x="840" y="445"/>
      <point x="759" y="445" type="curve" smooth="yes"/>
      <point x="682" y="445"/>
      <point x="631" y="410"/>
    </contour>
  </outline>
</glyph>
<glyph name="ccedilla" format="1">
  <advance width="625"/>
  <unicode hex="00E7"/>
  <outline>
    <contour>
      <point x="320" y="630" type="move" name="Anchor-0"/>
    </contour>
    <contour>
      <point x="317" y="-13" type="curve"/>
      <point x="298" y="-58" type="line"/>
      <point x="311" y="-52"/>
      <point x="318" y="-51"/>
      <point x="329" y="-51" type="curve" smooth="yes"/>
      <point x="379" y="-51"/>
      <point x="417" y="-94"/>
      <point x="417" y="-151" type="curve" smooth="yes"/>
      <point x="417" y="-212"/>
      <point x="380" y="-251"/>
      <point x="322" y="-251" type="curve" smooth="yes"/>
      <point x="271" y="-251"/>
      <point x="230" y="-216"/>
      <point x="223" y="-166" type="curve"/>
      <point x="283" y="-166" type="line"/>
      <point x="291" y="-186"/>
      <point x="303" y="-196"/>
      <point x="321" y="-196" type="curve" smooth="yes"/>
      <point x="343" y="-196"/>
      <point x="359" y="-178"/>
      <point x="359" y="-153" type="curve" smooth="yes"/>
      <point x="359" y="-127"/>
      <point x="343" y="-109"/>
      <point x="321" y="-109" type="curve" smooth="yes"/>
      <point x="307" y="-109"/>
      <point x="296" y="-115"/>
      <point x="283" y="-133" type="curve"/>
      <point x="231" y="-107" type="line"/>
      <point x="273" y="-9" type="line"/>
      <point x="130" y="16"/>
      <point x="28" y="135"/>
      <point x="28" y="277" type="curve" smooth="yes"/>
      <point x="28" y="440"/>
      <point x="156" y="567"/>
      <point x="320" y="567" type="curve" smooth="yes"/>
      <point x="399" y="567"/>
      <point x="474" y="538"/>
      <point x="528" y="485" type="curve" smooth="yes"/>
      <point x="563" y="451"/>
      <point x="580" y="423"/>
      <point x="599" y="369" type="curve"/>
      <point x="449" y="369" type="line"/>
      <point x="422" y="421"/>
      <point x="380" y="445"/>
      <point x="320" y="445" type="curve" smooth="yes"/>
      <point x="227" y="445"/>
      <point x="162" y="376"/>
      <point x="162" y="278" type="curve" smooth="yes"/>
      <point x="162" y="181"/>
      <point x="231" y="109"/>
      <point x="323" y="109" type="curve" smooth="yes"/>
      <point x="378" y="109"/>
      <point x="416" y="131"/>
      <point x="449" y="182" type="curve"/>
      <point x="599" y="182" type="line"/>
      <point x="556" y="58"/>
      <point x="454" y="-13"/>
    </contour>
  </outline>
</glyph>
<glyph name="edieresis" format="1">
  <advance width="634"/>
  <unicode hex="00EB"/>
  <outline>
    <contour>
      <point x="324" y="840" type="move" name="Anchor-0"/>
    </contour>
    <contour>
      <point x="601" y="218" type="curve"/>
      <point x="172" y="218" type="line"/>
      <point x="188" y="151"/>
      <point x="246" y="109"/>
      <point x="325" y="109" type="curve" smooth="yes"/>
      <point x="380" y="109"/>
      <point x="413" y="124"/>
      <point x="447" y="164" type="curve"/>
      <point x="592" y="164" type="line"/>
      <point x="583" y="136"/>
      <point x="569" y="113"/>
      <point x="548" y="87" type="curve" smooth="yes"/>
      <point x="490" y="19"/>
      <point x="419" y="-13"/>
      <point x="328" y="-13" type="curve" smooth="yes"/>
      <point x="159" y="-13"/>
      <point x="28" y="113"/>
      <point x="28" y="275" type="curve" smooth="yes"/>
      <point x="28" y="438"/>
      <point x="157" y="567"/>
      <point x="320" y="567" type="curve" smooth="yes"/>
      <point x="485" y="567"/>
      <point x="606" y="441"/>
      <point x="606" y="269" type="curve" smooth="yes"/>
      <point x="606" y="249"/>
      <point x="605" y="237"/>
    </contour>
    <contour>
      <point x="168" y="335" type="curve"/>
      <point x="475" y="335" type="line"/>
      <point x="458" y="406"/>
      <point x="404" y="445"/>
      <point x="322" y="445" type="curve" smooth="yes"/>
      <point x="243" y="445"/>
      <point x="189" y="407"/>
    </contour>
    <contour>
      <point x="153" y="630" type="line"/>
      <point x="153" y="763" type="line"/>
      <point x="286" y="763" type="line"/>
      <point x="286" y="630" type="line"/>
    </contour>
    <contour>
      <point x="363" y="630" type="line"/>
      <point x="363" y="763" type="line"/>
      <point x="496" y="763" type="line"/>
      <point x="496" y="630" type="line"/>
    </contour>
  </outline>
</glyph>
<glyph name="igrave" format="1">
  <advance width="241"/>
  <unicode hex="00EC"/>
  <outline>
    <contour>
      <point x="120" y="840" type="move" name="Anchor-0"/>
    </contour>
    <contour>
      <point x="54" y="0" type="line"/>
      <point x="54" y="554" type="line"/>
      <point x="187" y="554" type="line"/>
      <point x="187" y="0" type="line"/>
    </contour>
    <contour>
      <point x="-16" y="737" type="line"/>
      <point x="41" y="825" type="line"/>
      <point x="263" y="692" type="line"/>
      <point x="210" y="613" type="line"/>
    </contour>
  </outline>
</glyph>
<glyph name="idieresis" format="1">
  <advance width="241"/>
  <unicode hex="00EF"/>
  <outline>
    <contour>
      <point x="120" y="840" type="move" name="Anchor-0"/>
    </contour>
    <contour>
      <point x="54" y="0" type="line"/>
      <point x="54" y="554" type="line"/>
      <point x="187" y="554" type="line"/>
      <point x="187" y="0" type="line"/>
    </contour>
    <contour>
      <point x="-51" y="630" type="line"/>
      <point x="-51" y="763" type="line"/>
      <point x="82" y="763" type="line"/>
      <point x="82" y="630" type="line"/>
    </contour>
    <contour>
      <point x="159" y="630" type="line"/>
      <point x="159" y="763" type="line"/>
      <point x="292" y="763" type="line"/>
      <point x="292" y="630" type="line"/>
    </contour>
  </outline>
</glyph>
<glyph name="eth" format="1">
  <advance width="645"/>
  <unicode hex="00F0"/>
  <outline>
    <contour>
      <point x="322" y="805" type="move" name="Anchor-0"/>
    </contour>
    <contour>
      <point x="167" y="721" type="curve"/>
      <point x="270" y="756" type="line"/>
      <point x="276" y="752"/>
      <point x="281" y="749"/>
      <point x="286" y="745" type="curve" smooth="yes"/>
      <point x="316" y="722" type="line" smooth="yes"/>
      <point x="323" y="719"/>
      <point x="329" y="714"/>
      <point x="335" y="709" type="curve"/>
      <point x="422" y="749" type="line"/>
      <point x="463" y="700" type="line"/>
      <point x="385" y="665" type="line"/>
      <point x="457" y="603"/>
      <point x="481" y="579"/>
      <point x="514" y="538" type="curve" smooth="yes"/>
      <point x="584" y="452"/>
      <point x="617" y="369"/>
      <point x="617" y="284" type="curve" smooth="yes"/>
      <point x="617" y="117"/>
      <point x="488" y="-13"/>
      <point x="323" y="-13" type="curve" smooth="yes"/>
      <point x="160" y="-13"/>
      <point x="28" y="118"/>
      <point x="28" y="278" type="curve" smooth="yes"/>
      <point x="28" y="381"/>
      <point x="87" y="480"/>
      <point x="176" y="526" type="curve" smooth="yes"/>
      <point x="209" y="543"/>
      <point x="261" y="556"/>
      <point x="295" y="556" type="curve" smooth="yes"/>
      <point x="312" y="556"/>
      <point x="335" y="553"/>
      <point x="363" y="547" type="curve"/>
      <point x="353" y="556"/>
      <point x="344" y="566"/>
      <point x="335" y="575" type="curve" smooth="yes"/>
      <point x="309" y="601"/>
      <point x="307" y="603"/>
      <point x="286" y="621" type="curve"/>
      <point x="199" y="581" type="line"/>
      <point x="159" y="627" type="line"/>
      <point x="237" y="664" type="line"/>
      <point x="193" y="701"/>
      <point x="189" y="704"/>
    </contour>
    <contour>
      <point x="320" y="445" type="curve" smooth="yes"/>
      <point x="234" y="445"/>
      <point x="162" y="369"/>
      <point x="162" y="277" type="curve" smooth="yes"/>
      <point x="162" y="184"/>
      <point x="234" y="109"/>
      <point x="322" y="109" type="curve" smooth="yes"/>
      <point x="411" y="109"/>
      <point x="483" y="184"/>
      <point x="483" y="276" type="curve" smooth="yes"/>
      <point x="483" y="371"/>
      <point x="411" y="445"/>
    </contour>
  </outline>
</glyph>
<glyph name="ntilde" format="1">
  <advance width="598"/>
  <unicode hex="00F1"/>
  <outline>
    <contour>
      <point x="300" y="840" type="move" name="Anchor-0"/>
    </contour>
    <contour>
      <point x="54" y="0" type="line"/>
      <point x="54" y="554" type="line"/>
      <point x="177" y="554" type="line"/>
      <point x="177" y="501" type="line"/>
      <point x="226" y="549"/>
      <point x="269" y="567"/>
      <point x="333" y="567" type="curve" smooth="yes"/>
      <point x="412" y="567"/>
      <point x="474" y="537"/>
      <point x="510" y="482" type="curve" smooth="yes"/>
      <point x="537" y="439"/>
      <point x="546" y="393"/>
      <point x="546" y="297" type="curve" smooth="yes"/>
      <point x="546" y="0" type="line"/>
      <point x="413" y="0" type="line"/>
      <point x="413" y="271" type="line" smooth="yes"/>
      <point x="413" y="347"/>
      <point x="405" y="388"/>
      <point x="385" y="412" type="curve" smooth="yes"/>
      <point x="367" y="434"/>
      <point x="341" y="445"/>
      <point x="307" y="445" type="curve" smooth="yes"/>
      <point x="263" y="445"/>
      <point x="228" y="426"/>
      <point x="208" y="391" type="curve" smooth="yes"/>
      <point x="192" y="365"/>
      <point x="187" y="333"/>
      <point x="187" y="261" type="curve" smooth="yes"/>
      <point x="187" y="0" type="line"/>
    </contour>
    <contour>
      <point x="179" y="636" type="curve"/>
      <point x="125" y="716" type="line"/>
      <point x="160" y="751"/>
      <point x="186" y="763"/>
      <point x="228" y="763" type="curve" smooth="yes"/>
      <point x="250" y="763"/>
      <point x="259" y="761"/>
      <point x="288" y="749" type="curve" smooth="yes"/>
      <point x="308" y="741"/>
      <point x="321" y="738"/>
      <point x="335" y="738" type="curve" smooth="yes"/>
      <point x="361" y="738"/>
      <point x="381" y="748"/>
      <point x="402" y="772" type="curve"/>
      <point x="456" y="691" type="line"/>
      <point x="424" y="652"/>
      <point x="397" y="636"/>
      <point x="362" y="636" type="curve" smooth="yes"/>
      <point x="347" y="636"/>
      <point x="329" y="640"/>
      <point x="303" y="649" type="curve" smooth="yes"/>
      <point x="276" y="659"/>
      <point x="266" y="661"/>
      <point x="249" y="661" type="curve" smooth="yes"/>
      <point x="223" y="661"/>
      <point x="217" y="659"/>
    </contour>
  </outline>
</glyph>
<glyph name="oacute" format="1">
  <advance width="645"/>
  <unicode hex="00F3"/>
  <outline>
    <contour>
      <point x="322" y="840" type="move" name="Anchor-0"/>
    </contour>
    <contour>
      <point x="325" y="567" type="curve" smooth="yes"/>
      <point x="486" y="567"/>
      <point x="617" y="436"/>
      <point x="617" y="276" type="curve" smooth="yes"/>
      <point x="617" y="117"/>
      <point x="485" y="-13"/>
      <point x="323" y="-13" type="curve" smooth="yes"/>
      <point x="160" y="-13"/>
      <point x="28" y="117"/>
      <point x="28" y="276" type="curve" smooth="yes"/>
      <point x="28" y="438"/>
      <point x="159" y="567"/>
    </contour>
    <contour>
      <point x="320" y="445" type="curve" smooth="yes"/>
      <point x="234" y="445"/>
      <point x="162" y="369"/>
      <point x="162" y="277" type="curve" smooth="yes"/>
      <point x="162" y="184"/>
      <point x="234" y="109"/>
      <point x="322" y="109" type="curve" smooth="yes"/>
      <point x="411" y="109"/>
      <point x="483" y="184"/>
      <point x="483" y="276" type="curve" smooth="yes"/>
      <point x="483" y="371"/>
      <point x="411" y="445"/>
    </contour>
    <contour>
      <point x="268" y="613" type="line"/>
      <point x="217" y="691" type="line"/>
      <point x="441" y="825" type="line"/>
      <point x="495" y="733" type="line"/>
    </contour>
  </outline>
</glyph>
<glyph name="otilde" format="1">
  <advance width="645"/>
  <unicode hex="00F5"/>
  <outline>
    <contour>
      <point x="322" y="840" type="move" name="Anchor-0"/>
    </contour>
    <contour>
      <point x="325" y="567" type="curve" smooth="yes"/>
      <point x="486" y="567"/>
      <point x="617" y="436"/>
      <point x="617" y="276" type="curve" smooth="yes"/>
      <point x="617" y="117"/>
      <point x="485" y="-13"/>
      <point x="323" y="-13" type="curve" smooth="yes"/>
      <point x="160" y="-13"/>
      <point x="28" y="117"/>
      <point x="28" y="276" type="curve" smooth="yes"/>
      <point x="28" y="438"/>
      <point x="159" y="567"/>
    </contour>
    <contour>
      <point x="320" y="445" type="curve" smooth="yes"/>
      <point x="234" y="445"/>
      <point x="162" y="369"/>
      <point x="162" y="277" type="curve" smooth="yes"/>
      <point x="162" y="184"/>
      <point x="234" y="109"/>
      <point x="322" y="109" type="curve" smooth="yes"/>
      <point x="411" y="109"/>
      <point x="483" y="184"/>
      <point x="483" y="276" type="curve" smooth="yes"/>
      <point x="483" y="371"/>
      <point x="411" y="445"/>
    </contour>
    <contour>
      <point x="214" y="636" type="curve"/>
      <point x="160" y="716" type="line"/>
      <point x="195" y="751"/>
      <point x="221" y="763"/>
      <point x="263" y="763" type="curve" smooth="yes"/>
      <point x="285" y="763"/>
      <point x="294" y="761"/>
      <point x="323" y="749" type="curve" smooth="yes"/>
      <point x="343" y="741"/>
      <point x="356" y="738"/>
      <point x="370" y="738" type="curve" smooth="yes"/>
      <point x="396" y="738"/>
      <point x="416" y="748"/>
      <point x="437" y="772" type="curve"/>
      <point x="491" y="691" type="line"/>
      <point x="459" y="652"/>
      <point x="432" y="636"/>
      <point x="397" y="636" type="curve" smooth="yes"/>
      <point x="382" y="636"/>
      <point x="364" y="640"/>
      <point x="338" y="649" type="curve" smooth="yes"/>
      <point x="311" y="659"/>
      <point x="301" y="661"/>
      <point x="284" y="661" type="curve" smooth="yes"/>
      <point x="258" y="661"/>
      <point x="252" y="659"/>
    </contour>
  </outline>
</glyph>
<glyph name="divide" format="1">
  <advance width="600"/>
  <unicode hex="00F7"/>
  <outline>
    <contour>
      <point x="367" y="538" type="line"/>
      <point x="232" y="538" type="line"/>
      <point x="232" y="669" type="line"/>
      <point x="367" y="669" type="line"/>
    </contour>
    <contour>
      <point x="367" y="73" type="line"/>
      <point x="232" y="73" type="line"/>
      <point x="232" y="204" type="line"/>
      <point x="367" y="204" type="line"/>
    </contour>
    <contour>
      <point x="552" y="430" type="line"/>
      <point x="552" y="312" type="line"/>
      <point x="48" y="312" type="line"/>
      <point x="48" y="430" type="line"/>
    </contour>
  </outline>
</glyph>
<glyph name="oslash" format="1">
  <advance width="646"/>
  <unicode hex="00F8"/>
  <outline>
    <contour>
      <point x="323" y="630" type="move" name="Anchor-0"/>
    </contour>
    <contour>
      <point x="57" y="-10" type="line"/>
      <point x="114" y="74" type="line"/>
      <point x="59" y="127"/>
      <point x="28" y="200"/>
      <point x="28" y="277" type="curve" smooth="yes"/>
      <point x="28" y="437"/>
      <point x="160" y="567"/>
      <point x="324" y="567" type="curve" smooth="yes"/>
      <point x="363" y="567"/>
      <point x="397" y="560"/>
      <point x="433" y="546" type="curve"/>
      <point x="485" y="623" type="line"/>
      <point x="571" y="565" type="line"/>
      <point x="521" y="492" type="line"/>
      <point x="585" y="433"/>
      <point x="618" y="360"/>
      <point x="618" y="277" type="curve" smooth="yes"/>
      <point x="618" y="117"/>
      <point x="486" y="-13"/>
      <point x="324" y="-13" type="curve" smooth="yes"/>
      <point x="280" y="-13"/>
      <point x="239" y="-4"/>
      <point x="198" y="15" type="curve"/>
      <point x="142" y="-67" type="line"/>
    </contour>
    <contour>
      <point x="189" y="185" type="curve"/>
      <point x="361" y="440" type="line"/>
      <point x="346" y="444"/>
      <point x="337" y="445"/>
      <point x="323" y="445" type="curve" smooth="yes"/>
      <point x="234" y="445"/>
      <point x="162" y="370"/>
      <point x="162" y="278" type="curve" smooth="yes"/>
      <point x="162" y="245"/>
      <point x="171" y="215"/>
    </contour>
    <contour>
      <point x="448" y="383" type="curve"/>
      <point x="269" y="119" type="line"/>
      <point x="288" y="112"/>
      <point x="304" y="109"/>
      <point x="323" y="109" type="curve" smooth="yes"/>
      <point x="412" y="109"/>
      <point x="484" y="184"/>
      <point x="484" y="276" type="curve" smooth="yes"/>
      <point x="484" y="316"/>
      <point x="472" y="351"/>
    </contour>
  </outline>
</glyph>
<glyph name="thorn" format="1">
  <advance width="662"/>
  <unicode hex="00FE"/>
  <outline>
    <contour>
      <point x="328" y="805" type="move" name="Anchor-0"/>
    </contour>
    <contour>
      <point x="54" y="739" type="line"/>
      <point x="187" y="739" type="line"/>
      <point x="187" y="495" type="line"/>
      <point x="230" y="543"/>
      <point x="289" y="567"/>
      <point x="359" y="567" type="curve" smooth="yes"/>
      <point x="519" y="567"/>
      <point x="634" y="446"/>
      <point x="634" y="277" type="curve" smooth="yes"/>
      <point x="634" y="108"/>
      <point x="519" y="-13"/>
      <point x="359" y="-13" type="curve" smooth="yes"/>
      <point x="289" y="-13"/>
      <point x="230" y="11"/>
      <point x="187" y="59" type="curve"/>
      <point x="187" y="-185" type="line"/>
      <point x="54" y="-185" type="line"/>
    </contour>
    <contour>
      <point x="338" y="445" type="curve" smooth="yes"/>
      <point x="248" y="445"/>
      <point x="179" y="372"/>
      <point x="179" y="277" type="curve" smooth="yes"/>
      <point x="179" y="181"/>
      <point x="248" y="109"/>
      <point x="341" y="109" type="curve" smooth="yes"/>
      <point x="431" y="109"/>
      <point x="500" y="182"/>
      <point x="500" y="277" type="curve" smooth="yes"/>
      <point x="500" y="373"/>
      <point x="431" y="445"/>
    </contour>
  </outline>
</glyph>
<glyph name="ydieresis" format="1">
  <advance width="568"/>
  <unicode hex="00FF"/>
  <outline>
    <contour>
      <point x="284" y="840" type="move" name="Anchor-0"/>
    </contour>
    <contour>
      <point x="102" y="-185" type="line"/>
      <point x="206" y="52" type="line"/>
      <point x="3" y="554" type="line"/>
      <point x="155" y="554" type="line"/>
      <point x="278" y="195" type="line"/>
      <point x="412" y="554" type="line"/>
      <point x="565" y="554" type="line"/>
      <point x="245" y="-185" type="line"/>
    </contour>
    <contour>
      <point x="113" y="630" type="line"/>
      <point x="113" y="763" type="line"/>
      <point x="246" y="763" type="line"/>
      <point x="246" y="630" type="line"/>
    </contour>
    <contour>
      <point x="323" y="630" type="line"/>
      <point x="323" y="763" type="line"/>
      <point x="456" y="763" type="line"/>
      <point x="456" y="630" type="line"/>
    </contour>
  </outline>
</glyph>
<glyph name="Ldot" format="1">
  <advance width="454"/>
  <unicode hex="013F"/>
  <outline>
    <contour>
      <point x="300" y="308.5" type="line"/>
      <point x="300" y="441.5" type="line"/>
      <point x="433" y="441.5" type="line"/>
      <point x="433" y="308.5" type="line"/>
    </contour>
    <contour>
      <point x="71" y="0" type="line"/>
      <point x="71" y="739" type="line"/>
      <point x="208" y="739" type="line"/>
      <point x="208" y="131" type="line"/>
      <point x="434" y="131" type="line"/>
      <point x="434" y="0" type="line"/>
    </contour>
  </outline>
</glyph>
<glyph name="ldot" format="1">
  <advance width="438"/>
  <unicode hex="0140"/>
  <outline>
    <contour>
      <point x="265" y="300" type="line"/>
      <point x="265" y="433" type="line"/>
      <point x="398" y="433" type="line"/>
      <point x="398" y="300" type="line"/>
    </contour>
    <contour>
      <point x="54" y="0" type="line"/>
      <point x="54" y="739" type="line"/>
      <point x="187" y="739" type="line"/>
      <point x="187" y="0" type="line"/>
    </contour>
  </outline>
</glyph>
<glyph name="Lslash" format="1">
  <advance width="484"/>
  <unicode hex="0141"/>
  <outline>
    <contour>
      <point x="181" y="805" type="move" name="Anchor-0"/>
    </contour>
    <contour>
      <point x="113" y="0" type="line"/>
      <point x="113" y="273" type="line"/>
      <point x="17" y="194" type="line"/>
      <point x="17" y="318" type="line"/>
      <point x="113" y="397" type="line"/>
      <point x="113" y="739" type="line"/>
      <point x="250" y="739" type="line"/>
      <point x="250" y="474" type="line"/>
      <point x="392" y="584" type="line"/>
      <point x="392" y="461" type="line"/>
      <point x="250" y="350" type="line"/>
      <point x="250" y="128" type="line"/>
      <point x="476" y="128" type="line"/>
      <point x="476" y="0" type="line"/>
    </contour>
  </outline>
</glyph>
<glyph name="lslash" format="1">
  <advance width="343"/>
  <unicode hex="0142"/>
  <outline>
    <contour>
      <point x="175" y="805" type="move" name="Anchor-0"/>
    </contour>
    <contour>
      <point x="109" y="0" type="line"/>
      <point x="109" y="317" type="line"/>
      <point x="28" y="255" type="line"/>
      <point x="28" y="354" type="line"/>
      <point x="109" y="417" type="line"/>
      <point x="109" y="739" type="line"/>
      <point x="242" y="739" type="line"/>
      <point x="242" y="482" type="line"/>
      <point x="323" y="545" type="line"/>
      <point x="323" y="446" type="line"/>
      <point x="242" y="383" type="line"/>
      <point x="242" y="0" type="line"/>
    </contour>
  </outline>
</glyph>
<glyph name="OE" format="1">
  <advance width="1058"/>
  <unicode hex="0152"/>
  <outline>
    <contour>
      <point x="569" y="805" type="move" name="Anchor-0"/>
    </contour>
    <contour>
      <point x="1002" y="0" type="line"/>
      <point x="645" y="0" type="line"/>
      <point x="645" y="81" type="line"/>
      <point x="590" y="20"/>
      <point x="509" y="-13"/>
      <point x="416" y="-13" type="curve" smooth="yes"/>
      <point x="199" y="-13"/>
      <point x="36" y="151"/>
      <point x="36" y="368" type="curve" smooth="yes"/>
      <point x="36" y="588"/>
      <point x="196" y="752"/>
      <point x="411" y="752" type="curve" smooth="yes"/>
      <point x="512" y="752"/>
      <point x="589" y="721"/>
      <point x="645" y="657" type="curve"/>
      <point x="645" y="739" type="line"/>
      <point x="1002" y="739" type="line"/>
      <point x="1002" y="608" type="line"/>
      <point x="784" y="608" type="line"/>
      <point x="784" y="434" type="line"/>
      <point x="991" y="434" type="line"/>
      <point x="991" y="303" type="line"/>
      <point x="784" y="303" type="line"/>
      <point x="784" y="131" type="line"/>
      <point x="1002" y="131" type="line"/>
    </contour>
    <contour>
      <point x="407" y="620" type="curve" smooth="yes"/>
      <point x="276" y="620"/>
      <point x="174" y="509"/>
      <point x="174" y="366" type="curve" smooth="yes"/>
      <point x="174" y="225"/>
      <point x="278" y="119"/>
      <point x="414" y="119" type="curve" smooth="yes"/>
      <point x="551" y="119"/>
      <point x="650" y="224"/>
      <point x="650" y="368" type="curve" smooth="yes"/>
      <point x="650" y="516"/>
      <point x="550" y="620"/>
    </contour>
  </outline>
</glyph>
<glyph name="oe" format="1">
  <advance width="1074"/>
  <unicode hex="0153"/>
  <outline>
    <contour>
      <point x="537" y="630" type="move" name="Anchor-0"/>
    </contour>
    <contour>
      <point x="886" y="163" type="curve"/>
      <point x="1028" y="163" type="line"/>
      <point x="989" y="56"/>
      <point x="886" y="-13"/>
      <point x="766" y="-13" type="curve" smooth="yes"/>
      <point x="672" y="-13"/>
      <point x="592" y="27"/>
      <point x="541" y="100" type="curve"/>
      <point x="487" y="23"/>
      <point x="418" y="-13"/>
      <point x="322" y="-13" type="curve" smooth="yes"/>
      <point x="154" y="-13"/>
      <point x="28" y="111"/>
      <point x="28" y="277" type="curve" smooth="yes"/>
      <point x="28" y="439"/>
      <point x="156" y="567"/>
      <point x="318" y="567" type="curve" smooth="yes"/>
      <point x="380" y="567"/>
      <point x="441" y="548"/>
      <point x="485" y="513" type="curve" smooth="yes"/>
      <point x="504" y="499"/>
      <point x="517" y="485"/>
      <point x="541" y="456" type="curve"/>
      <point x="605" y="534"/>
      <point x="670" y="567"/>
      <point x="760" y="567" type="curve" smooth="yes"/>
      <point x="820" y="567"/>
      <point x="880" y="549"/>
      <point x="928" y="517" type="curve" smooth="yes"/>
      <point x="1006" y="465"/>
      <point x="1046" y="386"/>
      <point x="1046" y="284" type="curve" smooth="yes"/>
      <point x="1046" y="261"/>
      <point x="1045" y="245"/>
      <point x="1041" y="218" type="curve"/>
      <point x="612" y="218" type="line"/>
      <point x="634" y="151"/>
      <point x="692" y="109"/>
      <point x="765" y="109" type="curve" smooth="yes"/>
      <point x="812" y="109"/>
      <point x="860" y="131"/>
    </contour>
    <contour>
      <point x="320" y="445" type="curve" smooth="yes"/>
      <point x="232" y="445"/>
      <point x="162" y="371"/>
      <point x="162" y="278" type="curve" smooth="yes"/>
      <point x="162" y="182"/>
      <point x="233" y="109"/>
      <point x="327" y="109" type="curve" smooth="yes"/>
      <point x="416" y="109"/>
      <point x="484" y="181"/>
      <point x="484" y="276" type="curve" smooth="yes"/>
      <point x="484" y="373"/>
      <point x="415" y="445"/>
    </contour>
    <contour>
      <point x="606" y="335" type="curve"/>
      <point x="908" y="335" type="line"/>
      <point x="887" y="408"/>
      <point x="837" y="445"/>
      <point x="758" y="445" type="curve" smooth="yes"/>
      <point x="682" y="445"/>
      <point x="631" y="408"/>
    </contour>
  </outline>
</glyph>
<glyph name="Ydieresis" format="1">
  <advance width="637"/>
  <unicode hex="0178"/>
  <outline>
    <contour>
      <point x="318" y="1015" type="move" name="Anchor-0"/>
    </contour>
    <contour>
      <point x="250" y="0" type="line"/>
      <point x="250" y="273" type="line"/>
      <point x="7" y="739" type="line"/>
      <point x="155" y="739" type="line"/>
      <point x="319" y="399" type="line"/>
      <point x="482" y="739" type="line"/>
      <point x="630" y="739" type="line"/>
      <point x="387" y="273" type="line"/>
      <point x="387" y="0" type="line"/>
    </contour>
    <contour>
      <point x="147" y="805" type="line"/>
      <point x="147" y="938" type="line"/>
      <point x="280" y="938" type="line"/>
      <point x="280" y="805" type="line"/>
    </contour>
    <contour>
      <point x="357" y="805" type="line"/>
      <point x="357" y="938" type="line"/>
      <point x="490" y="938" type="line"/>
      <point x="490" y="805" type="line"/>
    </contour>
  </outline>
</glyph>
<glyph name="Zcaron" format="1">
  <advance width="522"/>
  <unicode hex="017D"/>
  <outline>
    <contour>
      <point x="259" y="1015" type="move" name="Anchor-0"/>
    </contour>
    <contour>
      <point x="30" y="116" type="line"/>
      <point x="310" y="608" type="line"/>
      <point x="45" y="608" type="line"/>
      <point x="45" y="739" type="line"/>
      <point x="473" y="739" type="line"/>
      <point x="473" y="616" type="line"/>
      <point x="195" y="131" type="line"/>
      <point x="492" y="131" type="line"/>
      <point x="492" y="0" type="line"/>
      <point x="30" y="0" type="line"/>
    </contour>
    <contour>
      <point x="62" y="943" type="line"/>
      <point x="209" y="943" type="line"/>
      <point x="263" y="879" type="line"/>
      <point x="316" y="943" type="line"/>
      <point x="461" y="943" type="line"/>
      <point x="316" y="805" type="line"/>
      <point x="209" y="805" type="line"/>
    </contour>
  </outline>
</glyph>
<glyph name="zcaron" format="1">
  <advance width="482"/>
  <unicode hex="017E"/>
  <outline>
    <contour>
      <point x="246" y="840" type="move" name="Anchor-0"/>
    </contour>
    <contour>
      <point x="30" y="0" type="line"/>
      <point x="30" y="119" type="line"/>
      <point x="274" y="435" type="line"/>
      <point x="58" y="435" type="line"/>
      <point x="58" y="554" type="line"/>
      <point x="433" y="554" type="line"/>
      <point x="433" y="435" type="line"/>
      <point x="189" y="119" type="line"/>
      <point x="452" y="119" type="line"/>
      <point x="452" y="0" type="line"/>
    </contour>
    <contour>
      <point x="48" y="768" type="line"/>
      <point x="195" y="768" type="line"/>
      <point x="249" y="704" type="line"/>
      <point x="302" y="768" type="line"/>
      <point x="447" y="768" type="line"/>
      <point x="302" y="630" type="line"/>
      <point x="195" y="630" type="line"/>
    </contour>
  </outline>
</glyph>
<glyph name="florin" format="1">
  <advance width="560"/>
  <unicode hex="0192"/>
  <outline>
    <contour>
      <point x="402" y="890" type="move" name="Anchor-0"/>
    </contour>
    <contour>
      <point x="384" y="585" type="curve"/>
      <point x="476" y="585" type="line"/>
      <point x="457" y="470" type="line"/>
      <point x="364" y="470" type="line"/>
      <point x="302" y="106" type="line" smooth="yes"/>
      <point x="282" y="-11"/>
      <point x="265" y="-53"/>
      <point x="223" y="-91" type="curve" smooth="yes"/>
      <point x="180" y="-130"/>
      <point x="128" y="-149"/>
      <point x="62" y="-149" type="curve" smooth="yes"/>
      <point x="38" y="-149"/>
      <point x="24" y="-147"/>
      <point x="3" y="-142" type="curve"/>
      <point x="23" y="-26" type="line"/>
      <point x="37" y="-29"/>
      <point x="45" y="-30"/>
      <point x="56" y="-30" type="curve" smooth="yes"/>
      <point x="97" y="-30"/>
      <point x="129" y="-15"/>
      <point x="146" y="14" type="curve" smooth="yes"/>
      <point x="158" y="33"/>
      <point x="168" y="69"/>
      <point x="178" y="128" type="curve" smooth="yes"/>
      <point x="238" y="470" type="line"/>
      <point x="144" y="470" type="line"/>
      <point x="163" y="585" type="line"/>
      <point x="257" y="585" type="line"/>
      <point x="262" y="611" type="line" smooth="yes"/>
      <point x="279" y="691"/>
      <point x="289" y="715"/>
      <point x="320" y="751" type="curve" smooth="yes"/>
      <point x="360" y="797"/>
      <point x="419" y="823"/>
      <point x="485" y="823" type="curve" smooth="yes"/>
      <point x="497" y="823"/>
      <point x="503" y="822"/>
      <point x="514" y="820" type="curve"/>
      <point x="494" y="703" type="line"/>
      <point x="484" y="703" type="line" smooth="yes"/>
      <point x="445" y="703"/>
      <point x="415" y="683"/>
      <point x="400" y="647" type="curve" smooth="yes"/>
      <point x="394" y="633"/>
      <point x="390" y="618"/>
    </contour>
  </outline>
</glyph>
<glyph name="circumflex" format="1">
  <advance width="527"/>
  <unicode hex="02C6"/>
  <outline>
    <contour>
      <point x="64" y="630" type="line"/>
      <point x="211" y="768" type="line"/>
      <point x="318" y="768" type="line"/>
      <point x="463" y="630" type="line"/>
      <point x="318" y="630" type="line"/>
      <point x="265" y="694" type="line"/>
      <point x="211" y="630" type="line"/>
    </contour>
  </outline>
</glyph>
<glyph name="breve" format="1">
  <advance width="458"/>
  <unicode hex="02D8"/>
  <outline>
    <contour>
      <point x="64" y="769" type="curve"/>
      <point x="162" y="769" type="line"/>
      <point x="174" y="740"/>
      <point x="196" y="726"/>
      <point x="230" y="726" type="curve" smooth="yes"/>
      <point x="265" y="726"/>
      <point x="287" y="741"/>
      <point x="292" y="769" type="curve"/>
      <point x="394" y="769" type="line"/>
      <point x="391" y="685"/>
      <point x="325" y="630"/>
      <point x="230" y="630" type="curve" smooth="yes"/>
      <point x="131" y="630"/>
      <point x="70" y="681"/>
    </contour>
  </outline>
</glyph>
<glyph name="dotaccent" format="1">
  <advance width="261"/>
  <unicode hex="02D9"/>
  <outline>
    <contour>
      <point x="64" y="630" type="line"/>
      <point x="64" y="763" type="line"/>
      <point x="197" y="763" type="line"/>
      <point x="197" y="630" type="line"/>
    </contour>
  </outline>
</glyph>
<glyph name="ring" format="1">
  <advance width="334"/>
  <unicode hex="02DA"/>
  <outline>
    <contour>
      <point x="168" y="816" type="curve" smooth="yes"/>
      <point x="224" y="816"/>
      <point x="270" y="769"/>
      <point x="270" y="713" type="curve" smooth="yes"/>
      <point x="270" y="656"/>
      <point x="224" y="610"/>
      <point x="167" y="610" type="curve" smooth="yes"/>
      <point x="110" y="610"/>
      <point x="64" y="656"/>
      <point x="64" y="713" type="curve" smooth="yes"/>
      <point x="64" y="770"/>
      <point x="110" y="816"/>
    </contour>
    <contour>
      <point x="166" y="749" type="curve" smooth="yes"/>
      <point x="147" y="749"/>
      <point x="131" y="733"/>
      <point x="131" y="713" type="curve" smooth="yes"/>
      <point x="131" y="693"/>
      <point x="147" y="677"/>
      <point x="167" y="677" type="curve" smooth="yes"/>
      <point x="187" y="677"/>
      <point x="203" y="693"/>
      <point x="203" y="713" type="curve" smooth="yes"/>
      <point x="203" y="733"/>
      <point x="187" y="749"/>
    </contour>
  </outline>
</glyph>
<glyph name="ogonek" format="1">
  <advance width="310"/>
  <unicode hex="02DB"/>
  <outline>
    <contour>
      <point x="150" y="0" type="curve"/>
      <point x="220" y="0" type="line"/>
      <point x="169" y="-36"/>
      <point x="155" y="-54"/>
      <point x="155" y="-81" type="curve" smooth="yes"/>
      <point x="155" y="-105"/>
      <point x="176" y="-123"/>
      <point x="205" y="-123" type="curve" smooth="yes"/>
      <point x="217" y="-123"/>
      <point x="227" y="-121"/>
      <point x="246" y="-113" type="curve"/>
      <point x="246" y="-190" type="line"/>
      <point x="223" y="-200"/>
      <point x="202" y="-204"/>
      <point x="180" y="-204" type="curve" smooth="yes"/>
      <point x="111" y="-204"/>
      <point x="64" y="-164"/>
      <point x="64" y="-105" type="curve" smooth="yes"/>
      <point x="64" y="-62"/>
      <point x="93" y="-27"/>
    </contour>
  </outline>
</glyph>
<glyph name="tilde" format="1">
  <advance width="459"/>
  <unicode hex="02DC"/>
  <outline>
    <contour>
      <point x="118" y="636" type="curve"/>
      <point x="64" y="716" type="line"/>
      <point x="99" y="751"/>
      <point x="125" y="763"/>
      <point x="167" y="763" type="curve" smooth="yes"/>
      <point x="189" y="763"/>
      <point x="198" y="761"/>
      <point x="227" y="749" type="curve" smooth="yes"/>
      <point x="247" y="741"/>
      <point x="260" y="738"/>
      <point x="274" y="738" type="curve" smooth="yes"/>
      <point x="300" y="738"/>
      <point x="320" y="748"/>
      <point x="341" y="772" type="curve"/>
      <point x="395" y="691" type="line"/>
      <point x="363" y="652"/>
      <point x="336" y="636"/>
      <point x="301" y="636" type="curve" smooth="yes"/>
      <point x="286" y="636"/>
      <point x="268" y="640"/>
      <point x="242" y="649" type="curve" smooth="yes"/>
      <point x="215" y="659"/>
      <point x="205" y="661"/>
      <point x="188" y="661" type="curve" smooth="yes"/>
      <point x="162" y="661"/>
      <point x="156" y="659"/>
    </contour>
  </outline>
</glyph>
<glyph name="hungarumlaut" format="1">
  <advance width="683"/>
  <unicode hex="02DD"/>
  <outline>
    <contour>
      <point x="64" y="682" type="line"/>
      <point x="274" y="825" type="line"/>
      <point x="336" y="745" type="line"/>
      <point x="114" y="613" type="line"/>
    </contour>
    <contour>
      <point x="347" y="682" type="line"/>
      <point x="558" y="825" type="line"/>
      <point x="619" y="745" type="line"/>
      <point x="398" y="613" type="line"/>
    </contour>
  </outline>
</glyph>
<glyph name="gravecomb" format="1">
  <advance width="0"/>
  <unicode hex="0300"/>
  <outline>
    <contour>
      <point x="-323" y="840" type="move" name="Anchor-1"/>
    </contour>
    <contour>
      <point x="-323" y="630" type="move" name="_Anchor-1"/>
    </contour>
    <contour>
      <point x="-323" y="630" type="move" name="_Anchor-0"/>
    </contour>
    <contour>
      <point x="-495" y="737" type="line"/>
      <point x="-438" y="825" type="line"/>
      <point x="-216" y="692" type="line"/>
      <point x="-269" y="613" type="line"/>
    </contour>
  </outline>
</glyph>
<glyph name="acutecomb" format="1">
  <advance width="0"/>
  <unicode hex="0301"/>
  <outline>
    <contour>
      <point x="-323" y="840" type="move" name="Anchor-1"/>
    </contour>
    <contour>
      <point x="-323" y="630" type="move" name="_Anchor-1"/>
    </contour>
    <contour>
      <point x="-323" y="630" type="move" name="_Anchor-0"/>
    </contour>
    <contour>
      <point x="-377" y="613" type="line"/>
      <point x="-428" y="691" type="line"/>
      <point x="-204" y="825" type="line"/>
      <point x="-150" y="733" type="line"/>
    </contour>
  </outline>
</glyph>
<glyph name="uni0302" format="1">
  <advance width="0"/>
  <unicode hex="0302"/>
  <outline>
    <contour>
      <point x="-323" y="840" type="move" name="Anchor-1"/>
    </contour>
    <contour>
      <point x="-323" y="630" type="move" name="_Anchor-1"/>
    </contour>
    <contour>
      <point x="-323" y="630" type="move" name="_Anchor-0"/>
    </contour>
    <contour>
      <point x="-522" y="630" type="line"/>
      <point x="-375" y="768" type="line"/>
      <point x="-268" y="768" type="line"/>
      <point x="-123" y="630" type="line"/>
      <point x="-268" y="630" type="line"/>
      <point x="-321" y="694" type="line"/>
      <point x="-375" y="630" type="line"/>
    </contour>
  </outline>
</glyph>
<glyph name="tildecomb" format="1">
  <advance width="0"/>
  <unicode hex="0303"/>
  <outline>
    <contour>
      <point x="-323" y="840" type="move" name="Anchor-1"/>
    </contour>
    <contour>
      <point x="-323" y="630" type="move" name="_Anchor-1"/>
    </contour>
    <contour>
      <point x="-323" y="630" type="move" name="_Anchor-0"/>
    </contour>
    <contour>
      <point x="-431" y="636" type="curve"/>
      <point x="-485" y="716" type="line"/>
      <point x="-450" y="751"/>
      <point x="-424" y="763"/>
      <point x="-382" y="763" type="curve" smooth="yes"/>
      <point x="-360" y="763"/>
      <point x="-351" y="761"/>
      <point x="-322" y="749" type="curve" smooth="yes"/>
      <point x="-302" y="741"/>
      <point x="-289" y="738"/>
      <point x="-275" y="738" type="curve" smooth="yes"/>
      <point x="-249" y="738"/>
      <point x="-229" y="748"/>
      <point x="-208" y="772" type="curve"/>
      <point x="-154" y="691" type="line"/>
      <point x="-186" y="652"/>
      <point x="-213" y="636"/>
      <point x="-248" y="636" type="curve" smooth="yes"/>
      <point x="-263" y="636"/>
      <point x="-281" y="640"/>
      <point x="-307" y="649" type="curve" smooth="yes"/>
      <point x="-334" y="659"/>
      <point x="-344" y="661"/>
      <point x="-361" y="661" type="curve" smooth="yes"/>
      <point x="-387" y="661"/>
      <point x="-393" y="659"/>
    </contour>
  </outline>
</glyph>
<glyph name="uni0304" format="1">
  <advance width="0"/>
  <unicode hex="0304"/>
  <outline>
    <contour>
      <point x="-323" y="840" type="move" name="Anchor-1"/>
    </contour>
    <contour>
      <point x="-323" y="630" type="move" name="_Anchor-1"/>
    </contour>
    <contour>
      <point x="-323" y="630" type="move" name="_Anchor-0"/>
    </contour>
    <contour>
      <point x="-461" y="648" type="line"/>
      <point x="-461" y="748" type="line"/>
      <point x="-184" y="748" type="line"/>
      <point x="-184" y="648" type="line"/>
    </contour>
  </outline>
</glyph>
<glyph name="uni0306" format="1">
  <advance width="0"/>
  <unicode hex="0306"/>
  <outline>
    <contour>
      <point x="-323" y="840" type="move" name="Anchor-1"/>
    </contour>
    <contour>
      <point x="-323" y="630" type="move" name="_Anchor-1"/>
    </contour>
    <contour>
      <point x="-323" y="630" type="move" name="_Anchor-0"/>
    </contour>
    <contour>
      <point x="-488" y="769" type="curve"/>
      <point x="-390" y="769" type="line"/>
      <point x="-378" y="740"/>
      <point x="-356" y="726"/>
      <point x="-322" y="726" type="curve" smooth="yes"/>
      <point x="-287" y="726"/>
      <point x="-265" y="741"/>
      <point x="-260" y="769" type="curve"/>
      <point x="-158" y="769" type="line"/>
      <point x="-161" y="685"/>
      <point x="-227" y="630"/>
      <point x="-322" y="630" type="curve" smooth="yes"/>
      <point x="-421" y="630"/>
      <point x="-482" y="681"/>
    </contour>
  </outline>
</glyph>
<glyph name="uni0307" format="1">
  <advance width="0"/>
  <unicode hex="0307"/>
  <outline>
    <contour>
      <point x="-323" y="840" type="move" name="Anchor-1"/>
    </contour>
    <contour>
      <point x="-323" y="630" type="move" name="_Anchor-1"/>
    </contour>
    <contour>
      <point x="-323" y="630" type="move" name="_Anchor-0"/>
    </contour>
    <contour>
      <point x="-389" y="630" type="line"/>
      <point x="-389" y="763" type="line"/>
      <point x="-256" y="763" type="line"/>
      <point x="-256" y="630" type="line"/>
    </contour>
  </outline>
</glyph>
<glyph name="uni0308" format="1">
  <advance width="0"/>
  <unicode hex="0308"/>
  <outline>
    <contour>
      <point x="-323" y="840" type="move" name="Anchor-1"/>
    </contour>
    <contour>
      <point x="-323" y="630" type="move" name="_Anchor-1"/>
    </contour>
    <contour>
      <point x="-323" y="630" type="move" name="_Anchor-0"/>
    </contour>
    <contour>
      <point x="-494" y="630" type="line"/>
      <point x="-494" y="763" type="line"/>
      <point x="-361" y="763" type="line"/>
      <point x="-361" y="630" type="line"/>
    </contour>
    <contour>
      <point x="-284" y="630" type="line"/>
      <point x="-284" y="763" type="line"/>
      <point x="-151" y="763" type="line"/>
      <point x="-151" y="630" type="line"/>
    </contour>
  </outline>
</glyph>
<glyph name="uni030A" format="1">
  <advance width="0"/>
  <unicode hex="030A"/>
  <outline>
    <contour>
      <point x="-323" y="840" type="move" name="Anchor-1"/>
    </contour>
    <contour>
      <point x="-323" y="630" type="move" name="_Anchor-1"/>
    </contour>
    <contour>
      <point x="-323" y="630" type="move" name="_Anchor-0"/>
    </contour>
    <contour>
      <point x="-322" y="816" type="curve" smooth="yes"/>
      <point x="-266" y="816"/>
      <point x="-220" y="769"/>
      <point x="-220" y="713" type="curve" smooth="yes"/>
      <point x="-220" y="656"/>
      <point x="-266" y="610"/>
      <point x="-323" y="610" type="curve" smooth="yes"/>
      <point x="-380" y="610"/>
      <point x="-426" y="656"/>
      <point x="-426" y="713" type="curve" smooth="yes"/>
      <point x="-426" y="770"/>
      <point x="-380" y="816"/>
    </contour>
    <contour>
      <point x="-324" y="749" type="curve" smooth="yes"/>
      <point x="-343" y="749"/>
      <point x="-359" y="733"/>
      <point x="-359" y="713" type="curve" smooth="yes"/>
      <point x="-359" y="693"/>
      <point x="-343" y="677"/>
      <point x="-323" y="677" type="curve" smooth="yes"/>
      <point x="-303" y="677"/>
      <point x="-287" y="693"/>
      <point x="-287" y="713" type="curve" smooth="yes"/>
      <point x="-287" y="733"/>
      <point x="-303" y="749"/>
    </contour>
  </outline>
</glyph>
<glyph name="uni030B" format="1">
  <advance width="0"/>
  <unicode hex="030B"/>
  <outline>
    <contour>
      <point x="-323" y="840" type="move" name="Anchor-1"/>
    </contour>
    <contour>
      <point x="-323" y="630" type="move" name="_Anchor-1"/>
    </contour>
    <contour>
      <point x="-323" y="630" type="move" name="_Anchor-0"/>
    </contour>
    <contour>
      <point x="-583" y="682" type="line"/>
      <point x="-373" y="825" type="line"/>
      <point x="-311" y="745" type="line"/>
      <point x="-533" y="613" type="line"/>
    </contour>
    <contour>
      <point x="-300" y="682" type="line"/>
      <point x="-89" y="825" type="line"/>
      <point x="-28" y="745" type="line"/>
      <point x="-249" y="613" type="line"/>
    </contour>
  </outline>
</glyph>
<glyph name="uni030C" format="1">
  <advance width="0"/>
  <unicode hex="030C"/>
  <outline>
    <contour>
      <point x="-323" y="840" type="move" name="Anchor-1"/>
    </contour>
    <contour>
      <point x="-323" y="630" type="move" name="_Anchor-1"/>
    </contour>
    <contour>
      <point x="-323" y="630" type="move" name="_Anchor-0"/>
    </contour>
    <contour>
      <point x="-522" y="768" type="line"/>
      <point x="-375" y="768" type="line"/>
      <point x="-321" y="704" type="line"/>
      <point x="-268" y="768" type="line"/>
      <point x="-123" y="768" type="line"/>
      <point x="-268" y="630" type="line"/>
      <point x="-375" y="630" type="line"/>
    </contour>
  </outline>
</glyph>
<glyph name="uni030F" format="1">
  <advance width="0"/>
  <unicode hex="030F"/>
  <outline>
    <contour>
      <point x="-619" y="914" type="line"/>
      <point x="-562" y="1002" type="line"/>
      <point x="-340" y="869" type="line"/>
      <point x="-393" y="790" type="line"/>
    </contour>
    <contour>
      <point x="-349" y="914" type="line"/>
      <point x="-292" y="1002" type="line"/>
      <point x="-70" y="869" type="line"/>
      <point x="-123" y="790" type="line"/>
    </contour>
  </outline>
</glyph>
<glyph name="uni0402" format="1">
  <advance width="693"/>
  <unicode hex="0402"/>
  <outline>
    <contour>
      <point x="230" y="805" type="move" name="Anchor-0"/>
    </contour>
    <contour>
      <point x="400" y="-13" type="curve"/>
      <point x="400" y="118" type="line"/>
      <point x="460" y="118"/>
      <point x="528" y="156"/>
      <point x="528" y="227" type="curve" smooth="yes"/>
      <point x="528" y="307"/>
      <point x="445" y="319"/>
      <point x="349" y="319" type="curve" smooth="yes"/>
      <point x="291" y="319" type="line"/>
      <point x="291" y="0" type="line"/>
      <point x="154" y="0" type="line"/>
      <point x="154" y="608" type="line"/>
      <point x="7" y="608" type="line"/>
      <point x="7" y="739" type="line"/>
      <point x="468" y="739" type="line"/>
      <point x="468" y="608" type="line"/>
      <point x="291" y="608" type="line"/>
      <point x="291" y="450" type="line"/>
      <point x="340" y="450" type="line" smooth="yes"/>
      <point x="453" y="450"/>
      <point x="506" y="443"/>
      <point x="551" y="421" type="curve" smooth="yes"/>
      <point x="623" y="386"/>
      <point x="666" y="310"/>
      <point x="666" y="224" type="curve" smooth="yes"/>
      <point x="666" y="68"/>
      <point x="542" y="-13"/>
    </contour>
  </outline>
</glyph>
<glyph name="uni0403" format="1">
  <advance width="467"/>
  <unicode hex="0403"/>
  <outline>
    <contour>
      <point x="265" y="1015" type="move" name="Anchor-0"/>
    </contour>
    <contour>
      <point x="211" y="788" type="line"/>
      <point x="160" y="866" type="line"/>
      <point x="384" y="1000" type="line"/>
      <point x="438" y="908" type="line"/>
    </contour>
    <contour>
      <point x="460" y="608" type="line"/>
      <point x="208" y="608" type="line"/>
      <point x="208" y="0" type="line"/>
      <point x="71" y="0" type="line"/>
      <point x="71" y="739" type="line"/>
      <point x="460" y="739" type="line"/>
    </contour>
  </outline>
</glyph>
